G04 #@! TF.GenerationSoftware,KiCad,Pcbnew,9.0.3*
G04 #@! TF.CreationDate,2025-08-23T22:57:17-07:00*
G04 #@! TF.ProjectId,analog_bms,616e616c-6f67-45f6-926d-732e6b696361,rev?*
G04 #@! TF.SameCoordinates,Original*
G04 #@! TF.FileFunction,Paste,Top*
G04 #@! TF.FilePolarity,Positive*
%FSLAX46Y46*%
G04 Gerber Fmt 4.6, Leading zero omitted, Abs format (unit mm)*
G04 Created by KiCad (PCBNEW 9.0.3) date 2025-08-23 22:57:17*
%MOMM*%
%LPD*%
G01*
G04 APERTURE LIST*
G04 Aperture macros list*
%AMRoundRect*
0 Rectangle with rounded corners*
0 $1 Rounding radius*
0 $2 $3 $4 $5 $6 $7 $8 $9 X,Y pos of 4 corners*
0 Add a 4 corners polygon primitive as box body*
4,1,4,$2,$3,$4,$5,$6,$7,$8,$9,$2,$3,0*
0 Add four circle primitives for the rounded corners*
1,1,$1+$1,$2,$3*
1,1,$1+$1,$4,$5*
1,1,$1+$1,$6,$7*
1,1,$1+$1,$8,$9*
0 Add four rect primitives between the rounded corners*
20,1,$1+$1,$2,$3,$4,$5,0*
20,1,$1+$1,$4,$5,$6,$7,0*
20,1,$1+$1,$6,$7,$8,$9,0*
20,1,$1+$1,$8,$9,$2,$3,0*%
G04 Aperture macros list end*
%ADD10RoundRect,0.250000X0.262500X0.450000X-0.262500X0.450000X-0.262500X-0.450000X0.262500X-0.450000X0*%
%ADD11RoundRect,0.112500X-0.187500X-0.112500X0.187500X-0.112500X0.187500X0.112500X-0.187500X0.112500X0*%
%ADD12RoundRect,0.250000X-0.262500X-0.450000X0.262500X-0.450000X0.262500X0.450000X-0.262500X0.450000X0*%
%ADD13RoundRect,0.150000X0.512500X0.150000X-0.512500X0.150000X-0.512500X-0.150000X0.512500X-0.150000X0*%
%ADD14RoundRect,0.162500X-0.447500X-0.162500X0.447500X-0.162500X0.447500X0.162500X-0.447500X0.162500X0*%
%ADD15RoundRect,0.250000X-0.475000X0.250000X-0.475000X-0.250000X0.475000X-0.250000X0.475000X0.250000X0*%
%ADD16RoundRect,0.250000X0.250000X0.475000X-0.250000X0.475000X-0.250000X-0.475000X0.250000X-0.475000X0*%
%ADD17RoundRect,0.250000X0.450000X-0.262500X0.450000X0.262500X-0.450000X0.262500X-0.450000X-0.262500X0*%
%ADD18RoundRect,0.162500X0.447500X0.162500X-0.447500X0.162500X-0.447500X-0.162500X0.447500X-0.162500X0*%
%ADD19R,1.168400X0.355600*%
%ADD20RoundRect,0.150000X-0.512500X-0.150000X0.512500X-0.150000X0.512500X0.150000X-0.512500X0.150000X0*%
%ADD21RoundRect,0.162500X-0.162500X0.447500X-0.162500X-0.447500X0.162500X-0.447500X0.162500X0.447500X0*%
%ADD22RoundRect,0.250000X-0.450000X0.262500X-0.450000X-0.262500X0.450000X-0.262500X0.450000X0.262500X0*%
%ADD23RoundRect,0.067500X0.457500X0.157500X-0.457500X0.157500X-0.457500X-0.157500X0.457500X-0.157500X0*%
G04 APERTURE END LIST*
D10*
X132912500Y-107250000D03*
X131087500Y-107250000D03*
D11*
X126450000Y-113500000D03*
X128550000Y-113500000D03*
D10*
X146912500Y-107250000D03*
X145087500Y-107250000D03*
X132912500Y-105250000D03*
X131087500Y-105250000D03*
D11*
X144950000Y-115250000D03*
X147050000Y-115250000D03*
D12*
X131087500Y-109250000D03*
X132912500Y-109250000D03*
D10*
X146912500Y-109250000D03*
X145087500Y-109250000D03*
D13*
X133137500Y-114950000D03*
X133137500Y-114000000D03*
X133137500Y-113050000D03*
X130862500Y-113050000D03*
X130862500Y-114950000D03*
D12*
X127587500Y-105250000D03*
X129412500Y-105250000D03*
D10*
X150412500Y-111250000D03*
X148587500Y-111250000D03*
D12*
X131087500Y-120750000D03*
X132912500Y-120750000D03*
D14*
X135260000Y-117050000D03*
X135260000Y-118950000D03*
X137880000Y-118000000D03*
D15*
X151000000Y-120800000D03*
X151000000Y-122700000D03*
D11*
X144950000Y-113250000D03*
X147050000Y-113250000D03*
D10*
X155912500Y-119000000D03*
X154087500Y-119000000D03*
D12*
X148587500Y-107250000D03*
X150412500Y-107250000D03*
D14*
X144760000Y-117050000D03*
X144760000Y-118950000D03*
X147380000Y-118000000D03*
D13*
X133137500Y-118950000D03*
X133137500Y-118000000D03*
X133137500Y-117050000D03*
X130862500Y-117050000D03*
X130862500Y-118950000D03*
D16*
X128450000Y-115500000D03*
X126550000Y-115500000D03*
D12*
X154087500Y-117000000D03*
X155912500Y-117000000D03*
D17*
X124500000Y-111412500D03*
X124500000Y-109587500D03*
D18*
X142740000Y-118950000D03*
X142740000Y-117050000D03*
X140120000Y-118000000D03*
D19*
X126458600Y-117350001D03*
X126458600Y-118000000D03*
X126458600Y-118649999D03*
X128541400Y-118649999D03*
X128541400Y-117350001D03*
D10*
X155912500Y-113000000D03*
X154087500Y-113000000D03*
X132912500Y-111250000D03*
X131087500Y-111250000D03*
D20*
X146362500Y-120800000D03*
X146362500Y-121750000D03*
X146362500Y-122700000D03*
X148637500Y-122700000D03*
X148637500Y-121750000D03*
X148637500Y-120800000D03*
D21*
X142450000Y-111760000D03*
X140550000Y-111760000D03*
X141500000Y-114380000D03*
X137450000Y-111760000D03*
X135550000Y-111760000D03*
X136500000Y-114380000D03*
D22*
X122500000Y-118087500D03*
X122500000Y-119912500D03*
D10*
X150412500Y-105250000D03*
X148587500Y-105250000D03*
D22*
X122500000Y-109587500D03*
X122500000Y-111412500D03*
X124500000Y-114587500D03*
X124500000Y-116412500D03*
D12*
X145087500Y-105250000D03*
X146912500Y-105250000D03*
X150087500Y-119000000D03*
X151912500Y-119000000D03*
X134587500Y-120750000D03*
X136412500Y-120750000D03*
D16*
X128500000Y-120500000D03*
X126600000Y-120500000D03*
D12*
X127587500Y-107250000D03*
X129412500Y-107250000D03*
D10*
X150412500Y-113250000D03*
X148587500Y-113250000D03*
D23*
X152300000Y-116975000D03*
X152300000Y-116325000D03*
X152300000Y-115675000D03*
X152300000Y-115025000D03*
X149700000Y-115025000D03*
X149700000Y-115675000D03*
X149700000Y-116325000D03*
X149700000Y-116975000D03*
D22*
X124500000Y-118087500D03*
X124500000Y-119912500D03*
D12*
X145087500Y-111250000D03*
X146912500Y-111250000D03*
D10*
X155912500Y-111000000D03*
X154087500Y-111000000D03*
X155912500Y-109000000D03*
X154087500Y-109000000D03*
D12*
X148587500Y-109250000D03*
X150412500Y-109250000D03*
D22*
X122500000Y-114587500D03*
X122500000Y-116412500D03*
D10*
X129412500Y-109250000D03*
X127587500Y-109250000D03*
X155912500Y-115000000D03*
X154087500Y-115000000D03*
M02*
