G04 #@! TF.GenerationSoftware,KiCad,Pcbnew,9.0.3*
G04 #@! TF.CreationDate,2025-08-23T22:57:17-07:00*
G04 #@! TF.ProjectId,analog_bms,616e616c-6f67-45f6-926d-732e6b696361,rev?*
G04 #@! TF.SameCoordinates,Original*
G04 #@! TF.FileFunction,Copper,L1,Top*
G04 #@! TF.FilePolarity,Positive*
%FSLAX46Y46*%
G04 Gerber Fmt 4.6, Leading zero omitted, Abs format (unit mm)*
G04 Created by KiCad (PCBNEW 9.0.3) date 2025-08-23 22:57:17*
%MOMM*%
%LPD*%
G01*
G04 APERTURE LIST*
G04 Aperture macros list*
%AMRoundRect*
0 Rectangle with rounded corners*
0 $1 Rounding radius*
0 $2 $3 $4 $5 $6 $7 $8 $9 X,Y pos of 4 corners*
0 Add a 4 corners polygon primitive as box body*
4,1,4,$2,$3,$4,$5,$6,$7,$8,$9,$2,$3,0*
0 Add four circle primitives for the rounded corners*
1,1,$1+$1,$2,$3*
1,1,$1+$1,$4,$5*
1,1,$1+$1,$6,$7*
1,1,$1+$1,$8,$9*
0 Add four rect primitives between the rounded corners*
20,1,$1+$1,$2,$3,$4,$5,0*
20,1,$1+$1,$4,$5,$6,$7,0*
20,1,$1+$1,$6,$7,$8,$9,0*
20,1,$1+$1,$8,$9,$2,$3,0*%
G04 Aperture macros list end*
G04 #@! TA.AperFunction,SMDPad,CuDef*
%ADD10RoundRect,0.250000X0.262500X0.450000X-0.262500X0.450000X-0.262500X-0.450000X0.262500X-0.450000X0*%
G04 #@! TD*
G04 #@! TA.AperFunction,SMDPad,CuDef*
%ADD11RoundRect,0.112500X-0.187500X-0.112500X0.187500X-0.112500X0.187500X0.112500X-0.187500X0.112500X0*%
G04 #@! TD*
G04 #@! TA.AperFunction,SMDPad,CuDef*
%ADD12RoundRect,0.250000X-0.262500X-0.450000X0.262500X-0.450000X0.262500X0.450000X-0.262500X0.450000X0*%
G04 #@! TD*
G04 #@! TA.AperFunction,ComponentPad*
%ADD13C,2.500000*%
G04 #@! TD*
G04 #@! TA.AperFunction,SMDPad,CuDef*
%ADD14RoundRect,0.150000X0.512500X0.150000X-0.512500X0.150000X-0.512500X-0.150000X0.512500X-0.150000X0*%
G04 #@! TD*
G04 #@! TA.AperFunction,SMDPad,CuDef*
%ADD15RoundRect,0.162500X-0.447500X-0.162500X0.447500X-0.162500X0.447500X0.162500X-0.447500X0.162500X0*%
G04 #@! TD*
G04 #@! TA.AperFunction,SMDPad,CuDef*
%ADD16RoundRect,0.250000X-0.475000X0.250000X-0.475000X-0.250000X0.475000X-0.250000X0.475000X0.250000X0*%
G04 #@! TD*
G04 #@! TA.AperFunction,SMDPad,CuDef*
%ADD17RoundRect,0.250000X0.250000X0.475000X-0.250000X0.475000X-0.250000X-0.475000X0.250000X-0.475000X0*%
G04 #@! TD*
G04 #@! TA.AperFunction,SMDPad,CuDef*
%ADD18RoundRect,0.250000X0.450000X-0.262500X0.450000X0.262500X-0.450000X0.262500X-0.450000X-0.262500X0*%
G04 #@! TD*
G04 #@! TA.AperFunction,SMDPad,CuDef*
%ADD19RoundRect,0.162500X0.447500X0.162500X-0.447500X0.162500X-0.447500X-0.162500X0.447500X-0.162500X0*%
G04 #@! TD*
G04 #@! TA.AperFunction,SMDPad,CuDef*
%ADD20R,1.168400X0.355600*%
G04 #@! TD*
G04 #@! TA.AperFunction,SMDPad,CuDef*
%ADD21RoundRect,0.150000X-0.512500X-0.150000X0.512500X-0.150000X0.512500X0.150000X-0.512500X0.150000X0*%
G04 #@! TD*
G04 #@! TA.AperFunction,SMDPad,CuDef*
%ADD22RoundRect,0.162500X-0.162500X0.447500X-0.162500X-0.447500X0.162500X-0.447500X0.162500X0.447500X0*%
G04 #@! TD*
G04 #@! TA.AperFunction,SMDPad,CuDef*
%ADD23RoundRect,0.250000X-0.450000X0.262500X-0.450000X-0.262500X0.450000X-0.262500X0.450000X0.262500X0*%
G04 #@! TD*
G04 #@! TA.AperFunction,SMDPad,CuDef*
%ADD24RoundRect,0.067500X0.457500X0.157500X-0.457500X0.157500X-0.457500X-0.157500X0.457500X-0.157500X0*%
G04 #@! TD*
G04 #@! TA.AperFunction,ComponentPad*
%ADD25R,3.000000X3.000000*%
G04 #@! TD*
G04 #@! TA.AperFunction,ComponentPad*
%ADD26C,3.000000*%
G04 #@! TD*
G04 #@! TA.AperFunction,ViaPad*
%ADD27C,0.600000*%
G04 #@! TD*
G04 #@! TA.AperFunction,Conductor*
%ADD28C,0.200000*%
G04 #@! TD*
G04 #@! TA.AperFunction,Conductor*
%ADD29C,0.600000*%
G04 #@! TD*
G04 #@! TA.AperFunction,Conductor*
%ADD30C,0.127000*%
G04 #@! TD*
G04 APERTURE END LIST*
D10*
X132912500Y-107250000D03*
X131087500Y-107250000D03*
D11*
X126450000Y-113500000D03*
X128550000Y-113500000D03*
D10*
X146912500Y-107250000D03*
X145087500Y-107250000D03*
X132912500Y-105250000D03*
X131087500Y-105250000D03*
D11*
X144950000Y-115250000D03*
X147050000Y-115250000D03*
D12*
X131087500Y-109250000D03*
X132912500Y-109250000D03*
D10*
X146912500Y-109250000D03*
X145087500Y-109250000D03*
D13*
X143000000Y-123250000D03*
D14*
X133137500Y-114950000D03*
X133137500Y-114000000D03*
X133137500Y-113050000D03*
X130862500Y-113050000D03*
X130862500Y-114950000D03*
D12*
X127587500Y-105250000D03*
X129412500Y-105250000D03*
D10*
X150412500Y-111250000D03*
X148587500Y-111250000D03*
D12*
X131087500Y-120750000D03*
X132912500Y-120750000D03*
D15*
X135260000Y-117050000D03*
X135260000Y-118950000D03*
X137880000Y-118000000D03*
D16*
X151000000Y-120800000D03*
X151000000Y-122700000D03*
D11*
X144950000Y-113250000D03*
X147050000Y-113250000D03*
D10*
X155912500Y-119000000D03*
X154087500Y-119000000D03*
D12*
X148587500Y-107250000D03*
X150412500Y-107250000D03*
D15*
X144760000Y-117050000D03*
X144760000Y-118950000D03*
X147380000Y-118000000D03*
D13*
X135000000Y-123250000D03*
D14*
X133137500Y-118950000D03*
X133137500Y-118000000D03*
X133137500Y-117050000D03*
X130862500Y-117050000D03*
X130862500Y-118950000D03*
D17*
X128450000Y-115500000D03*
X126550000Y-115500000D03*
D12*
X154087500Y-117000000D03*
X155912500Y-117000000D03*
D18*
X124500000Y-111412500D03*
X124500000Y-109587500D03*
D19*
X142740000Y-118950000D03*
X142740000Y-117050000D03*
X140120000Y-118000000D03*
D20*
X126458600Y-117350001D03*
X126458600Y-118000000D03*
X126458600Y-118649999D03*
X128541400Y-118649999D03*
X128541400Y-117350001D03*
D10*
X155912500Y-113000000D03*
X154087500Y-113000000D03*
X132912500Y-111250000D03*
X131087500Y-111250000D03*
D21*
X146362500Y-120800000D03*
X146362500Y-121750000D03*
X146362500Y-122700000D03*
X148637500Y-122700000D03*
X148637500Y-121750000D03*
X148637500Y-120800000D03*
D22*
X142450000Y-111760000D03*
X140550000Y-111760000D03*
X141500000Y-114380000D03*
X137450000Y-111760000D03*
X135550000Y-111760000D03*
X136500000Y-114380000D03*
D23*
X122500000Y-118087500D03*
X122500000Y-119912500D03*
D10*
X150412500Y-105250000D03*
X148587500Y-105250000D03*
D23*
X122500000Y-109587500D03*
X122500000Y-111412500D03*
X124500000Y-114587500D03*
X124500000Y-116412500D03*
D12*
X145087500Y-105250000D03*
X146912500Y-105250000D03*
X150087500Y-119000000D03*
X151912500Y-119000000D03*
X134587500Y-120750000D03*
X136412500Y-120750000D03*
D17*
X128500000Y-120500000D03*
X126600000Y-120500000D03*
D12*
X127587500Y-107250000D03*
X129412500Y-107250000D03*
D10*
X150412500Y-113250000D03*
X148587500Y-113250000D03*
D24*
X152300000Y-116975000D03*
X152300000Y-116325000D03*
X152300000Y-115675000D03*
X152300000Y-115025000D03*
X149700000Y-115025000D03*
X149700000Y-115675000D03*
X149700000Y-116325000D03*
X149700000Y-116975000D03*
D23*
X124500000Y-118087500D03*
X124500000Y-119912500D03*
D12*
X145087500Y-111250000D03*
X146912500Y-111250000D03*
D10*
X155912500Y-111000000D03*
X154087500Y-111000000D03*
X155912500Y-109000000D03*
X154087500Y-109000000D03*
D12*
X148587500Y-109250000D03*
X150412500Y-109250000D03*
D25*
X141500000Y-106500000D03*
D26*
X136500000Y-106500000D03*
D23*
X122500000Y-114587500D03*
X122500000Y-116412500D03*
D10*
X129412500Y-109250000D03*
X127587500Y-109250000D03*
X155912500Y-115000000D03*
X154087500Y-115000000D03*
D27*
X151000000Y-117000000D03*
X146000000Y-113250000D03*
X140500000Y-113000000D03*
X144000000Y-116500000D03*
X147250000Y-121000000D03*
X147250000Y-117250000D03*
X131000000Y-115750000D03*
X129600000Y-117000000D03*
X125750000Y-116750000D03*
X147500000Y-121750000D03*
X149473000Y-113250000D03*
X127500000Y-115500000D03*
X155027000Y-117000000D03*
X149527000Y-109250000D03*
X130250000Y-111250000D03*
X132027000Y-109250000D03*
X128473000Y-109000000D03*
X123500000Y-120000000D03*
X134500000Y-114000000D03*
X146027000Y-111250000D03*
X149473000Y-111250000D03*
X126600000Y-119250000D03*
X134250000Y-118000000D03*
X145973000Y-109250000D03*
X151000000Y-115000000D03*
D28*
X132247000Y-114997000D02*
X132247000Y-116159500D01*
X132247000Y-116159500D02*
X133137500Y-117050000D01*
X131250000Y-114000000D02*
X132247000Y-114997000D01*
X131750000Y-114000000D02*
X131250000Y-114000000D01*
X132700000Y-113050000D02*
X131750000Y-114000000D01*
X133137500Y-113050000D02*
X132700000Y-113050000D01*
X132000000Y-111912500D02*
X130862500Y-113050000D01*
X132000000Y-110162500D02*
X132000000Y-111912500D01*
X131087500Y-109250000D02*
X132000000Y-110162500D01*
X129412500Y-105337500D02*
X127587500Y-107162500D01*
X129412500Y-105250000D02*
X129412500Y-105337500D01*
X127587500Y-107162500D02*
X127587500Y-107250000D01*
X132912500Y-107081250D02*
X132912500Y-107250000D01*
X131087500Y-105256250D02*
X132912500Y-107081250D01*
X131087500Y-105250000D02*
X131087500Y-105256250D01*
X155912500Y-111425000D02*
X155912500Y-111250000D01*
X128541400Y-118649999D02*
X130562499Y-118649999D01*
X147436272Y-122700000D02*
X148386272Y-121750000D01*
X146362500Y-122700000D02*
X147436272Y-122700000D01*
D29*
X150412500Y-105000000D02*
X150412500Y-104662500D01*
D28*
X148386272Y-121750000D02*
X148637500Y-121750000D01*
X130562499Y-118649999D02*
X130862500Y-118950000D01*
D29*
X151912500Y-119000000D02*
X151912500Y-119012500D01*
X127587500Y-105000000D02*
X127587500Y-104912500D01*
D28*
X128550000Y-117341401D02*
X128541400Y-117350001D01*
X131250000Y-114000000D02*
X129950000Y-114000000D01*
X128550000Y-113500000D02*
X128550000Y-117341401D01*
X129950000Y-114000000D02*
X128450000Y-115500000D01*
X150500000Y-122950000D02*
X148137500Y-122950000D01*
X148387500Y-121050000D02*
X150750000Y-121050000D01*
X146000000Y-113250000D02*
X147050000Y-113250000D01*
X152300000Y-116975000D02*
X151025000Y-116975000D01*
X151025000Y-116975000D02*
X151000000Y-117000000D01*
X142810000Y-117070000D02*
X142810000Y-116725001D01*
X144285001Y-115250000D02*
X144950000Y-115250000D01*
X144950000Y-115250000D02*
X144950000Y-110637500D01*
X142810000Y-116725001D02*
X144285001Y-115250000D01*
X144690000Y-118950000D02*
X142810000Y-117070000D01*
X148375000Y-116325000D02*
X147300000Y-115250000D01*
X149700000Y-116325000D02*
X148375000Y-116325000D01*
X147300000Y-115250000D02*
X147050000Y-115250000D01*
X133137500Y-118950000D02*
X135260000Y-118950000D01*
X132887500Y-118950000D02*
X133137500Y-118950000D01*
X130837500Y-121000000D02*
X132887500Y-118950000D01*
D29*
X135190000Y-115620000D02*
X136500000Y-114310000D01*
X135190000Y-117050000D02*
X135190000Y-115620000D01*
D28*
X134860000Y-111000000D02*
X135550000Y-111690000D01*
X135550000Y-113696705D02*
X135550000Y-111760000D01*
X132912500Y-111000000D02*
X134860000Y-111000000D01*
X134296705Y-114950000D02*
X135550000Y-113696705D01*
X133137500Y-114950000D02*
X134296705Y-114950000D01*
D29*
X140190000Y-118000000D02*
X139000000Y-116810000D01*
X139000000Y-116810000D02*
X139000000Y-114000000D01*
X139000000Y-114000000D02*
X139000000Y-113240000D01*
X139000000Y-113240000D02*
X137450000Y-111690000D01*
X141500000Y-114310000D02*
X141500000Y-117640000D01*
X141500000Y-117640000D02*
X142810000Y-118950000D01*
D28*
X144690000Y-117050000D02*
X146640000Y-119000000D01*
X140500000Y-111740000D02*
X140550000Y-111690000D01*
X144690000Y-117050000D02*
X144550000Y-117050000D01*
X144550000Y-117050000D02*
X144000000Y-116500000D01*
X146640000Y-119000000D02*
X150087500Y-119000000D01*
X140500000Y-113000000D02*
X140500000Y-111740000D01*
X147250000Y-121000000D02*
X147200000Y-121050000D01*
D30*
X147380000Y-118000000D02*
X147310000Y-118000000D01*
D28*
X147200000Y-121050000D02*
X146112500Y-121050000D01*
D30*
X147380000Y-117380000D02*
X147250000Y-117250000D01*
D28*
X147310000Y-118000000D02*
X148675000Y-118000000D01*
X130862500Y-115612500D02*
X131000000Y-115750000D01*
X148675000Y-118000000D02*
X149700000Y-116975000D01*
X130862500Y-114950000D02*
X130862500Y-115612500D01*
D30*
X147380000Y-118000000D02*
X147380000Y-117380000D01*
D28*
X150225000Y-115025000D02*
X149700000Y-115025000D01*
X154087500Y-118912500D02*
X154087500Y-117000000D01*
X152300000Y-116325000D02*
X151525000Y-116325000D01*
X154087500Y-117000000D02*
X153412500Y-116325000D01*
X151525000Y-116325000D02*
X150225000Y-115025000D01*
X153412500Y-116325000D02*
X152300000Y-116325000D01*
X124500000Y-109587500D02*
X124325000Y-109587500D01*
X124325000Y-109587500D02*
X122500000Y-111412500D01*
X122500000Y-114587500D02*
X124500000Y-114587500D01*
X122500000Y-114587500D02*
X122500000Y-111412500D01*
X154087500Y-108912500D02*
X154087500Y-111000000D01*
X155912500Y-112825000D02*
X155912500Y-115000000D01*
X154087500Y-111000000D02*
X155912500Y-112825000D01*
X154087500Y-112912500D02*
X154087500Y-115000000D01*
X150412500Y-113250000D02*
X153750000Y-113250000D01*
D30*
X150412500Y-113250000D02*
X150412500Y-111250000D01*
D28*
X153750000Y-113250000D02*
X154087500Y-112912500D01*
X153412500Y-115675000D02*
X154087500Y-115000000D01*
X152300000Y-115675000D02*
X153412500Y-115675000D01*
X150412500Y-111250000D02*
X150412500Y-111075000D01*
X146912500Y-105250000D02*
X148587500Y-105250000D01*
X148587500Y-107250000D02*
X146912500Y-107250000D01*
X146912500Y-107250000D02*
X146912500Y-105250000D01*
X148587500Y-105250000D02*
X148587500Y-107250000D01*
X146912500Y-109250000D02*
X148587500Y-109250000D01*
X146912500Y-109250000D02*
X146912500Y-109162500D01*
X148587500Y-109250000D02*
X148587500Y-109162500D01*
X146912500Y-109162500D02*
X145087500Y-107337500D01*
X145087500Y-107337500D02*
X145087500Y-107250000D01*
X148925000Y-115675000D02*
X149700000Y-115675000D01*
X150412500Y-107337500D02*
X150412500Y-107250000D01*
X147750000Y-114500000D02*
X148925000Y-115675000D01*
X148587500Y-109250000D02*
X147750000Y-110087500D01*
X148587500Y-109162500D02*
X150412500Y-107337500D01*
X147750000Y-110087500D02*
X147750000Y-114500000D01*
D29*
X142450000Y-111690000D02*
X142450000Y-107450000D01*
X142450000Y-107450000D02*
X141500000Y-106500000D01*
D28*
X122500000Y-118087500D02*
X122500000Y-116412500D01*
X122500000Y-116412500D02*
X124500000Y-116412500D01*
X129800000Y-117050000D02*
X130862500Y-117050000D01*
X124500000Y-116412500D02*
X124500000Y-118087500D01*
X124500000Y-116412500D02*
X125412500Y-116412500D01*
X125412500Y-116412500D02*
X125750000Y-116750000D01*
X129600000Y-117000000D02*
X129750000Y-117000000D01*
X124500000Y-118087500D02*
X122500000Y-118087500D01*
X129750000Y-117000000D02*
X129800000Y-117050000D01*
X131087500Y-107250000D02*
X131087500Y-109250000D01*
X129412500Y-109250000D02*
X129412500Y-107250000D01*
X131087500Y-109250000D02*
X129412500Y-109250000D01*
X129412500Y-107250000D02*
X131087500Y-107250000D01*
X129412500Y-105250000D02*
X131087500Y-105250000D01*
D29*
X134587500Y-123087500D02*
X135000000Y-123500000D01*
X134587500Y-120750000D02*
X134587500Y-123087500D01*
D28*
X145087500Y-109250000D02*
X145973000Y-109250000D01*
X126600000Y-119250000D02*
X126600000Y-118791399D01*
X131087500Y-111000000D02*
X130250000Y-111000000D01*
X126550000Y-115500000D02*
X127500000Y-115500000D01*
X146362500Y-121750000D02*
X147500000Y-121750000D01*
X146912500Y-111250000D02*
X146027000Y-111250000D01*
X123587500Y-119912500D02*
X123500000Y-120000000D01*
X126600000Y-119250000D02*
X126600000Y-119500000D01*
X148587500Y-111250000D02*
X149473000Y-111250000D01*
X152275000Y-115000000D02*
X152300000Y-115025000D01*
X122500000Y-119912500D02*
X123412500Y-119912500D01*
X126458600Y-118000000D02*
X126458600Y-118649999D01*
X133137500Y-114000000D02*
X134500000Y-114000000D01*
X126600000Y-120500000D02*
X126600000Y-119250000D01*
X151000000Y-115000000D02*
X152275000Y-115000000D01*
X133137500Y-118000000D02*
X134250000Y-118000000D01*
X124500000Y-119912500D02*
X123587500Y-119912500D01*
X132912500Y-109250000D02*
X132027000Y-109250000D01*
X155912500Y-117000000D02*
X155027000Y-117000000D01*
X148587500Y-113250000D02*
X149473000Y-113250000D01*
X126600000Y-118791399D02*
X126458600Y-118649999D01*
X123412500Y-119912500D02*
X123500000Y-120000000D01*
X127587500Y-109000000D02*
X128473000Y-109000000D01*
X150412500Y-109250000D02*
X149527000Y-109250000D01*
G04 #@! TA.AperFunction,Conductor*
G36*
X149000728Y-103500522D02*
G01*
X149632483Y-103519611D01*
X149635409Y-103519789D01*
X150264106Y-103576919D01*
X150267037Y-103577275D01*
X150891120Y-103672259D01*
X150894024Y-103672791D01*
X151511266Y-103805289D01*
X151514121Y-103805993D01*
X152122217Y-103975513D01*
X152125003Y-103976380D01*
X152660616Y-104161209D01*
X152721777Y-104182315D01*
X152724545Y-104183365D01*
X153307764Y-104424943D01*
X153310462Y-104426158D01*
X153878020Y-104702501D01*
X153880629Y-104703869D01*
X154391026Y-104991735D01*
X154430503Y-105014000D01*
X154433029Y-105015527D01*
X154453394Y-105028694D01*
X154963158Y-105358281D01*
X154965594Y-105359963D01*
X155474042Y-105734086D01*
X155476372Y-105735911D01*
X155961316Y-106140061D01*
X155963532Y-106142024D01*
X156423189Y-106574717D01*
X156425282Y-106576810D01*
X156857975Y-107036467D01*
X156859938Y-107038683D01*
X157264088Y-107523627D01*
X157265913Y-107525957D01*
X157640036Y-108034405D01*
X157641718Y-108036841D01*
X157984468Y-108566964D01*
X157985999Y-108569496D01*
X158296123Y-109119357D01*
X158297498Y-109121979D01*
X158573841Y-109689537D01*
X158575056Y-109692235D01*
X158816634Y-110275454D01*
X158817684Y-110278222D01*
X159023612Y-110874976D01*
X159024492Y-110877802D01*
X159194003Y-111485868D01*
X159194712Y-111488742D01*
X159327207Y-112105971D01*
X159327740Y-112108882D01*
X159422723Y-112732958D01*
X159423080Y-112735897D01*
X159480209Y-113364576D01*
X159480388Y-113367530D01*
X159499455Y-113998520D01*
X159499455Y-114001480D01*
X159480388Y-114632469D01*
X159480209Y-114635423D01*
X159423080Y-115264102D01*
X159422723Y-115267041D01*
X159327740Y-115891117D01*
X159327207Y-115894028D01*
X159194712Y-116511257D01*
X159194003Y-116514131D01*
X159024492Y-117122197D01*
X159023612Y-117125023D01*
X158817684Y-117721777D01*
X158816634Y-117724545D01*
X158575056Y-118307764D01*
X158573841Y-118310462D01*
X158297498Y-118878020D01*
X158296123Y-118880642D01*
X157985999Y-119430503D01*
X157984468Y-119433035D01*
X157641718Y-119963158D01*
X157640036Y-119965594D01*
X157265913Y-120474042D01*
X157264088Y-120476372D01*
X156859938Y-120961316D01*
X156857975Y-120963532D01*
X156425282Y-121423189D01*
X156423189Y-121425282D01*
X155963532Y-121857975D01*
X155961316Y-121859938D01*
X155476372Y-122264088D01*
X155474042Y-122265913D01*
X154965594Y-122640036D01*
X154963158Y-122641718D01*
X154433035Y-122984468D01*
X154430503Y-122985999D01*
X153880642Y-123296123D01*
X153878020Y-123297498D01*
X153310462Y-123573841D01*
X153307764Y-123575056D01*
X152724545Y-123816634D01*
X152721777Y-123817684D01*
X152125023Y-124023612D01*
X152122197Y-124024492D01*
X151514131Y-124194003D01*
X151511257Y-124194712D01*
X150894028Y-124327207D01*
X150891117Y-124327740D01*
X150267041Y-124422723D01*
X150264102Y-124423080D01*
X149635423Y-124480209D01*
X149632469Y-124480388D01*
X149000728Y-124499478D01*
X148999248Y-124499500D01*
X143774561Y-124499500D01*
X143739913Y-124485148D01*
X143725561Y-124450500D01*
X143739913Y-124415852D01*
X143745760Y-124410858D01*
X143768601Y-124394263D01*
X143897381Y-124300699D01*
X143897384Y-124300695D01*
X143897387Y-124300694D01*
X144050694Y-124147387D01*
X144050695Y-124147384D01*
X144050699Y-124147381D01*
X144178144Y-123971968D01*
X144276580Y-123778777D01*
X144343582Y-123572565D01*
X144377500Y-123358412D01*
X144377500Y-123141588D01*
X144343582Y-122927435D01*
X144276580Y-122721223D01*
X144178144Y-122528032D01*
X144164004Y-122508570D01*
X147847500Y-122508570D01*
X147847500Y-122891429D01*
X147847501Y-122891449D01*
X147850190Y-122914632D01*
X147881026Y-122984468D01*
X147892097Y-123009542D01*
X147925872Y-123043317D01*
X147936492Y-123059210D01*
X147944636Y-123078870D01*
X148008629Y-123142863D01*
X148008630Y-123142863D01*
X148008632Y-123142865D01*
X148092247Y-123177500D01*
X150198338Y-123177500D01*
X150232986Y-123191852D01*
X150302610Y-123261476D01*
X150415796Y-123316809D01*
X150489173Y-123327500D01*
X151510826Y-123327499D01*
X151510829Y-123327499D01*
X151565859Y-123319481D01*
X151584204Y-123316809D01*
X151697390Y-123261476D01*
X151786476Y-123172390D01*
X151841809Y-123059204D01*
X151852500Y-122985827D01*
X151852499Y-122414174D01*
X151852499Y-122414171D01*
X151852499Y-122414170D01*
X151841809Y-122340796D01*
X151841809Y-122340795D01*
X151809736Y-122275190D01*
X151786476Y-122227610D01*
X151697390Y-122138524D01*
X151640797Y-122110857D01*
X151584207Y-122083192D01*
X151584205Y-122083191D01*
X151510828Y-122072500D01*
X150489170Y-122072500D01*
X150415796Y-122083190D01*
X150415795Y-122083190D01*
X150302612Y-122138523D01*
X150302608Y-122138525D01*
X150213525Y-122227608D01*
X150213523Y-122227612D01*
X150158192Y-122340792D01*
X150158191Y-122340794D01*
X150147500Y-122414171D01*
X150147501Y-122673500D01*
X150133149Y-122708148D01*
X150098501Y-122722500D01*
X149476500Y-122722500D01*
X149441852Y-122708148D01*
X149427500Y-122673500D01*
X149427500Y-122508570D01*
X149427498Y-122508550D01*
X149424809Y-122485367D01*
X149393373Y-122414171D01*
X149382903Y-122390458D01*
X149382902Y-122390457D01*
X149382899Y-122390453D01*
X149309546Y-122317100D01*
X149309542Y-122317097D01*
X149214632Y-122275190D01*
X149191449Y-122272501D01*
X149191434Y-122272500D01*
X149191432Y-122272500D01*
X148083568Y-122272500D01*
X148083565Y-122272500D01*
X148083550Y-122272501D01*
X148060367Y-122275190D01*
X147965457Y-122317097D01*
X147965453Y-122317100D01*
X147892100Y-122390453D01*
X147892097Y-122390457D01*
X147850190Y-122485367D01*
X147847501Y-122508550D01*
X147847500Y-122508570D01*
X144164004Y-122508570D01*
X144050699Y-122352619D01*
X144050697Y-122352617D01*
X144050694Y-122352613D01*
X143897387Y-122199306D01*
X143897382Y-122199302D01*
X143897378Y-122199299D01*
X143721968Y-122071856D01*
X143528777Y-121973420D01*
X143528776Y-121973419D01*
X143528775Y-121973419D01*
X143322565Y-121906418D01*
X143322562Y-121906417D01*
X143158053Y-121880362D01*
X143108412Y-121872500D01*
X142891588Y-121872500D01*
X142851288Y-121878882D01*
X142677437Y-121906417D01*
X142677434Y-121906418D01*
X142471224Y-121973419D01*
X142278032Y-122071856D01*
X142102617Y-122199302D01*
X141949302Y-122352617D01*
X141821856Y-122528032D01*
X141723419Y-122721224D01*
X141656418Y-122927434D01*
X141656417Y-122927437D01*
X141622500Y-123141588D01*
X141622500Y-123358411D01*
X141656417Y-123572562D01*
X141656418Y-123572565D01*
X141723420Y-123778777D01*
X141821856Y-123971968D01*
X141949301Y-124147381D01*
X141949302Y-124147382D01*
X141949306Y-124147387D01*
X142102613Y-124300694D01*
X142102617Y-124300697D01*
X142102619Y-124300699D01*
X142231399Y-124394263D01*
X142254240Y-124410858D01*
X142273836Y-124442835D01*
X142265081Y-124479301D01*
X142233104Y-124498897D01*
X142225439Y-124499500D01*
X140179943Y-124499500D01*
X140145295Y-124485148D01*
X140130943Y-124450500D01*
X140145295Y-124415852D01*
X140150113Y-124411626D01*
X140153758Y-124408828D01*
X140172738Y-124394265D01*
X140344265Y-124222738D01*
X140491936Y-124030289D01*
X140613224Y-123820212D01*
X140706054Y-123596100D01*
X140768838Y-123361789D01*
X140800500Y-123121288D01*
X140800500Y-122878712D01*
X140768838Y-122638211D01*
X140757205Y-122594798D01*
X140706055Y-122403904D01*
X140706053Y-122403898D01*
X140679916Y-122340796D01*
X140613224Y-122179788D01*
X140611902Y-122177499D01*
X140516635Y-122012491D01*
X140491936Y-121969711D01*
X140491933Y-121969707D01*
X140491927Y-121969698D01*
X140344269Y-121777267D01*
X140344259Y-121777255D01*
X140172744Y-121605740D01*
X140172732Y-121605730D01*
X139980301Y-121458072D01*
X139980286Y-121458062D01*
X139770212Y-121336776D01*
X139770213Y-121336776D01*
X139546101Y-121243946D01*
X139546095Y-121243944D01*
X139311800Y-121181164D01*
X139311793Y-121181163D01*
X139311789Y-121181162D01*
X139071288Y-121149500D01*
X138828712Y-121149500D01*
X138588211Y-121181162D01*
X138588207Y-121181162D01*
X138588199Y-121181164D01*
X138353904Y-121243944D01*
X138353898Y-121243946D01*
X138129786Y-121336776D01*
X137919713Y-121458062D01*
X137919698Y-121458072D01*
X137727267Y-121605730D01*
X137727255Y-121605740D01*
X137555740Y-121777255D01*
X137555730Y-121777267D01*
X137408072Y-121969698D01*
X137408062Y-121969713D01*
X137286776Y-122179786D01*
X137193946Y-122403898D01*
X137193944Y-122403904D01*
X137131164Y-122638199D01*
X137131162Y-122638207D01*
X137131162Y-122638211D01*
X137099500Y-122878712D01*
X137099500Y-123121288D01*
X137131162Y-123361789D01*
X137131163Y-123361793D01*
X137131164Y-123361800D01*
X137193944Y-123596095D01*
X137193946Y-123596101D01*
X137286776Y-123820213D01*
X137408062Y-124030286D01*
X137408072Y-124030301D01*
X137555730Y-124222732D01*
X137555740Y-124222744D01*
X137727255Y-124394259D01*
X137727260Y-124394263D01*
X137727262Y-124394265D01*
X137742256Y-124405771D01*
X137749887Y-124411626D01*
X137768638Y-124444104D01*
X137758931Y-124480330D01*
X137726453Y-124499081D01*
X137720057Y-124499500D01*
X135774561Y-124499500D01*
X135739913Y-124485148D01*
X135725561Y-124450500D01*
X135739913Y-124415852D01*
X135745760Y-124410858D01*
X135768601Y-124394263D01*
X135897381Y-124300699D01*
X135897384Y-124300695D01*
X135897387Y-124300694D01*
X136050694Y-124147387D01*
X136050695Y-124147384D01*
X136050699Y-124147381D01*
X136178144Y-123971968D01*
X136276580Y-123778777D01*
X136343582Y-123572565D01*
X136377500Y-123358412D01*
X136377500Y-123141588D01*
X136343582Y-122927435D01*
X136276580Y-122721223D01*
X136178144Y-122528032D01*
X136050699Y-122352619D01*
X136050697Y-122352617D01*
X136050694Y-122352613D01*
X135897387Y-122199306D01*
X135897382Y-122199302D01*
X135897378Y-122199299D01*
X135721968Y-122071856D01*
X135528777Y-121973420D01*
X135528776Y-121973419D01*
X135528775Y-121973419D01*
X135322565Y-121906418D01*
X135322562Y-121906417D01*
X135158053Y-121880362D01*
X135108412Y-121872500D01*
X135108411Y-121872500D01*
X135064000Y-121872500D01*
X135029352Y-121858148D01*
X135015000Y-121823500D01*
X135015000Y-121570119D01*
X135029352Y-121535471D01*
X135042480Y-121526098D01*
X135044266Y-121525224D01*
X135072390Y-121511476D01*
X135161476Y-121422390D01*
X135216809Y-121309204D01*
X135227500Y-121235827D01*
X135227499Y-120608570D01*
X145572500Y-120608570D01*
X145572500Y-120991429D01*
X145572501Y-120991449D01*
X145575190Y-121014632D01*
X145617097Y-121109542D01*
X145617100Y-121109546D01*
X145690453Y-121182899D01*
X145690457Y-121182902D01*
X145690458Y-121182903D01*
X145785366Y-121224808D01*
X145786989Y-121224996D01*
X145798451Y-121226327D01*
X145831214Y-121244576D01*
X145841476Y-121280648D01*
X145823227Y-121313411D01*
X145798451Y-121323673D01*
X145785367Y-121325191D01*
X145690457Y-121367097D01*
X145690453Y-121367100D01*
X145617100Y-121440453D01*
X145617097Y-121440457D01*
X145575190Y-121535367D01*
X145572501Y-121558550D01*
X145572500Y-121558570D01*
X145572500Y-121941429D01*
X145572501Y-121941449D01*
X145575190Y-121964632D01*
X145617097Y-122059542D01*
X145617100Y-122059546D01*
X145690453Y-122132899D01*
X145690457Y-122132902D01*
X145690458Y-122132903D01*
X145737912Y-122153855D01*
X145785367Y-122174809D01*
X145808550Y-122177498D01*
X145808554Y-122177498D01*
X145808568Y-122177500D01*
X145808571Y-122177500D01*
X146916429Y-122177500D01*
X146916432Y-122177500D01*
X146917252Y-122177404D01*
X146939632Y-122174809D01*
X146949568Y-122170421D01*
X147034542Y-122132903D01*
X147107903Y-122059542D01*
X147108740Y-122057645D01*
X147110074Y-122056371D01*
X147110469Y-122055796D01*
X147110590Y-122055879D01*
X147135862Y-122031747D01*
X147173355Y-122032611D01*
X147188213Y-122042789D01*
X147237509Y-122092085D01*
X147237513Y-122092087D01*
X147237514Y-122092088D01*
X147334988Y-122148366D01*
X147334991Y-122148367D01*
X147443715Y-122177499D01*
X147443716Y-122177500D01*
X147443719Y-122177500D01*
X147556284Y-122177500D01*
X147556284Y-122177499D01*
X147665009Y-122148367D01*
X147762491Y-122092085D01*
X147842085Y-122012491D01*
X147898367Y-121915009D01*
X147927499Y-121806284D01*
X147927500Y-121806284D01*
X147927500Y-121693716D01*
X147927499Y-121693715D01*
X147898367Y-121584991D01*
X147898366Y-121584988D01*
X147842088Y-121487514D01*
X147842087Y-121487513D01*
X147842085Y-121487509D01*
X147762491Y-121407915D01*
X147762487Y-121407913D01*
X147762485Y-121407911D01*
X147665011Y-121351633D01*
X147665008Y-121351632D01*
X147618620Y-121339203D01*
X147588867Y-121316373D01*
X147583972Y-121279191D01*
X147590757Y-121265433D01*
X147590479Y-121265273D01*
X147648366Y-121165011D01*
X147648367Y-121165008D01*
X147649922Y-121159207D01*
X147677499Y-121056284D01*
X147677500Y-121056284D01*
X147677500Y-120943716D01*
X147677499Y-120943715D01*
X147648367Y-120834991D01*
X147648366Y-120834988D01*
X147592088Y-120737514D01*
X147592087Y-120737513D01*
X147592085Y-120737509D01*
X147512491Y-120657915D01*
X147510935Y-120657016D01*
X147498069Y-120649588D01*
X147427026Y-120608570D01*
X147847500Y-120608570D01*
X147847500Y-120991429D01*
X147847501Y-120991449D01*
X147850190Y-121014632D01*
X147892097Y-121109542D01*
X147892100Y-121109546D01*
X147965453Y-121182899D01*
X147965457Y-121182902D01*
X147965458Y-121182903D01*
X147998262Y-121197387D01*
X148060367Y-121224809D01*
X148083550Y-121227498D01*
X148083554Y-121227498D01*
X148083568Y-121227500D01*
X148222970Y-121227500D01*
X148254392Y-121240516D01*
X148254616Y-121240182D01*
X148256296Y-121241304D01*
X148257618Y-121241852D01*
X148258629Y-121242863D01*
X148258630Y-121242863D01*
X148258632Y-121242865D01*
X148342247Y-121277500D01*
X150198338Y-121277500D01*
X150232986Y-121291852D01*
X150302610Y-121361476D01*
X150415796Y-121416809D01*
X150489173Y-121427500D01*
X151510826Y-121427499D01*
X151510829Y-121427499D01*
X151565859Y-121419481D01*
X151584204Y-121416809D01*
X151697390Y-121361476D01*
X151786476Y-121272390D01*
X151841809Y-121159204D01*
X151852500Y-121085827D01*
X151852499Y-120514174D01*
X151852499Y-120514171D01*
X151852499Y-120514170D01*
X151841809Y-120440796D01*
X151841809Y-120440795D01*
X151816928Y-120389901D01*
X151786476Y-120327610D01*
X151697390Y-120238524D01*
X151640733Y-120210826D01*
X151584207Y-120183192D01*
X151584205Y-120183191D01*
X151510828Y-120172500D01*
X150489170Y-120172500D01*
X150415796Y-120183190D01*
X150415795Y-120183190D01*
X150302612Y-120238523D01*
X150302608Y-120238525D01*
X150213525Y-120327608D01*
X150213523Y-120327612D01*
X150158192Y-120440792D01*
X150158191Y-120440794D01*
X150151536Y-120486474D01*
X150147500Y-120514173D01*
X150147500Y-120657918D01*
X150147501Y-120773500D01*
X150133149Y-120808148D01*
X150098501Y-120822500D01*
X149476500Y-120822500D01*
X149441852Y-120808148D01*
X149427500Y-120773500D01*
X149427500Y-120608570D01*
X149427498Y-120608550D01*
X149424809Y-120585367D01*
X149393373Y-120514171D01*
X149382903Y-120490458D01*
X149382902Y-120490457D01*
X149382899Y-120490453D01*
X149309546Y-120417100D01*
X149309542Y-120417097D01*
X149214632Y-120375190D01*
X149191449Y-120372501D01*
X149191434Y-120372500D01*
X149191432Y-120372500D01*
X148083568Y-120372500D01*
X148083565Y-120372500D01*
X148083550Y-120372501D01*
X148060367Y-120375190D01*
X147965457Y-120417097D01*
X147965453Y-120417100D01*
X147892100Y-120490453D01*
X147892097Y-120490457D01*
X147850190Y-120585367D01*
X147847501Y-120608550D01*
X147847500Y-120608570D01*
X147427026Y-120608570D01*
X147415011Y-120601633D01*
X147415008Y-120601632D01*
X147306284Y-120572500D01*
X147306281Y-120572500D01*
X147193719Y-120572500D01*
X147193717Y-120572500D01*
X147189921Y-120573517D01*
X147152739Y-120568620D01*
X147132416Y-120545977D01*
X147107903Y-120490458D01*
X147107902Y-120490457D01*
X147034545Y-120417099D01*
X147034542Y-120417097D01*
X146939632Y-120375190D01*
X146916449Y-120372501D01*
X146916434Y-120372500D01*
X146916432Y-120372500D01*
X145808568Y-120372500D01*
X145808565Y-120372500D01*
X145808550Y-120372501D01*
X145785367Y-120375190D01*
X145690457Y-120417097D01*
X145690453Y-120417100D01*
X145617100Y-120490453D01*
X145617097Y-120490457D01*
X145575190Y-120585367D01*
X145572501Y-120608550D01*
X145572500Y-120608570D01*
X135227499Y-120608570D01*
X135227499Y-120264174D01*
X135227499Y-120264171D01*
X135227499Y-120264170D01*
X135216809Y-120190796D01*
X135216809Y-120190795D01*
X135198364Y-120153067D01*
X135161476Y-120077610D01*
X135072390Y-119988524D01*
X135010633Y-119958333D01*
X134959207Y-119933192D01*
X134959205Y-119933191D01*
X134885828Y-119922500D01*
X134289170Y-119922500D01*
X134215796Y-119933190D01*
X134215795Y-119933190D01*
X134102612Y-119988523D01*
X134102608Y-119988525D01*
X134013525Y-120077608D01*
X134013523Y-120077612D01*
X133958192Y-120190792D01*
X133958191Y-120190794D01*
X133947500Y-120264171D01*
X133947500Y-121235829D01*
X133958190Y-121309203D01*
X133958190Y-121309204D01*
X133995918Y-121386377D01*
X134013524Y-121422390D01*
X134102610Y-121511476D01*
X134102613Y-121511477D01*
X134102614Y-121511478D01*
X134132520Y-121526098D01*
X134157345Y-121554208D01*
X134160000Y-121570119D01*
X134160000Y-122132644D01*
X134145648Y-122167292D01*
X134139802Y-122172285D01*
X134102620Y-122199299D01*
X133949302Y-122352617D01*
X133821856Y-122528032D01*
X133723419Y-122721224D01*
X133656418Y-122927434D01*
X133656417Y-122927437D01*
X133622500Y-123141588D01*
X133622500Y-123358411D01*
X133656417Y-123572562D01*
X133656418Y-123572565D01*
X133723420Y-123778777D01*
X133821856Y-123971968D01*
X133949301Y-124147381D01*
X133949302Y-124147382D01*
X133949306Y-124147387D01*
X134102613Y-124300694D01*
X134102617Y-124300697D01*
X134102619Y-124300699D01*
X134231399Y-124394263D01*
X134254240Y-124410858D01*
X134273836Y-124442835D01*
X134265081Y-124479301D01*
X134233104Y-124498897D01*
X134225439Y-124499500D01*
X129000752Y-124499500D01*
X128999272Y-124499478D01*
X128367530Y-124480388D01*
X128364576Y-124480209D01*
X127735897Y-124423080D01*
X127732958Y-124422723D01*
X127108882Y-124327740D01*
X127105971Y-124327207D01*
X126488742Y-124194712D01*
X126485868Y-124194003D01*
X125877802Y-124024492D01*
X125874976Y-124023612D01*
X125278222Y-123817684D01*
X125275454Y-123816634D01*
X124692235Y-123575056D01*
X124689537Y-123573841D01*
X124121979Y-123297498D01*
X124119357Y-123296123D01*
X123569496Y-122985999D01*
X123566964Y-122984468D01*
X123036841Y-122641718D01*
X123034405Y-122640036D01*
X122525957Y-122265913D01*
X122523627Y-122264088D01*
X122038683Y-121859938D01*
X122036467Y-121857975D01*
X121576810Y-121425282D01*
X121574717Y-121423189D01*
X121142024Y-120963532D01*
X121140061Y-120961316D01*
X120735911Y-120476372D01*
X120734086Y-120474042D01*
X120359963Y-119965594D01*
X120358281Y-119963158D01*
X120148703Y-119639008D01*
X120148700Y-119639005D01*
X120132644Y-119614171D01*
X121672500Y-119614171D01*
X121672500Y-120210829D01*
X121683190Y-120284203D01*
X121683190Y-120284204D01*
X121720918Y-120361377D01*
X121738524Y-120397390D01*
X121827610Y-120486476D01*
X121940796Y-120541809D01*
X122014173Y-120552500D01*
X122985826Y-120552499D01*
X122985829Y-120552499D01*
X123040859Y-120544481D01*
X123059204Y-120541809D01*
X123172390Y-120486476D01*
X123261179Y-120397686D01*
X123295826Y-120383335D01*
X123320324Y-120389899D01*
X123334991Y-120398367D01*
X123443715Y-120427499D01*
X123443716Y-120427500D01*
X123443719Y-120427500D01*
X123556284Y-120427500D01*
X123556284Y-120427499D01*
X123665009Y-120398367D01*
X123679672Y-120389900D01*
X123716853Y-120385004D01*
X123738821Y-120397687D01*
X123827610Y-120486476D01*
X123940796Y-120541809D01*
X124014173Y-120552500D01*
X124985826Y-120552499D01*
X124985829Y-120552499D01*
X125040859Y-120544481D01*
X125059204Y-120541809D01*
X125172390Y-120486476D01*
X125261476Y-120397390D01*
X125316809Y-120284204D01*
X125327500Y-120210827D01*
X125327499Y-119614174D01*
X125327499Y-119614171D01*
X125327499Y-119614170D01*
X125316809Y-119540796D01*
X125316809Y-119540795D01*
X125289936Y-119485826D01*
X125261476Y-119427610D01*
X125172390Y-119338524D01*
X125106436Y-119306281D01*
X125059207Y-119283192D01*
X125059205Y-119283191D01*
X124985828Y-119272500D01*
X124014170Y-119272500D01*
X123940796Y-119283190D01*
X123940795Y-119283190D01*
X123827612Y-119338523D01*
X123827608Y-119338525D01*
X123738525Y-119427608D01*
X123738521Y-119427614D01*
X123683192Y-119540792D01*
X123683191Y-119540795D01*
X123681921Y-119549512D01*
X123662721Y-119581728D01*
X123626365Y-119590932D01*
X123620751Y-119589774D01*
X123556284Y-119572500D01*
X123556281Y-119572500D01*
X123443719Y-119572500D01*
X123443716Y-119572500D01*
X123379248Y-119589774D01*
X123342066Y-119584879D01*
X123319236Y-119555126D01*
X123318079Y-119549517D01*
X123316809Y-119540796D01*
X123316807Y-119540792D01*
X123289936Y-119485826D01*
X123261476Y-119427610D01*
X123172390Y-119338524D01*
X123106436Y-119306281D01*
X123059207Y-119283192D01*
X123059205Y-119283191D01*
X122985828Y-119272500D01*
X122014170Y-119272500D01*
X121940796Y-119283190D01*
X121940795Y-119283190D01*
X121827612Y-119338523D01*
X121827608Y-119338525D01*
X121738525Y-119427608D01*
X121738523Y-119427612D01*
X121683192Y-119540792D01*
X121683191Y-119540794D01*
X121672500Y-119614171D01*
X120132644Y-119614171D01*
X120015518Y-119433014D01*
X120014000Y-119430503D01*
X120012371Y-119427614D01*
X119703869Y-118880629D01*
X119702501Y-118878020D01*
X119426158Y-118310462D01*
X119424943Y-118307764D01*
X119183365Y-117724545D01*
X119182315Y-117721777D01*
X119147098Y-117619722D01*
X118976380Y-117125003D01*
X118975513Y-117122217D01*
X118805993Y-116514121D01*
X118805287Y-116511257D01*
X118800190Y-116487514D01*
X118740760Y-116210658D01*
X118721876Y-116122684D01*
X118720049Y-116114171D01*
X121672500Y-116114171D01*
X121672500Y-116710829D01*
X121683190Y-116784203D01*
X121683190Y-116784204D01*
X121712522Y-116844202D01*
X121738524Y-116897390D01*
X121827610Y-116986476D01*
X121940796Y-117041809D01*
X122014173Y-117052500D01*
X122223500Y-117052499D01*
X122258148Y-117066851D01*
X122272500Y-117101499D01*
X122272500Y-117398500D01*
X122258148Y-117433148D01*
X122223500Y-117447500D01*
X122014170Y-117447500D01*
X121940796Y-117458190D01*
X121940795Y-117458190D01*
X121827612Y-117513523D01*
X121827608Y-117513525D01*
X121738525Y-117602608D01*
X121738523Y-117602612D01*
X121683192Y-117715792D01*
X121683191Y-117715794D01*
X121672500Y-117789171D01*
X121672500Y-118385829D01*
X121683190Y-118459203D01*
X121683190Y-118459204D01*
X121710064Y-118514174D01*
X121738524Y-118572390D01*
X121827610Y-118661476D01*
X121940796Y-118716809D01*
X122014173Y-118727500D01*
X122985826Y-118727499D01*
X122985829Y-118727499D01*
X123040859Y-118719481D01*
X123059204Y-118716809D01*
X123172390Y-118661476D01*
X123261476Y-118572390D01*
X123316809Y-118459204D01*
X123327500Y-118385827D01*
X123327500Y-118364000D01*
X123341852Y-118329352D01*
X123376500Y-118315000D01*
X123623501Y-118315000D01*
X123658149Y-118329352D01*
X123672501Y-118364000D01*
X123672501Y-118385829D01*
X123683190Y-118459203D01*
X123683190Y-118459204D01*
X123710064Y-118514174D01*
X123738524Y-118572390D01*
X123827610Y-118661476D01*
X123940796Y-118716809D01*
X124014173Y-118727500D01*
X124985826Y-118727499D01*
X124985829Y-118727499D01*
X125040859Y-118719481D01*
X125059204Y-118716809D01*
X125172390Y-118661476D01*
X125261476Y-118572390D01*
X125316809Y-118459204D01*
X125327500Y-118385827D01*
X125327499Y-117789174D01*
X125327499Y-117789171D01*
X125327499Y-117789170D01*
X125316809Y-117715796D01*
X125316809Y-117715795D01*
X125294797Y-117670769D01*
X125261476Y-117602610D01*
X125172390Y-117513524D01*
X125104302Y-117480238D01*
X125059207Y-117458192D01*
X125059205Y-117458191D01*
X124985829Y-117447500D01*
X124985827Y-117447500D01*
X124776500Y-117447500D01*
X124741852Y-117433148D01*
X124727500Y-117398500D01*
X124727500Y-117101499D01*
X124741852Y-117066851D01*
X124776500Y-117052499D01*
X124985829Y-117052499D01*
X125040859Y-117044481D01*
X125059204Y-117041809D01*
X125172390Y-116986476D01*
X125261476Y-116897390D01*
X125261479Y-116897383D01*
X125263264Y-116894885D01*
X125295078Y-116875027D01*
X125331616Y-116883481D01*
X125350472Y-116910676D01*
X125351633Y-116915009D01*
X125351633Y-116915011D01*
X125407911Y-117012485D01*
X125407913Y-117012487D01*
X125407915Y-117012491D01*
X125487509Y-117092085D01*
X125487513Y-117092087D01*
X125487514Y-117092088D01*
X125584988Y-117148366D01*
X125584991Y-117148367D01*
X125693715Y-117177499D01*
X125693716Y-117177500D01*
X125693719Y-117177500D01*
X125697900Y-117177500D01*
X125732548Y-117191852D01*
X125746900Y-117226500D01*
X125746900Y-117540362D01*
X125754297Y-117577547D01*
X125782477Y-117619723D01*
X125803889Y-117634029D01*
X125804229Y-117634257D01*
X125804231Y-117634258D01*
X125825066Y-117665440D01*
X125817750Y-117702223D01*
X125804232Y-117715741D01*
X125782478Y-117730276D01*
X125754297Y-117772453D01*
X125746900Y-117809638D01*
X125746900Y-118190361D01*
X125754297Y-118227546D01*
X125782477Y-118269722D01*
X125803889Y-118284028D01*
X125804229Y-118284256D01*
X125804231Y-118284257D01*
X125825066Y-118315439D01*
X125817750Y-118352222D01*
X125804232Y-118365740D01*
X125782478Y-118380275D01*
X125754297Y-118422452D01*
X125746900Y-118459637D01*
X125746900Y-118840360D01*
X125754297Y-118877545D01*
X125782477Y-118919721D01*
X125803565Y-118933811D01*
X125824652Y-118947901D01*
X125861842Y-118955299D01*
X126191641Y-118955299D01*
X126226289Y-118969651D01*
X126240641Y-119004299D01*
X126234076Y-119028799D01*
X126201633Y-119084989D01*
X126201632Y-119084991D01*
X126172500Y-119193715D01*
X126172500Y-119306284D01*
X126201632Y-119415008D01*
X126201633Y-119415011D01*
X126257911Y-119512485D01*
X126257913Y-119512487D01*
X126257915Y-119512491D01*
X126257918Y-119512494D01*
X126313853Y-119568429D01*
X126328205Y-119603077D01*
X126313853Y-119637725D01*
X126286270Y-119651565D01*
X126240796Y-119658190D01*
X126240795Y-119658190D01*
X126127612Y-119713523D01*
X126127608Y-119713525D01*
X126038525Y-119802608D01*
X126038523Y-119802612D01*
X125983192Y-119915792D01*
X125983191Y-119915794D01*
X125972500Y-119989171D01*
X125972500Y-121010829D01*
X125983190Y-121084203D01*
X125983190Y-121084204D01*
X126008530Y-121136037D01*
X126038524Y-121197390D01*
X126127610Y-121286476D01*
X126240796Y-121341809D01*
X126314173Y-121352500D01*
X126885826Y-121352499D01*
X126885829Y-121352499D01*
X126957309Y-121342085D01*
X126959204Y-121341809D01*
X127072390Y-121286476D01*
X127161476Y-121197390D01*
X127216809Y-121084204D01*
X127227500Y-121010827D01*
X127227499Y-119989174D01*
X127227499Y-119989171D01*
X127227499Y-119989170D01*
X127216809Y-119915796D01*
X127216809Y-119915795D01*
X127198364Y-119878067D01*
X127161476Y-119802610D01*
X127072390Y-119713524D01*
X126988243Y-119672387D01*
X126959207Y-119658192D01*
X126959205Y-119658191D01*
X126913729Y-119651565D01*
X126881512Y-119632367D01*
X126872306Y-119596012D01*
X126886143Y-119568432D01*
X126942085Y-119512491D01*
X126998367Y-119415009D01*
X127027499Y-119306284D01*
X127027500Y-119306284D01*
X127027500Y-119193716D01*
X127027499Y-119193715D01*
X126998367Y-119084991D01*
X126998366Y-119084989D01*
X126965924Y-119028799D01*
X126961028Y-118991617D01*
X126983859Y-118961864D01*
X127008359Y-118955299D01*
X127055358Y-118955299D01*
X127092548Y-118947901D01*
X127134722Y-118919721D01*
X127162902Y-118877547D01*
X127170300Y-118840357D01*
X127170300Y-118459641D01*
X127162902Y-118422451D01*
X127148812Y-118401364D01*
X127134722Y-118380276D01*
X127112968Y-118365741D01*
X127092133Y-118334558D01*
X127099449Y-118297776D01*
X127112965Y-118284259D01*
X127134722Y-118269722D01*
X127162902Y-118227548D01*
X127170300Y-118190358D01*
X127170300Y-117809642D01*
X127162902Y-117772452D01*
X127139551Y-117737505D01*
X127134722Y-117730277D01*
X127112968Y-117715742D01*
X127092133Y-117684559D01*
X127099449Y-117647777D01*
X127112965Y-117634260D01*
X127134722Y-117619723D01*
X127162902Y-117577549D01*
X127170300Y-117540359D01*
X127170300Y-117159643D01*
X127162902Y-117122453D01*
X127142608Y-117092081D01*
X127134722Y-117080278D01*
X127093148Y-117052500D01*
X127092548Y-117052099D01*
X127092547Y-117052098D01*
X127092546Y-117052098D01*
X127055361Y-117044701D01*
X127055358Y-117044701D01*
X126158359Y-117044701D01*
X126123711Y-117030349D01*
X126109359Y-116995701D01*
X126115924Y-116971201D01*
X126141155Y-116927500D01*
X126148367Y-116915009D01*
X126177499Y-116806284D01*
X126177500Y-116806284D01*
X126177500Y-116693716D01*
X126177499Y-116693715D01*
X126148367Y-116584991D01*
X126148366Y-116584988D01*
X126092088Y-116487514D01*
X126092087Y-116487513D01*
X126092085Y-116487509D01*
X126012491Y-116407915D01*
X126012487Y-116407913D01*
X126012485Y-116407911D01*
X125915011Y-116351633D01*
X125915008Y-116351632D01*
X125806284Y-116322500D01*
X125806281Y-116322500D01*
X125693719Y-116322500D01*
X125693714Y-116322500D01*
X125682012Y-116325635D01*
X125644831Y-116320737D01*
X125634686Y-116312952D01*
X125541371Y-116219637D01*
X125541369Y-116219636D01*
X125541368Y-116219635D01*
X125487665Y-116197390D01*
X125457754Y-116185000D01*
X125457753Y-116185000D01*
X125376499Y-116185000D01*
X125341851Y-116170648D01*
X125327499Y-116136000D01*
X125327499Y-116114170D01*
X125316809Y-116040796D01*
X125316809Y-116040795D01*
X125292192Y-115990441D01*
X125261476Y-115927610D01*
X125172390Y-115838524D01*
X125095711Y-115801038D01*
X125059207Y-115783192D01*
X125059205Y-115783191D01*
X124985828Y-115772500D01*
X124014170Y-115772500D01*
X123940796Y-115783190D01*
X123940795Y-115783190D01*
X123827612Y-115838523D01*
X123827608Y-115838525D01*
X123738525Y-115927608D01*
X123738523Y-115927612D01*
X123683192Y-116040792D01*
X123683191Y-116040794D01*
X123672500Y-116114171D01*
X123672500Y-116136000D01*
X123658148Y-116170648D01*
X123623500Y-116185000D01*
X123376499Y-116185000D01*
X123341851Y-116170648D01*
X123327499Y-116136000D01*
X123327499Y-116114170D01*
X123316809Y-116040796D01*
X123316809Y-116040795D01*
X123292192Y-115990441D01*
X123261476Y-115927610D01*
X123172390Y-115838524D01*
X123095711Y-115801038D01*
X123059207Y-115783192D01*
X123059205Y-115783191D01*
X122985828Y-115772500D01*
X122014170Y-115772500D01*
X121940796Y-115783190D01*
X121940795Y-115783190D01*
X121827612Y-115838523D01*
X121827608Y-115838525D01*
X121738525Y-115927608D01*
X121738523Y-115927612D01*
X121683192Y-116040792D01*
X121683191Y-116040794D01*
X121672500Y-116114171D01*
X118720049Y-116114171D01*
X118679285Y-115924277D01*
X118672791Y-115894024D01*
X118672259Y-115891117D01*
X118666261Y-115851705D01*
X118577275Y-115267037D01*
X118576919Y-115264102D01*
X118575819Y-115251999D01*
X118519789Y-114635409D01*
X118519611Y-114632469D01*
X118519543Y-114630217D01*
X118500544Y-114001456D01*
X118500544Y-113998543D01*
X118519611Y-113367514D01*
X118519790Y-113364576D01*
X118519856Y-113363856D01*
X118576919Y-112735889D01*
X118577276Y-112732958D01*
X118579547Y-112718041D01*
X118672260Y-112108873D01*
X118672792Y-112105971D01*
X118673752Y-112101499D01*
X118805291Y-111488725D01*
X118805991Y-111485886D01*
X118909615Y-111114171D01*
X121672500Y-111114171D01*
X121672500Y-111710829D01*
X121683190Y-111784203D01*
X121683190Y-111784204D01*
X121719309Y-111858085D01*
X121738524Y-111897390D01*
X121827610Y-111986476D01*
X121940796Y-112041809D01*
X122014173Y-112052500D01*
X122223500Y-112052499D01*
X122258148Y-112066851D01*
X122272500Y-112101499D01*
X122272500Y-113898500D01*
X122258148Y-113933148D01*
X122223500Y-113947500D01*
X122014170Y-113947500D01*
X121940796Y-113958190D01*
X121940795Y-113958190D01*
X121827612Y-114013523D01*
X121827608Y-114013525D01*
X121738525Y-114102608D01*
X121738523Y-114102612D01*
X121683192Y-114215792D01*
X121683191Y-114215794D01*
X121672500Y-114289171D01*
X121672500Y-114885829D01*
X121683190Y-114959203D01*
X121683190Y-114959204D01*
X121713674Y-115021558D01*
X121738524Y-115072390D01*
X121827610Y-115161476D01*
X121940796Y-115216809D01*
X122014173Y-115227500D01*
X122985826Y-115227499D01*
X122985829Y-115227499D01*
X123051550Y-115217924D01*
X123059204Y-115216809D01*
X123172390Y-115161476D01*
X123261476Y-115072390D01*
X123316809Y-114959204D01*
X123327500Y-114885827D01*
X123327500Y-114864000D01*
X123341852Y-114829352D01*
X123376500Y-114815000D01*
X123623501Y-114815000D01*
X123658149Y-114829352D01*
X123672501Y-114864000D01*
X123672501Y-114885829D01*
X123683190Y-114959203D01*
X123683190Y-114959204D01*
X123713674Y-115021558D01*
X123738524Y-115072390D01*
X123827610Y-115161476D01*
X123940796Y-115216809D01*
X124014173Y-115227500D01*
X124985826Y-115227499D01*
X124985829Y-115227499D01*
X125051550Y-115217924D01*
X125059204Y-115216809D01*
X125172390Y-115161476D01*
X125261476Y-115072390D01*
X125302159Y-114989171D01*
X125922500Y-114989171D01*
X125922500Y-116010829D01*
X125933190Y-116084203D01*
X125933190Y-116084204D01*
X125964524Y-116148297D01*
X125988524Y-116197390D01*
X126077610Y-116286476D01*
X126190796Y-116341809D01*
X126264173Y-116352500D01*
X126835826Y-116352499D01*
X126835829Y-116352499D01*
X126897727Y-116343481D01*
X126909204Y-116341809D01*
X127022390Y-116286476D01*
X127111476Y-116197390D01*
X127166809Y-116084204D01*
X127177500Y-116010827D01*
X127177499Y-115892307D01*
X127191850Y-115857661D01*
X127226499Y-115843309D01*
X127250999Y-115849874D01*
X127334988Y-115898366D01*
X127334991Y-115898367D01*
X127443715Y-115927499D01*
X127443716Y-115927500D01*
X127443719Y-115927500D01*
X127556284Y-115927500D01*
X127556284Y-115927499D01*
X127665009Y-115898367D01*
X127749000Y-115849873D01*
X127786182Y-115844979D01*
X127815935Y-115867809D01*
X127822500Y-115892309D01*
X127822500Y-116010829D01*
X127833190Y-116084203D01*
X127833190Y-116084204D01*
X127864524Y-116148297D01*
X127888524Y-116197390D01*
X127977610Y-116286476D01*
X128090796Y-116341809D01*
X128164173Y-116352500D01*
X128273500Y-116352499D01*
X128308148Y-116366850D01*
X128322500Y-116401499D01*
X128322500Y-116995701D01*
X128308148Y-117030349D01*
X128273500Y-117044701D01*
X127944638Y-117044701D01*
X127907453Y-117052098D01*
X127865277Y-117080278D01*
X127837097Y-117122454D01*
X127829700Y-117159639D01*
X127829700Y-117540362D01*
X127837097Y-117577547D01*
X127865277Y-117619723D01*
X127886365Y-117633813D01*
X127907452Y-117647903D01*
X127944642Y-117655301D01*
X129138158Y-117655301D01*
X129175348Y-117647903D01*
X129217522Y-117619723D01*
X129245702Y-117577549D01*
X129253100Y-117540359D01*
X129253100Y-117375972D01*
X129267452Y-117341324D01*
X129302100Y-117326972D01*
X129334699Y-117340475D01*
X129334964Y-117340131D01*
X129336249Y-117341117D01*
X129336748Y-117341324D01*
X129337509Y-117342085D01*
X129337513Y-117342087D01*
X129337514Y-117342088D01*
X129434988Y-117398366D01*
X129434991Y-117398367D01*
X129543715Y-117427499D01*
X129543716Y-117427500D01*
X129543719Y-117427500D01*
X129656284Y-117427500D01*
X129656284Y-117427499D01*
X129765009Y-117398367D01*
X129862491Y-117342085D01*
X129912724Y-117291852D01*
X129947372Y-117277500D01*
X130048944Y-117277500D01*
X130083592Y-117291852D01*
X130093769Y-117306708D01*
X130097954Y-117316186D01*
X130117097Y-117359542D01*
X130117098Y-117359543D01*
X130117100Y-117359546D01*
X130190453Y-117432899D01*
X130190457Y-117432902D01*
X130190458Y-117432903D01*
X130212484Y-117442628D01*
X130285367Y-117474809D01*
X130308550Y-117477498D01*
X130308554Y-117477498D01*
X130308568Y-117477500D01*
X130308571Y-117477500D01*
X131416429Y-117477500D01*
X131416432Y-117477500D01*
X131418363Y-117477276D01*
X131439632Y-117474809D01*
X131466549Y-117462924D01*
X131534542Y-117432903D01*
X131607903Y-117359542D01*
X131649808Y-117264634D01*
X131649807Y-117264634D01*
X131649809Y-117264632D01*
X131652498Y-117241449D01*
X131652500Y-117241429D01*
X131652500Y-116858570D01*
X131652498Y-116858550D01*
X131649809Y-116835367D01*
X131626068Y-116781598D01*
X131607903Y-116740458D01*
X131607902Y-116740457D01*
X131607899Y-116740453D01*
X131534546Y-116667100D01*
X131534542Y-116667097D01*
X131439632Y-116625190D01*
X131416449Y-116622501D01*
X131416434Y-116622500D01*
X131416432Y-116622500D01*
X130308568Y-116622500D01*
X130308565Y-116622500D01*
X130308550Y-116622501D01*
X130285367Y-116625190D01*
X130190457Y-116667097D01*
X130190453Y-116667100D01*
X130117100Y-116740453D01*
X130117097Y-116740458D01*
X130093769Y-116793292D01*
X130087113Y-116799647D01*
X130083592Y-116808148D01*
X130074086Y-116812085D01*
X130066645Y-116819191D01*
X130048944Y-116822500D01*
X130019445Y-116822500D01*
X129984797Y-116808148D01*
X129977010Y-116798000D01*
X129944340Y-116741415D01*
X129942085Y-116737509D01*
X129862491Y-116657915D01*
X129862487Y-116657913D01*
X129862485Y-116657911D01*
X129765011Y-116601633D01*
X129765008Y-116601632D01*
X129656284Y-116572500D01*
X129656281Y-116572500D01*
X129543719Y-116572500D01*
X129543716Y-116572500D01*
X129434991Y-116601632D01*
X129434988Y-116601633D01*
X129337514Y-116657911D01*
X129337505Y-116657918D01*
X129257918Y-116737505D01*
X129257911Y-116737514D01*
X129201633Y-116834988D01*
X129201632Y-116834991D01*
X129172500Y-116943715D01*
X129172500Y-116995701D01*
X129158148Y-117030349D01*
X129123500Y-117044701D01*
X128826500Y-117044701D01*
X128791852Y-117030349D01*
X128777500Y-116995701D01*
X128777500Y-116387750D01*
X128791852Y-116353102D01*
X128806248Y-116344430D01*
X128805784Y-116343481D01*
X128811239Y-116340814D01*
X128922390Y-116286476D01*
X129011476Y-116197390D01*
X129066809Y-116084204D01*
X129077500Y-116010827D01*
X129077499Y-115214527D01*
X129091850Y-115179881D01*
X130029881Y-114241852D01*
X130064529Y-114227500D01*
X131135471Y-114227500D01*
X131170119Y-114241852D01*
X131367119Y-114438852D01*
X131381471Y-114473500D01*
X131367119Y-114508148D01*
X131332471Y-114522500D01*
X130308568Y-114522500D01*
X130308565Y-114522500D01*
X130308550Y-114522501D01*
X130285367Y-114525190D01*
X130190457Y-114567097D01*
X130190453Y-114567100D01*
X130117100Y-114640453D01*
X130117097Y-114640457D01*
X130075190Y-114735367D01*
X130072501Y-114758550D01*
X130072500Y-114758570D01*
X130072500Y-115141429D01*
X130072501Y-115141449D01*
X130075190Y-115164632D01*
X130117097Y-115259542D01*
X130117100Y-115259546D01*
X130190453Y-115332899D01*
X130190457Y-115332902D01*
X130190458Y-115332903D01*
X130209816Y-115341450D01*
X130285367Y-115374809D01*
X130308550Y-115377498D01*
X130308554Y-115377498D01*
X130308568Y-115377500D01*
X130586000Y-115377500D01*
X130620648Y-115391852D01*
X130635000Y-115426500D01*
X130635000Y-115514068D01*
X130628435Y-115538568D01*
X130601633Y-115584988D01*
X130601632Y-115584991D01*
X130572500Y-115693715D01*
X130572500Y-115806284D01*
X130601632Y-115915008D01*
X130601633Y-115915011D01*
X130657911Y-116012485D01*
X130657913Y-116012487D01*
X130657915Y-116012491D01*
X130737509Y-116092085D01*
X130737513Y-116092087D01*
X130737514Y-116092088D01*
X130834988Y-116148366D01*
X130834991Y-116148367D01*
X130943715Y-116177499D01*
X130943716Y-116177500D01*
X130943719Y-116177500D01*
X131056284Y-116177500D01*
X131056284Y-116177499D01*
X131165009Y-116148367D01*
X131165131Y-116148297D01*
X131193123Y-116132135D01*
X131262491Y-116092085D01*
X131342085Y-116012491D01*
X131398367Y-115915009D01*
X131427499Y-115806284D01*
X131427500Y-115806284D01*
X131427500Y-115693716D01*
X131427499Y-115693715D01*
X131398367Y-115584991D01*
X131398366Y-115584988D01*
X131342088Y-115487514D01*
X131342087Y-115487513D01*
X131342085Y-115487509D01*
X131315724Y-115461148D01*
X131301372Y-115426500D01*
X131315724Y-115391852D01*
X131350372Y-115377500D01*
X131416429Y-115377500D01*
X131416432Y-115377500D01*
X131417252Y-115377404D01*
X131439632Y-115374809D01*
X131449568Y-115370421D01*
X131534542Y-115332903D01*
X131607903Y-115259542D01*
X131649808Y-115164634D01*
X131649807Y-115164634D01*
X131649809Y-115164632D01*
X131652498Y-115141449D01*
X131652500Y-115141429D01*
X131652500Y-114842529D01*
X131666852Y-114807881D01*
X131701500Y-114793529D01*
X131736148Y-114807881D01*
X132005148Y-115076881D01*
X132019500Y-115111529D01*
X132019500Y-116114247D01*
X132019500Y-116204753D01*
X132054135Y-116288368D01*
X132054136Y-116288369D01*
X132054136Y-116288370D01*
X132414512Y-116648745D01*
X132428864Y-116683393D01*
X132414513Y-116718041D01*
X132392097Y-116740457D01*
X132350190Y-116835367D01*
X132347501Y-116858550D01*
X132347500Y-116858570D01*
X132347500Y-117241429D01*
X132347501Y-117241449D01*
X132350190Y-117264632D01*
X132392097Y-117359542D01*
X132392100Y-117359546D01*
X132465453Y-117432899D01*
X132465457Y-117432902D01*
X132465458Y-117432903D01*
X132560366Y-117474808D01*
X132561989Y-117474996D01*
X132573451Y-117476327D01*
X132606214Y-117494576D01*
X132616476Y-117530648D01*
X132598227Y-117563411D01*
X132573451Y-117573673D01*
X132560367Y-117575191D01*
X132465457Y-117617097D01*
X132465453Y-117617100D01*
X132392100Y-117690453D01*
X132392097Y-117690457D01*
X132350190Y-117785367D01*
X132347501Y-117808550D01*
X132347500Y-117808570D01*
X132347500Y-118191429D01*
X132347501Y-118191449D01*
X132350190Y-118214632D01*
X132392097Y-118309542D01*
X132392100Y-118309546D01*
X132465453Y-118382899D01*
X132465457Y-118382902D01*
X132465458Y-118382903D01*
X132560366Y-118424808D01*
X132561989Y-118424996D01*
X132573451Y-118426327D01*
X132606214Y-118444576D01*
X132616476Y-118480648D01*
X132598227Y-118513411D01*
X132573451Y-118523673D01*
X132560367Y-118525191D01*
X132465457Y-118567097D01*
X132465453Y-118567100D01*
X132392100Y-118640453D01*
X132392097Y-118640457D01*
X132350190Y-118735367D01*
X132347501Y-118758550D01*
X132347500Y-118758570D01*
X132347500Y-119141442D01*
X132347560Y-119141955D01*
X132347535Y-119142041D01*
X132347582Y-119142851D01*
X132347300Y-119142867D01*
X132337283Y-119178022D01*
X132333532Y-119182232D01*
X131566804Y-119948960D01*
X131532156Y-119963312D01*
X131510636Y-119958333D01*
X131459210Y-119933193D01*
X131459205Y-119933191D01*
X131385828Y-119922500D01*
X130789170Y-119922500D01*
X130715796Y-119933190D01*
X130715795Y-119933190D01*
X130602612Y-119988523D01*
X130602608Y-119988525D01*
X130513525Y-120077608D01*
X130513523Y-120077612D01*
X130458192Y-120190792D01*
X130458191Y-120190794D01*
X130447500Y-120264171D01*
X130447500Y-121235829D01*
X130458190Y-121309203D01*
X130458190Y-121309204D01*
X130495918Y-121386377D01*
X130513524Y-121422390D01*
X130602610Y-121511476D01*
X130715796Y-121566809D01*
X130789173Y-121577500D01*
X131385826Y-121577499D01*
X131385829Y-121577499D01*
X131440859Y-121569481D01*
X131459204Y-121566809D01*
X131572390Y-121511476D01*
X131661476Y-121422390D01*
X131716809Y-121309204D01*
X131727500Y-121235827D01*
X131727499Y-120452028D01*
X131741850Y-120417382D01*
X132767382Y-119391852D01*
X132802030Y-119377500D01*
X133691429Y-119377500D01*
X133691432Y-119377500D01*
X133692252Y-119377404D01*
X133714632Y-119374809D01*
X133757473Y-119355893D01*
X133809542Y-119332903D01*
X133882903Y-119259542D01*
X133906231Y-119206708D01*
X133933355Y-119180809D01*
X133951056Y-119177500D01*
X134492261Y-119177500D01*
X134526909Y-119191852D01*
X134537085Y-119206706D01*
X134551094Y-119238433D01*
X134569107Y-119279229D01*
X134645769Y-119355891D01*
X134645770Y-119355891D01*
X134645772Y-119355893D01*
X134744954Y-119399687D01*
X134769202Y-119402500D01*
X134769205Y-119402500D01*
X135750795Y-119402500D01*
X135750798Y-119402500D01*
X135775046Y-119399687D01*
X135874228Y-119355893D01*
X135950893Y-119279228D01*
X135994687Y-119180046D01*
X135997500Y-119155798D01*
X135997500Y-118744202D01*
X135994687Y-118719954D01*
X135950893Y-118620772D01*
X135950891Y-118620770D01*
X135950891Y-118620769D01*
X135874230Y-118544108D01*
X135775047Y-118500313D01*
X135750798Y-118497500D01*
X134769202Y-118497500D01*
X134769201Y-118497500D01*
X134744952Y-118500313D01*
X134645769Y-118544108D01*
X134569107Y-118620770D01*
X134537086Y-118693292D01*
X134509962Y-118719191D01*
X134492261Y-118722500D01*
X133951056Y-118722500D01*
X133916408Y-118708148D01*
X133906231Y-118693292D01*
X133888238Y-118652542D01*
X133882903Y-118640458D01*
X133882900Y-118640455D01*
X133882899Y-118640453D01*
X133809546Y-118567100D01*
X133809542Y-118567097D01*
X133714632Y-118525190D01*
X133701549Y-118523673D01*
X133668785Y-118505424D01*
X133658523Y-118469353D01*
X133676772Y-118436589D01*
X133701549Y-118426327D01*
X133714632Y-118424809D01*
X133757473Y-118405893D01*
X133809542Y-118382903D01*
X133882903Y-118309542D01*
X133882904Y-118309538D01*
X133884285Y-118308158D01*
X133918933Y-118293806D01*
X133953580Y-118308156D01*
X133987509Y-118342085D01*
X133987513Y-118342087D01*
X133987514Y-118342088D01*
X134084988Y-118398366D01*
X134084991Y-118398367D01*
X134193715Y-118427499D01*
X134193716Y-118427500D01*
X134193719Y-118427500D01*
X134306284Y-118427500D01*
X134306284Y-118427499D01*
X134415009Y-118398367D01*
X134512491Y-118342085D01*
X134592085Y-118262491D01*
X134637869Y-118183192D01*
X134648366Y-118165011D01*
X134648367Y-118165008D01*
X134677499Y-118056284D01*
X134677500Y-118056284D01*
X134677500Y-117943716D01*
X134677499Y-117943715D01*
X134648367Y-117834991D01*
X134648366Y-117834988D01*
X134592088Y-117737514D01*
X134592087Y-117737513D01*
X134592085Y-117737509D01*
X134512491Y-117657915D01*
X134512487Y-117657913D01*
X134512485Y-117657911D01*
X134415011Y-117601633D01*
X134415008Y-117601632D01*
X134306284Y-117572500D01*
X134306281Y-117572500D01*
X134193719Y-117572500D01*
X134193716Y-117572500D01*
X134084991Y-117601632D01*
X134084988Y-117601633D01*
X133987514Y-117657911D01*
X133987509Y-117657915D01*
X133953582Y-117691842D01*
X133918933Y-117706193D01*
X133884286Y-117691841D01*
X133809545Y-117617099D01*
X133809542Y-117617097D01*
X133714632Y-117575190D01*
X133701549Y-117573673D01*
X133668785Y-117555424D01*
X133658523Y-117519353D01*
X133676772Y-117486589D01*
X133701549Y-117476327D01*
X133714632Y-117474809D01*
X133741549Y-117462924D01*
X133809542Y-117432903D01*
X133882903Y-117359542D01*
X133924808Y-117264634D01*
X133924807Y-117264634D01*
X133924809Y-117264632D01*
X133927498Y-117241449D01*
X133927500Y-117241429D01*
X133927500Y-116858570D01*
X133927498Y-116858552D01*
X133926325Y-116848435D01*
X133926325Y-116848434D01*
X133925834Y-116844201D01*
X134522500Y-116844201D01*
X134522500Y-117255798D01*
X134525313Y-117280047D01*
X134569108Y-117379230D01*
X134645769Y-117455891D01*
X134645770Y-117455891D01*
X134645772Y-117455893D01*
X134744954Y-117499687D01*
X134769202Y-117502500D01*
X134769205Y-117502500D01*
X135750795Y-117502500D01*
X135750798Y-117502500D01*
X135775046Y-117499687D01*
X135874228Y-117455893D01*
X135950893Y-117379228D01*
X135994687Y-117280046D01*
X135997500Y-117255798D01*
X135997500Y-116844202D01*
X135994687Y-116819954D01*
X135950893Y-116720772D01*
X135950891Y-116720770D01*
X135950891Y-116720769D01*
X135874230Y-116644108D01*
X135775047Y-116600313D01*
X135750798Y-116597500D01*
X135666500Y-116597500D01*
X135631852Y-116583148D01*
X135617500Y-116548500D01*
X135617500Y-115817372D01*
X135631852Y-115782724D01*
X136282724Y-115131852D01*
X136317372Y-115117500D01*
X136705795Y-115117500D01*
X136705798Y-115117500D01*
X136730046Y-115114687D01*
X136829228Y-115070893D01*
X136905893Y-114994228D01*
X136949687Y-114895046D01*
X136952500Y-114870798D01*
X136952500Y-113889202D01*
X136949687Y-113864954D01*
X136905893Y-113765772D01*
X136905891Y-113765770D01*
X136905891Y-113765769D01*
X136829230Y-113689108D01*
X136730047Y-113645313D01*
X136705798Y-113642500D01*
X136294202Y-113642500D01*
X136294201Y-113642500D01*
X136269952Y-113645313D01*
X136170769Y-113689108D01*
X136094108Y-113765769D01*
X136050313Y-113864952D01*
X136047500Y-113889201D01*
X136047500Y-114137628D01*
X136033148Y-114172276D01*
X134847918Y-115357505D01*
X134847911Y-115357514D01*
X134791633Y-115454988D01*
X134791632Y-115454991D01*
X134762500Y-115563715D01*
X134762500Y-116560637D01*
X134748148Y-116595285D01*
X134733293Y-116605462D01*
X134645769Y-116644108D01*
X134569108Y-116720769D01*
X134525313Y-116819952D01*
X134522500Y-116844201D01*
X133925834Y-116844201D01*
X133924808Y-116835367D01*
X133917666Y-116819191D01*
X133882903Y-116740458D01*
X133882902Y-116740457D01*
X133882899Y-116740453D01*
X133809546Y-116667100D01*
X133809542Y-116667097D01*
X133714632Y-116625190D01*
X133691449Y-116622501D01*
X133691434Y-116622500D01*
X133691432Y-116622500D01*
X133691429Y-116622500D01*
X133052029Y-116622500D01*
X133017381Y-116608148D01*
X132488852Y-116079619D01*
X132474500Y-116044971D01*
X132474500Y-115412094D01*
X132488852Y-115377446D01*
X132523500Y-115363094D01*
X132543290Y-115367268D01*
X132560366Y-115374808D01*
X132560369Y-115374809D01*
X132583550Y-115377498D01*
X132583554Y-115377498D01*
X132583568Y-115377500D01*
X132583571Y-115377500D01*
X133691429Y-115377500D01*
X133691432Y-115377500D01*
X133692252Y-115377404D01*
X133714632Y-115374809D01*
X133724568Y-115370421D01*
X133809542Y-115332903D01*
X133882903Y-115259542D01*
X133906231Y-115206708D01*
X133933355Y-115180809D01*
X133951056Y-115177500D01*
X134341956Y-115177500D01*
X134341958Y-115177500D01*
X134425573Y-115142865D01*
X135742866Y-113825573D01*
X135777500Y-113741958D01*
X135777500Y-113651452D01*
X135777500Y-112527739D01*
X135791852Y-112493091D01*
X135806706Y-112482914D01*
X135879228Y-112450893D01*
X135955893Y-112374228D01*
X135999687Y-112275046D01*
X136002500Y-112250798D01*
X136002500Y-111269202D01*
X136002500Y-111269201D01*
X136997500Y-111269201D01*
X136997500Y-112250798D01*
X137000313Y-112275047D01*
X137044108Y-112374230D01*
X137120769Y-112450891D01*
X137120770Y-112450891D01*
X137120772Y-112450893D01*
X137219954Y-112494687D01*
X137244202Y-112497500D01*
X137632628Y-112497500D01*
X137667276Y-112511852D01*
X138558148Y-113402724D01*
X138572500Y-113437372D01*
X138572500Y-116866284D01*
X138601632Y-116975008D01*
X138601633Y-116975011D01*
X138657911Y-117072485D01*
X138657913Y-117072487D01*
X138657915Y-117072491D01*
X138657918Y-117072494D01*
X139368148Y-117782724D01*
X139382500Y-117817372D01*
X139382500Y-118205798D01*
X139385313Y-118230047D01*
X139419940Y-118308468D01*
X139428393Y-118327612D01*
X139429108Y-118329230D01*
X139505769Y-118405891D01*
X139505770Y-118405891D01*
X139505772Y-118405893D01*
X139604954Y-118449687D01*
X139629202Y-118452500D01*
X139629205Y-118452500D01*
X140610795Y-118452500D01*
X140610798Y-118452500D01*
X140635046Y-118449687D01*
X140734228Y-118405893D01*
X140810893Y-118329228D01*
X140854687Y-118230046D01*
X140857500Y-118205798D01*
X140857500Y-117794202D01*
X140854687Y-117769954D01*
X140810893Y-117670772D01*
X140810891Y-117670770D01*
X140810891Y-117670769D01*
X140734230Y-117594108D01*
X140635047Y-117550313D01*
X140610798Y-117547500D01*
X140362373Y-117547500D01*
X140327725Y-117533148D01*
X139441852Y-116647275D01*
X139427500Y-116612627D01*
X139427500Y-113889201D01*
X141047500Y-113889201D01*
X141047500Y-113889202D01*
X141047500Y-114870798D01*
X141050313Y-114895046D01*
X141066091Y-114930780D01*
X141068325Y-114935838D01*
X141072500Y-114955630D01*
X141072500Y-117696284D01*
X141101632Y-117805008D01*
X141101633Y-117805011D01*
X141157911Y-117902485D01*
X141157913Y-117902487D01*
X141157915Y-117902491D01*
X141157918Y-117902494D01*
X141988148Y-118732724D01*
X142002500Y-118767372D01*
X142002500Y-119155798D01*
X142005313Y-119180047D01*
X142039940Y-119258468D01*
X142047902Y-119276500D01*
X142049108Y-119279230D01*
X142125769Y-119355891D01*
X142125770Y-119355891D01*
X142125772Y-119355893D01*
X142224954Y-119399687D01*
X142249202Y-119402500D01*
X142249205Y-119402500D01*
X143230795Y-119402500D01*
X143230798Y-119402500D01*
X143255046Y-119399687D01*
X143354228Y-119355893D01*
X143430893Y-119279228D01*
X143474687Y-119180046D01*
X143477500Y-119155798D01*
X143477500Y-118744202D01*
X143474687Y-118719954D01*
X143430893Y-118620772D01*
X143430891Y-118620770D01*
X143430891Y-118620769D01*
X143354230Y-118544108D01*
X143255047Y-118500313D01*
X143230798Y-118497500D01*
X142982372Y-118497500D01*
X142947724Y-118483148D01*
X141941852Y-117477276D01*
X141927500Y-117442628D01*
X141927500Y-117336101D01*
X141941852Y-117301453D01*
X141976500Y-117287101D01*
X142011148Y-117301453D01*
X142021325Y-117316309D01*
X142049107Y-117379229D01*
X142125769Y-117455891D01*
X142125770Y-117455891D01*
X142125772Y-117455893D01*
X142224954Y-117499687D01*
X142249202Y-117502500D01*
X142900471Y-117502500D01*
X142935119Y-117516852D01*
X144036161Y-118617894D01*
X144050513Y-118652542D01*
X144046338Y-118672334D01*
X144025313Y-118719951D01*
X144022500Y-118744201D01*
X144022500Y-119155798D01*
X144025313Y-119180047D01*
X144059940Y-119258468D01*
X144067902Y-119276500D01*
X144069108Y-119279230D01*
X144145769Y-119355891D01*
X144145770Y-119355891D01*
X144145772Y-119355893D01*
X144244954Y-119399687D01*
X144269202Y-119402500D01*
X144269205Y-119402500D01*
X145250795Y-119402500D01*
X145250798Y-119402500D01*
X145275046Y-119399687D01*
X145374228Y-119355893D01*
X145450893Y-119279228D01*
X145494687Y-119180046D01*
X145497500Y-119155798D01*
X145497500Y-118744202D01*
X145494687Y-118719954D01*
X145450893Y-118620772D01*
X145450891Y-118620770D01*
X145450891Y-118620769D01*
X145374230Y-118544108D01*
X145275047Y-118500313D01*
X145250798Y-118497500D01*
X144579529Y-118497500D01*
X144544881Y-118483148D01*
X143457711Y-117395978D01*
X143443359Y-117361330D01*
X143447533Y-117341540D01*
X143474687Y-117280046D01*
X143477500Y-117255798D01*
X143477500Y-116844202D01*
X143474687Y-116819954D01*
X143430893Y-116720772D01*
X143430891Y-116720770D01*
X143430891Y-116720769D01*
X143354229Y-116644107D01*
X143354230Y-116644107D01*
X143321434Y-116629627D01*
X143295535Y-116602503D01*
X143296401Y-116565010D01*
X143306575Y-116550157D01*
X143501568Y-116355165D01*
X143536214Y-116340814D01*
X143570862Y-116355166D01*
X143585214Y-116389814D01*
X143583545Y-116402495D01*
X143572500Y-116443718D01*
X143572500Y-116556284D01*
X143601632Y-116665008D01*
X143601633Y-116665011D01*
X143657911Y-116762485D01*
X143657913Y-116762487D01*
X143657915Y-116762491D01*
X143737509Y-116842085D01*
X143737513Y-116842087D01*
X143737514Y-116842088D01*
X143834988Y-116898366D01*
X143834991Y-116898367D01*
X143943715Y-116927499D01*
X143943716Y-116927500D01*
X143943719Y-116927500D01*
X143973500Y-116927500D01*
X144008148Y-116941852D01*
X144022500Y-116976500D01*
X144022500Y-117255798D01*
X144025313Y-117280047D01*
X144069108Y-117379230D01*
X144145769Y-117455891D01*
X144145770Y-117455891D01*
X144145772Y-117455893D01*
X144244954Y-117499687D01*
X144269202Y-117502500D01*
X144800471Y-117502500D01*
X144835119Y-117516852D01*
X146447135Y-119128868D01*
X146511129Y-119192863D01*
X146511130Y-119192863D01*
X146511132Y-119192865D01*
X146594747Y-119227500D01*
X149398501Y-119227500D01*
X149433149Y-119241852D01*
X149447501Y-119276500D01*
X149447501Y-119485829D01*
X149458190Y-119559203D01*
X149458190Y-119559204D01*
X149485064Y-119614174D01*
X149513524Y-119672390D01*
X149602610Y-119761476D01*
X149715796Y-119816809D01*
X149789173Y-119827500D01*
X150385826Y-119827499D01*
X150385829Y-119827499D01*
X150440859Y-119819481D01*
X150459204Y-119816809D01*
X150572390Y-119761476D01*
X150661476Y-119672390D01*
X150716809Y-119559204D01*
X150727500Y-119485827D01*
X150727499Y-118514174D01*
X150727499Y-118514171D01*
X150727499Y-118514170D01*
X150716809Y-118440796D01*
X150716809Y-118440795D01*
X150687223Y-118380277D01*
X150661476Y-118327610D01*
X150572390Y-118238524D01*
X150505448Y-118205798D01*
X150459207Y-118183192D01*
X150459205Y-118183191D01*
X150385828Y-118172500D01*
X149789170Y-118172500D01*
X149715796Y-118183190D01*
X149715795Y-118183190D01*
X149602612Y-118238523D01*
X149602608Y-118238525D01*
X149513525Y-118327608D01*
X149513523Y-118327612D01*
X149458192Y-118440792D01*
X149458191Y-118440794D01*
X149447500Y-118514171D01*
X149447500Y-118723500D01*
X149433148Y-118758148D01*
X149398500Y-118772500D01*
X146754529Y-118772500D01*
X146719881Y-118758148D01*
X145430575Y-117468842D01*
X145416223Y-117434194D01*
X145430575Y-117399546D01*
X145430576Y-117399545D01*
X145440687Y-117389434D01*
X145450893Y-117379228D01*
X145494687Y-117280046D01*
X145497500Y-117255798D01*
X145497500Y-116844202D01*
X145494687Y-116819954D01*
X145450893Y-116720772D01*
X145450891Y-116720770D01*
X145450891Y-116720769D01*
X145374230Y-116644108D01*
X145275047Y-116600313D01*
X145250798Y-116597500D01*
X144476500Y-116597500D01*
X144441852Y-116583148D01*
X144427500Y-116548500D01*
X144427500Y-116443716D01*
X144427499Y-116443715D01*
X144398367Y-116334991D01*
X144398366Y-116334988D01*
X144342088Y-116237514D01*
X144342087Y-116237513D01*
X144342085Y-116237509D01*
X144262491Y-116157915D01*
X144262487Y-116157913D01*
X144262485Y-116157911D01*
X144165011Y-116101633D01*
X144165008Y-116101632D01*
X144056284Y-116072500D01*
X144056281Y-116072500D01*
X143943719Y-116072500D01*
X143943718Y-116072500D01*
X143902495Y-116083545D01*
X143865313Y-116078649D01*
X143842483Y-116048895D01*
X143847379Y-116011713D01*
X143855160Y-116001572D01*
X144364882Y-115491852D01*
X144399530Y-115477500D01*
X144524504Y-115477500D01*
X144559152Y-115491852D01*
X144565246Y-115499277D01*
X144589469Y-115535530D01*
X144642275Y-115570813D01*
X144668857Y-115588575D01*
X144668859Y-115588576D01*
X144738856Y-115602499D01*
X144738862Y-115602500D01*
X145161138Y-115602500D01*
X145162072Y-115602314D01*
X145231140Y-115588576D01*
X145231140Y-115588575D01*
X145231143Y-115588575D01*
X145310530Y-115535530D01*
X145363575Y-115456143D01*
X145363805Y-115454991D01*
X145377499Y-115386143D01*
X145377500Y-115386138D01*
X145377500Y-115113862D01*
X145377499Y-115113856D01*
X145363576Y-115043859D01*
X145310530Y-114964469D01*
X145251123Y-114924775D01*
X145231143Y-114911425D01*
X145231142Y-114911424D01*
X145231141Y-114911424D01*
X145216940Y-114908599D01*
X145185757Y-114887763D01*
X145177500Y-114860541D01*
X145177500Y-113639458D01*
X145191852Y-113604810D01*
X145216939Y-113591400D01*
X145231143Y-113588575D01*
X145310530Y-113535530D01*
X145363575Y-113456143D01*
X145371758Y-113415008D01*
X145377499Y-113386143D01*
X145377500Y-113386138D01*
X145377500Y-113113862D01*
X145377499Y-113113856D01*
X145363576Y-113043859D01*
X145310530Y-112964469D01*
X145251123Y-112924775D01*
X145231143Y-112911425D01*
X145231142Y-112911424D01*
X145231141Y-112911424D01*
X145216940Y-112908599D01*
X145185757Y-112887763D01*
X145177500Y-112860541D01*
X145177500Y-112126499D01*
X145191852Y-112091851D01*
X145226500Y-112077499D01*
X145385829Y-112077499D01*
X145440859Y-112069481D01*
X145459204Y-112066809D01*
X145572390Y-112011476D01*
X145661476Y-111922390D01*
X145716809Y-111809204D01*
X145727500Y-111735827D01*
X145727499Y-111655587D01*
X145741850Y-111620940D01*
X145776498Y-111606588D01*
X145800999Y-111613153D01*
X145861989Y-111648366D01*
X145861991Y-111648367D01*
X145970715Y-111677499D01*
X145970716Y-111677500D01*
X145970719Y-111677500D01*
X146083284Y-111677500D01*
X146083284Y-111677499D01*
X146192009Y-111648367D01*
X146198998Y-111644331D01*
X146236178Y-111639434D01*
X146265933Y-111662261D01*
X146272500Y-111686764D01*
X146272500Y-111735829D01*
X146283190Y-111809203D01*
X146283190Y-111809204D01*
X146320521Y-111885564D01*
X146338524Y-111922390D01*
X146427610Y-112011476D01*
X146540796Y-112066809D01*
X146614173Y-112077500D01*
X147210826Y-112077499D01*
X147210829Y-112077499D01*
X147265859Y-112069481D01*
X147284204Y-112066809D01*
X147397390Y-112011476D01*
X147438852Y-111970014D01*
X147473500Y-111955662D01*
X147508148Y-111970014D01*
X147522500Y-112004662D01*
X147522500Y-112970513D01*
X147508148Y-113005161D01*
X147473500Y-113019513D01*
X147438852Y-113005161D01*
X147432758Y-112997736D01*
X147410530Y-112964469D01*
X147331140Y-112911423D01*
X147261143Y-112897500D01*
X147261138Y-112897500D01*
X146838862Y-112897500D01*
X146838856Y-112897500D01*
X146768859Y-112911423D01*
X146689469Y-112964469D01*
X146665246Y-113000723D01*
X146634063Y-113021558D01*
X146624504Y-113022500D01*
X146390577Y-113022500D01*
X146355929Y-113008148D01*
X146348144Y-112998003D01*
X146342085Y-112987509D01*
X146262491Y-112907915D01*
X146262487Y-112907913D01*
X146262485Y-112907911D01*
X146165011Y-112851633D01*
X146165008Y-112851632D01*
X146056284Y-112822500D01*
X146056281Y-112822500D01*
X145943719Y-112822500D01*
X145943716Y-112822500D01*
X145834991Y-112851632D01*
X145834988Y-112851633D01*
X145737514Y-112907911D01*
X145737505Y-112907918D01*
X145657918Y-112987505D01*
X145657911Y-112987514D01*
X145601633Y-113084988D01*
X145601632Y-113084991D01*
X145572500Y-113193715D01*
X145572500Y-113306284D01*
X145601632Y-113415008D01*
X145601633Y-113415011D01*
X145657911Y-113512485D01*
X145657913Y-113512487D01*
X145657915Y-113512491D01*
X145737509Y-113592085D01*
X145737513Y-113592087D01*
X145737514Y-113592088D01*
X145834988Y-113648366D01*
X145834991Y-113648367D01*
X145943715Y-113677499D01*
X145943716Y-113677500D01*
X145943719Y-113677500D01*
X146056284Y-113677500D01*
X146056284Y-113677499D01*
X146165009Y-113648367D01*
X146172000Y-113644331D01*
X146219164Y-113617100D01*
X146262491Y-113592085D01*
X146342085Y-113512491D01*
X146348142Y-113501998D01*
X146377896Y-113479169D01*
X146390577Y-113477500D01*
X146624504Y-113477500D01*
X146659152Y-113491852D01*
X146665246Y-113499277D01*
X146689469Y-113535530D01*
X146718721Y-113555075D01*
X146768857Y-113588575D01*
X146768859Y-113588576D01*
X146838856Y-113602499D01*
X146838862Y-113602500D01*
X147261138Y-113602500D01*
X147277502Y-113599245D01*
X147331140Y-113588576D01*
X147331140Y-113588575D01*
X147331143Y-113588575D01*
X147410530Y-113535530D01*
X147414569Y-113529486D01*
X147432758Y-113502264D01*
X147463940Y-113481428D01*
X147500722Y-113488744D01*
X147521558Y-113519926D01*
X147522500Y-113529486D01*
X147522500Y-114454747D01*
X147522500Y-114545253D01*
X147557135Y-114628868D01*
X147557136Y-114628869D01*
X147557137Y-114628871D01*
X148796129Y-115867864D01*
X148796131Y-115867865D01*
X148796132Y-115867866D01*
X148879747Y-115902500D01*
X148970253Y-115902500D01*
X149028557Y-115902500D01*
X149033194Y-115904421D01*
X149038117Y-115903442D01*
X149050001Y-115911382D01*
X149063205Y-115916852D01*
X149069299Y-115924277D01*
X149101705Y-115972777D01*
X149109021Y-116009560D01*
X149101705Y-116027223D01*
X149069299Y-116075723D01*
X149038117Y-116096558D01*
X149028557Y-116097500D01*
X148489530Y-116097500D01*
X148454882Y-116083148D01*
X147486000Y-115114267D01*
X147472589Y-115089178D01*
X147463575Y-115043857D01*
X147427034Y-114989170D01*
X147410530Y-114964469D01*
X147331140Y-114911423D01*
X147261143Y-114897500D01*
X147261138Y-114897500D01*
X146838862Y-114897500D01*
X146838856Y-114897500D01*
X146768859Y-114911423D01*
X146689469Y-114964469D01*
X146636423Y-115043859D01*
X146622500Y-115113856D01*
X146622500Y-115386143D01*
X146636423Y-115456140D01*
X146689469Y-115535530D01*
X146742275Y-115570813D01*
X146768857Y-115588575D01*
X146768859Y-115588576D01*
X146838856Y-115602499D01*
X146838862Y-115602500D01*
X147261138Y-115602500D01*
X147293525Y-115596057D01*
X147330308Y-115603372D01*
X147337734Y-115609467D01*
X148246129Y-116517864D01*
X148246131Y-116517865D01*
X148246132Y-116517866D01*
X148302872Y-116541368D01*
X148329747Y-116552500D01*
X148329748Y-116552500D01*
X148420253Y-116552500D01*
X149028557Y-116552500D01*
X149033194Y-116554421D01*
X149038117Y-116553442D01*
X149050001Y-116561382D01*
X149063205Y-116566852D01*
X149069299Y-116574277D01*
X149101705Y-116622777D01*
X149109021Y-116659560D01*
X149101705Y-116677222D01*
X149058814Y-116741413D01*
X149054623Y-116762485D01*
X149047500Y-116798295D01*
X149047500Y-116798296D01*
X149047500Y-116798298D01*
X149047500Y-117151702D01*
X149055486Y-117191852D01*
X149058814Y-117208585D01*
X149070866Y-117226622D01*
X149078183Y-117263403D01*
X149064772Y-117288492D01*
X148595119Y-117758148D01*
X148560471Y-117772500D01*
X148147739Y-117772500D01*
X148113091Y-117758148D01*
X148102914Y-117743292D01*
X148102196Y-117741667D01*
X148070893Y-117670772D01*
X148070892Y-117670771D01*
X148070892Y-117670770D01*
X147994230Y-117594108D01*
X147895047Y-117550313D01*
X147870798Y-117547500D01*
X147656743Y-117547500D01*
X147622095Y-117533148D01*
X147607743Y-117498500D01*
X147614308Y-117474000D01*
X147623435Y-117458192D01*
X147648367Y-117415009D01*
X147677499Y-117306284D01*
X147677500Y-117306284D01*
X147677500Y-117193716D01*
X147677499Y-117193715D01*
X147648367Y-117084991D01*
X147648366Y-117084988D01*
X147592088Y-116987514D01*
X147592087Y-116987513D01*
X147592085Y-116987509D01*
X147512491Y-116907915D01*
X147512487Y-116907913D01*
X147512485Y-116907911D01*
X147415011Y-116851633D01*
X147415008Y-116851632D01*
X147306284Y-116822500D01*
X147306281Y-116822500D01*
X147193719Y-116822500D01*
X147193716Y-116822500D01*
X147084991Y-116851632D01*
X147084988Y-116851633D01*
X146987514Y-116907911D01*
X146987505Y-116907918D01*
X146907918Y-116987505D01*
X146907911Y-116987514D01*
X146851633Y-117084988D01*
X146851632Y-117084991D01*
X146822500Y-117193715D01*
X146822500Y-117306284D01*
X146851632Y-117415008D01*
X146851633Y-117415011D01*
X146889293Y-117480238D01*
X146894188Y-117517420D01*
X146871358Y-117547173D01*
X146866651Y-117549563D01*
X146765769Y-117594108D01*
X146689108Y-117670769D01*
X146645313Y-117769952D01*
X146642500Y-117794201D01*
X146642500Y-118205798D01*
X146645313Y-118230047D01*
X146679940Y-118308468D01*
X146688393Y-118327612D01*
X146689108Y-118329230D01*
X146765769Y-118405891D01*
X146765770Y-118405891D01*
X146765772Y-118405893D01*
X146864954Y-118449687D01*
X146889202Y-118452500D01*
X146889205Y-118452500D01*
X147870795Y-118452500D01*
X147870798Y-118452500D01*
X147895046Y-118449687D01*
X147994228Y-118405893D01*
X148070893Y-118329228D01*
X148102914Y-118256707D01*
X148130038Y-118230809D01*
X148147739Y-118227500D01*
X148720251Y-118227500D01*
X148720253Y-118227500D01*
X148803868Y-118192865D01*
X149654882Y-117341851D01*
X149689530Y-117327499D01*
X150176702Y-117327499D01*
X150176704Y-117327499D01*
X150233585Y-117316186D01*
X150298087Y-117273087D01*
X150341186Y-117208585D01*
X150352500Y-117151705D01*
X150352499Y-116798296D01*
X150341186Y-116741415D01*
X150298293Y-116677222D01*
X150290978Y-116640441D01*
X150298294Y-116622777D01*
X150341186Y-116558585D01*
X150352500Y-116501705D01*
X150352499Y-116148296D01*
X150341186Y-116091415D01*
X150298293Y-116027222D01*
X150290978Y-115990441D01*
X150298294Y-115972777D01*
X150298295Y-115972776D01*
X150341186Y-115908585D01*
X150352500Y-115851705D01*
X150352499Y-115592528D01*
X150366851Y-115557881D01*
X150401499Y-115543529D01*
X150436147Y-115557881D01*
X151396129Y-116517864D01*
X151396131Y-116517865D01*
X151396132Y-116517866D01*
X151452872Y-116541368D01*
X151479747Y-116552500D01*
X151479748Y-116552500D01*
X151570253Y-116552500D01*
X151628557Y-116552500D01*
X151633194Y-116554421D01*
X151638117Y-116553442D01*
X151650001Y-116561382D01*
X151663205Y-116566852D01*
X151669299Y-116574277D01*
X151701705Y-116622777D01*
X151709021Y-116659560D01*
X151701705Y-116677223D01*
X151669299Y-116725723D01*
X151638117Y-116746558D01*
X151628557Y-116747500D01*
X151372372Y-116747500D01*
X151337724Y-116733148D01*
X151262494Y-116657918D01*
X151262491Y-116657915D01*
X151262487Y-116657913D01*
X151262485Y-116657911D01*
X151165011Y-116601633D01*
X151165008Y-116601632D01*
X151056284Y-116572500D01*
X151056281Y-116572500D01*
X150943719Y-116572500D01*
X150943716Y-116572500D01*
X150834991Y-116601632D01*
X150834988Y-116601633D01*
X150737514Y-116657911D01*
X150737505Y-116657918D01*
X150657918Y-116737505D01*
X150657911Y-116737514D01*
X150601633Y-116834988D01*
X150601632Y-116834991D01*
X150572500Y-116943715D01*
X150572500Y-117056284D01*
X150601632Y-117165008D01*
X150601633Y-117165011D01*
X150657911Y-117262485D01*
X150657913Y-117262487D01*
X150657915Y-117262491D01*
X150737509Y-117342085D01*
X150737513Y-117342087D01*
X150737514Y-117342088D01*
X150834988Y-117398366D01*
X150834991Y-117398367D01*
X150943715Y-117427499D01*
X150943716Y-117427500D01*
X150943719Y-117427500D01*
X151056284Y-117427500D01*
X151056284Y-117427499D01*
X151165009Y-117398367D01*
X151262491Y-117342085D01*
X151342085Y-117262491D01*
X151362576Y-117226998D01*
X151392329Y-117204169D01*
X151405011Y-117202500D01*
X151628557Y-117202500D01*
X151663205Y-117216852D01*
X151669299Y-117224277D01*
X151701912Y-117273087D01*
X151744366Y-117301453D01*
X151766415Y-117316186D01*
X151823295Y-117327500D01*
X152776704Y-117327499D01*
X152833585Y-117316186D01*
X152898087Y-117273087D01*
X152941186Y-117208585D01*
X152952500Y-117151705D01*
X152952499Y-116798296D01*
X152941186Y-116741415D01*
X152898293Y-116677222D01*
X152896392Y-116667664D01*
X152890977Y-116659559D01*
X152892878Y-116649998D01*
X152890978Y-116640441D01*
X152898294Y-116622777D01*
X152898479Y-116622501D01*
X152923544Y-116584988D01*
X152930701Y-116574277D01*
X152961884Y-116553441D01*
X152971443Y-116552500D01*
X153297971Y-116552500D01*
X153332619Y-116566852D01*
X153433148Y-116667381D01*
X153447500Y-116702029D01*
X153447500Y-117485829D01*
X153458190Y-117559203D01*
X153458190Y-117559204D01*
X153486493Y-117617097D01*
X153513524Y-117672390D01*
X153602610Y-117761476D01*
X153715796Y-117816809D01*
X153789173Y-117827500D01*
X153810999Y-117827499D01*
X153845647Y-117841849D01*
X153860000Y-117876497D01*
X153860000Y-118123500D01*
X153845648Y-118158148D01*
X153811002Y-118172500D01*
X153789171Y-118172500D01*
X153715796Y-118183190D01*
X153715795Y-118183190D01*
X153602612Y-118238523D01*
X153602608Y-118238525D01*
X153513525Y-118327608D01*
X153513523Y-118327612D01*
X153458192Y-118440792D01*
X153458191Y-118440794D01*
X153447500Y-118514171D01*
X153447500Y-119485829D01*
X153458190Y-119559203D01*
X153458190Y-119559204D01*
X153485064Y-119614174D01*
X153513524Y-119672390D01*
X153602610Y-119761476D01*
X153715796Y-119816809D01*
X153789173Y-119827500D01*
X154385826Y-119827499D01*
X154385829Y-119827499D01*
X154440859Y-119819481D01*
X154459204Y-119816809D01*
X154572390Y-119761476D01*
X154661476Y-119672390D01*
X154716809Y-119559204D01*
X154727500Y-119485827D01*
X154727499Y-118514174D01*
X154727499Y-118514171D01*
X154727499Y-118514170D01*
X154716809Y-118440796D01*
X154716809Y-118440795D01*
X154687223Y-118380277D01*
X154661476Y-118327610D01*
X154572390Y-118238524D01*
X154505448Y-118205798D01*
X154459207Y-118183192D01*
X154459205Y-118183191D01*
X154385829Y-118172500D01*
X154385827Y-118172500D01*
X154364000Y-118172500D01*
X154329352Y-118158148D01*
X154315000Y-118123500D01*
X154315000Y-117876499D01*
X154329352Y-117841851D01*
X154364000Y-117827499D01*
X154385829Y-117827499D01*
X154455339Y-117817372D01*
X154459204Y-117816809D01*
X154572390Y-117761476D01*
X154661476Y-117672390D01*
X154716809Y-117559204D01*
X154727500Y-117485827D01*
X154727499Y-117405587D01*
X154741850Y-117370940D01*
X154776498Y-117356588D01*
X154800999Y-117363153D01*
X154861989Y-117398366D01*
X154861991Y-117398367D01*
X154970715Y-117427499D01*
X154970716Y-117427500D01*
X154970719Y-117427500D01*
X155083284Y-117427500D01*
X155083284Y-117427499D01*
X155192009Y-117398367D01*
X155198998Y-117394331D01*
X155236178Y-117389434D01*
X155265933Y-117412261D01*
X155272500Y-117436764D01*
X155272500Y-117485829D01*
X155283190Y-117559203D01*
X155283190Y-117559204D01*
X155311493Y-117617097D01*
X155338524Y-117672390D01*
X155427610Y-117761476D01*
X155540796Y-117816809D01*
X155614173Y-117827500D01*
X156210826Y-117827499D01*
X156210829Y-117827499D01*
X156280339Y-117817372D01*
X156284204Y-117816809D01*
X156397390Y-117761476D01*
X156486476Y-117672390D01*
X156541809Y-117559204D01*
X156552500Y-117485827D01*
X156552499Y-116514174D01*
X156552499Y-116514171D01*
X156552499Y-116514170D01*
X156541809Y-116440796D01*
X156541809Y-116440795D01*
X156522598Y-116401499D01*
X156486476Y-116327610D01*
X156397390Y-116238524D01*
X156328310Y-116204753D01*
X156284207Y-116183192D01*
X156284205Y-116183191D01*
X156210828Y-116172500D01*
X155614170Y-116172500D01*
X155540796Y-116183190D01*
X155540795Y-116183190D01*
X155427612Y-116238523D01*
X155427608Y-116238525D01*
X155338525Y-116327608D01*
X155338523Y-116327612D01*
X155283192Y-116440792D01*
X155283191Y-116440794D01*
X155272500Y-116514171D01*
X155272500Y-116563233D01*
X155258148Y-116597881D01*
X155223500Y-116612233D01*
X155199003Y-116605670D01*
X155192011Y-116601633D01*
X155192008Y-116601632D01*
X155083284Y-116572500D01*
X155083281Y-116572500D01*
X154970719Y-116572500D01*
X154970716Y-116572500D01*
X154861991Y-116601632D01*
X154861989Y-116601633D01*
X154800999Y-116636847D01*
X154763817Y-116641742D01*
X154734064Y-116618912D01*
X154727499Y-116594412D01*
X154727499Y-116514170D01*
X154716809Y-116440796D01*
X154716809Y-116440795D01*
X154697598Y-116401499D01*
X154661476Y-116327610D01*
X154572390Y-116238524D01*
X154503310Y-116204753D01*
X154459207Y-116183192D01*
X154459205Y-116183191D01*
X154385828Y-116172500D01*
X153789170Y-116172500D01*
X153715796Y-116183190D01*
X153715792Y-116183191D01*
X153664362Y-116208334D01*
X153626931Y-116210658D01*
X153608194Y-116198961D01*
X153541370Y-116132136D01*
X153457754Y-116097500D01*
X153457753Y-116097500D01*
X152971443Y-116097500D01*
X152966807Y-116095579D01*
X152961884Y-116096559D01*
X152949998Y-116088617D01*
X152936795Y-116083148D01*
X152930701Y-116075723D01*
X152898294Y-116027223D01*
X152890977Y-115990441D01*
X152898294Y-115972777D01*
X152930701Y-115924277D01*
X152961884Y-115903441D01*
X152971443Y-115902500D01*
X153457751Y-115902500D01*
X153457753Y-115902500D01*
X153541368Y-115867865D01*
X153608195Y-115801037D01*
X153642841Y-115786685D01*
X153664361Y-115791663D01*
X153715796Y-115816809D01*
X153789173Y-115827500D01*
X154385826Y-115827499D01*
X154385829Y-115827499D01*
X154455339Y-115817372D01*
X154459204Y-115816809D01*
X154572390Y-115761476D01*
X154661476Y-115672390D01*
X154716809Y-115559204D01*
X154727500Y-115485827D01*
X154727499Y-114514174D01*
X154727499Y-114514171D01*
X154727499Y-114514170D01*
X154716809Y-114440796D01*
X154716809Y-114440795D01*
X154677310Y-114360000D01*
X154661476Y-114327610D01*
X154572390Y-114238524D01*
X154515797Y-114210857D01*
X154459207Y-114183192D01*
X154459205Y-114183191D01*
X154385829Y-114172500D01*
X154385827Y-114172500D01*
X154364000Y-114172500D01*
X154329352Y-114158148D01*
X154315000Y-114123500D01*
X154315000Y-113876499D01*
X154329352Y-113841851D01*
X154364000Y-113827499D01*
X154385829Y-113827499D01*
X154440859Y-113819481D01*
X154459204Y-113816809D01*
X154572390Y-113761476D01*
X154661476Y-113672390D01*
X154716809Y-113559204D01*
X154727500Y-113485827D01*
X154727499Y-112514174D01*
X154727499Y-112514171D01*
X154727499Y-112514170D01*
X154716809Y-112440796D01*
X154716809Y-112440795D01*
X154663869Y-112332506D01*
X154661476Y-112327610D01*
X154572390Y-112238524D01*
X154515797Y-112210857D01*
X154459207Y-112183192D01*
X154459205Y-112183191D01*
X154385828Y-112172500D01*
X153789170Y-112172500D01*
X153715796Y-112183190D01*
X153715795Y-112183190D01*
X153602612Y-112238523D01*
X153602608Y-112238525D01*
X153513525Y-112327608D01*
X153513523Y-112327612D01*
X153458192Y-112440792D01*
X153458191Y-112440794D01*
X153450184Y-112495753D01*
X153447500Y-112514173D01*
X153447500Y-112764174D01*
X153447501Y-112973500D01*
X153433149Y-113008148D01*
X153398501Y-113022500D01*
X151101499Y-113022500D01*
X151066851Y-113008148D01*
X151052499Y-112973500D01*
X151052499Y-112764170D01*
X151041809Y-112690796D01*
X151041809Y-112690795D01*
X151015858Y-112637712D01*
X150986476Y-112577610D01*
X150897390Y-112488524D01*
X150840753Y-112460836D01*
X150784207Y-112433192D01*
X150784205Y-112433191D01*
X150710829Y-112422500D01*
X150710827Y-112422500D01*
X150652500Y-112422500D01*
X150617852Y-112408148D01*
X150603500Y-112373500D01*
X150603500Y-112126499D01*
X150617852Y-112091851D01*
X150652500Y-112077499D01*
X150710829Y-112077499D01*
X150765859Y-112069481D01*
X150784204Y-112066809D01*
X150897390Y-112011476D01*
X150986476Y-111922390D01*
X151041809Y-111809204D01*
X151052500Y-111735827D01*
X151052499Y-110764174D01*
X151052499Y-110764171D01*
X151052499Y-110764170D01*
X151041809Y-110690796D01*
X151041809Y-110690795D01*
X151010896Y-110627562D01*
X150986476Y-110577610D01*
X150897390Y-110488524D01*
X150840797Y-110460857D01*
X150784207Y-110433192D01*
X150784205Y-110433191D01*
X150710828Y-110422500D01*
X150114170Y-110422500D01*
X150040796Y-110433190D01*
X150040795Y-110433190D01*
X149927612Y-110488523D01*
X149927608Y-110488525D01*
X149838525Y-110577608D01*
X149838523Y-110577612D01*
X149783192Y-110690792D01*
X149783191Y-110690794D01*
X149772500Y-110764171D01*
X149772500Y-110844411D01*
X149758148Y-110879059D01*
X149723500Y-110893411D01*
X149699000Y-110886846D01*
X149638011Y-110851633D01*
X149638008Y-110851632D01*
X149529284Y-110822500D01*
X149529281Y-110822500D01*
X149416719Y-110822500D01*
X149416716Y-110822500D01*
X149307991Y-110851632D01*
X149307990Y-110851633D01*
X149300998Y-110855670D01*
X149263815Y-110860564D01*
X149234063Y-110837733D01*
X149227499Y-110813234D01*
X149227499Y-110764170D01*
X149216809Y-110690796D01*
X149216809Y-110690795D01*
X149185896Y-110627562D01*
X149161476Y-110577610D01*
X149072390Y-110488524D01*
X149015797Y-110460857D01*
X148959207Y-110433192D01*
X148959205Y-110433191D01*
X148885828Y-110422500D01*
X148289170Y-110422500D01*
X148215796Y-110433190D01*
X148215795Y-110433190D01*
X148102612Y-110488523D01*
X148102608Y-110488525D01*
X148061148Y-110529986D01*
X148026500Y-110544338D01*
X147991852Y-110529986D01*
X147977500Y-110495338D01*
X147977500Y-110202029D01*
X147991852Y-110167381D01*
X148041988Y-110117245D01*
X148108195Y-110051037D01*
X148142842Y-110036686D01*
X148164362Y-110041664D01*
X148215796Y-110066809D01*
X148289173Y-110077500D01*
X148885826Y-110077499D01*
X148885829Y-110077499D01*
X148940859Y-110069481D01*
X148959204Y-110066809D01*
X149072390Y-110011476D01*
X149161476Y-109922390D01*
X149216809Y-109809204D01*
X149227500Y-109735827D01*
X149227499Y-109655587D01*
X149241850Y-109620940D01*
X149276498Y-109606588D01*
X149300999Y-109613153D01*
X149361989Y-109648366D01*
X149361991Y-109648367D01*
X149470715Y-109677499D01*
X149470716Y-109677500D01*
X149470719Y-109677500D01*
X149583284Y-109677500D01*
X149583284Y-109677499D01*
X149692009Y-109648367D01*
X149698998Y-109644331D01*
X149736178Y-109639434D01*
X149765933Y-109662261D01*
X149772500Y-109686764D01*
X149772500Y-109735829D01*
X149783190Y-109809203D01*
X149783190Y-109809204D01*
X149811803Y-109867731D01*
X149838524Y-109922390D01*
X149927610Y-110011476D01*
X150040796Y-110066809D01*
X150114173Y-110077500D01*
X150710826Y-110077499D01*
X150710829Y-110077499D01*
X150765859Y-110069481D01*
X150784204Y-110066809D01*
X150897390Y-110011476D01*
X150986476Y-109922390D01*
X151041809Y-109809204D01*
X151052500Y-109735827D01*
X151052499Y-108764174D01*
X151052499Y-108764171D01*
X151052499Y-108764170D01*
X151041809Y-108690796D01*
X151041809Y-108690795D01*
X151017446Y-108640961D01*
X150986476Y-108577610D01*
X150923037Y-108514171D01*
X153447500Y-108514171D01*
X153447500Y-109485829D01*
X153458190Y-109559203D01*
X153458190Y-109559204D01*
X153482171Y-109608257D01*
X153513524Y-109672390D01*
X153602610Y-109761476D01*
X153715796Y-109816809D01*
X153789173Y-109827500D01*
X153810999Y-109827499D01*
X153845647Y-109841849D01*
X153860000Y-109876497D01*
X153860000Y-110123500D01*
X153845648Y-110158148D01*
X153811002Y-110172500D01*
X153789171Y-110172500D01*
X153715796Y-110183190D01*
X153715795Y-110183190D01*
X153602612Y-110238523D01*
X153602608Y-110238525D01*
X153513525Y-110327608D01*
X153513523Y-110327612D01*
X153458192Y-110440792D01*
X153458191Y-110440794D01*
X153447500Y-110514171D01*
X153447500Y-111485829D01*
X153458190Y-111559203D01*
X153458190Y-111559204D01*
X153482171Y-111608257D01*
X153513524Y-111672390D01*
X153602610Y-111761476D01*
X153715796Y-111816809D01*
X153789173Y-111827500D01*
X154385826Y-111827499D01*
X154385829Y-111827499D01*
X154429852Y-111821085D01*
X154459204Y-111816809D01*
X154510636Y-111791664D01*
X154548065Y-111789341D01*
X154566804Y-111801038D01*
X155258148Y-112492381D01*
X155272500Y-112527029D01*
X155272500Y-113485829D01*
X155283190Y-113559203D01*
X155283190Y-113559204D01*
X155309565Y-113613153D01*
X155338524Y-113672390D01*
X155427610Y-113761476D01*
X155540796Y-113816809D01*
X155614173Y-113827500D01*
X155635999Y-113827499D01*
X155670647Y-113841849D01*
X155685000Y-113876497D01*
X155685000Y-114123500D01*
X155670648Y-114158148D01*
X155636002Y-114172500D01*
X155614171Y-114172500D01*
X155540796Y-114183190D01*
X155540795Y-114183190D01*
X155427612Y-114238523D01*
X155427608Y-114238525D01*
X155338525Y-114327608D01*
X155338523Y-114327612D01*
X155283192Y-114440792D01*
X155283191Y-114440794D01*
X155272500Y-114514171D01*
X155272500Y-115485829D01*
X155283190Y-115559203D01*
X155283190Y-115559204D01*
X155304357Y-115602500D01*
X155338524Y-115672390D01*
X155427610Y-115761476D01*
X155540796Y-115816809D01*
X155614173Y-115827500D01*
X156210826Y-115827499D01*
X156210829Y-115827499D01*
X156280339Y-115817372D01*
X156284204Y-115816809D01*
X156397390Y-115761476D01*
X156486476Y-115672390D01*
X156541809Y-115559204D01*
X156552500Y-115485827D01*
X156552499Y-114514174D01*
X156552499Y-114514171D01*
X156552499Y-114514170D01*
X156541809Y-114440796D01*
X156541809Y-114440795D01*
X156502310Y-114360000D01*
X156486476Y-114327610D01*
X156397390Y-114238524D01*
X156340797Y-114210857D01*
X156284207Y-114183192D01*
X156284205Y-114183191D01*
X156210829Y-114172500D01*
X156210827Y-114172500D01*
X156189000Y-114172500D01*
X156154352Y-114158148D01*
X156140000Y-114123500D01*
X156140000Y-113876499D01*
X156154352Y-113841851D01*
X156189000Y-113827499D01*
X156210829Y-113827499D01*
X156265859Y-113819481D01*
X156284204Y-113816809D01*
X156397390Y-113761476D01*
X156486476Y-113672390D01*
X156541809Y-113559204D01*
X156552500Y-113485827D01*
X156552499Y-112514174D01*
X156552499Y-112514171D01*
X156552499Y-112514170D01*
X156541809Y-112440796D01*
X156541809Y-112440795D01*
X156488869Y-112332506D01*
X156486476Y-112327610D01*
X156397390Y-112238524D01*
X156340797Y-112210857D01*
X156284207Y-112183192D01*
X156284205Y-112183191D01*
X156210828Y-112172500D01*
X155614172Y-112172500D01*
X155614171Y-112172501D01*
X155610181Y-112173082D01*
X155573827Y-112163871D01*
X155568475Y-112159241D01*
X154741851Y-111332617D01*
X154727499Y-111297969D01*
X154727499Y-110514170D01*
X154716809Y-110440796D01*
X154716809Y-110440795D01*
X154698364Y-110403067D01*
X154661476Y-110327610D01*
X154572390Y-110238524D01*
X154497738Y-110202029D01*
X154459207Y-110183192D01*
X154459205Y-110183191D01*
X154385829Y-110172500D01*
X154385827Y-110172500D01*
X154364000Y-110172500D01*
X154329352Y-110158148D01*
X154315000Y-110123500D01*
X154315000Y-109876499D01*
X154329352Y-109841851D01*
X154364000Y-109827499D01*
X154385829Y-109827499D01*
X154440859Y-109819481D01*
X154459204Y-109816809D01*
X154572390Y-109761476D01*
X154661476Y-109672390D01*
X154716809Y-109559204D01*
X154727500Y-109485827D01*
X154727499Y-108514174D01*
X154727499Y-108514171D01*
X154727499Y-108514170D01*
X154716809Y-108440796D01*
X154716809Y-108440795D01*
X154683910Y-108373500D01*
X154661476Y-108327610D01*
X154572390Y-108238524D01*
X154515797Y-108210857D01*
X154459207Y-108183192D01*
X154459205Y-108183191D01*
X154385828Y-108172500D01*
X153789170Y-108172500D01*
X153715796Y-108183190D01*
X153715795Y-108183190D01*
X153602612Y-108238523D01*
X153602608Y-108238525D01*
X153513525Y-108327608D01*
X153513523Y-108327612D01*
X153458192Y-108440792D01*
X153458191Y-108440794D01*
X153447500Y-108514171D01*
X150923037Y-108514171D01*
X150897390Y-108488524D01*
X150840797Y-108460857D01*
X150784207Y-108433192D01*
X150784205Y-108433191D01*
X150710828Y-108422500D01*
X150114170Y-108422500D01*
X150040796Y-108433190D01*
X150040795Y-108433190D01*
X149927612Y-108488523D01*
X149927608Y-108488525D01*
X149838525Y-108577608D01*
X149838523Y-108577612D01*
X149783192Y-108690792D01*
X149783191Y-108690794D01*
X149772500Y-108764171D01*
X149772500Y-108813233D01*
X149758148Y-108847881D01*
X149723500Y-108862233D01*
X149699003Y-108855670D01*
X149692011Y-108851633D01*
X149692008Y-108851632D01*
X149583284Y-108822500D01*
X149583281Y-108822500D01*
X149470719Y-108822500D01*
X149470716Y-108822500D01*
X149361991Y-108851632D01*
X149361990Y-108851633D01*
X149348598Y-108859365D01*
X149311416Y-108864259D01*
X149281663Y-108841428D01*
X149276769Y-108804246D01*
X149289449Y-108782283D01*
X149992503Y-108079228D01*
X150027150Y-108064877D01*
X150037015Y-108066367D01*
X150037031Y-108066260D01*
X150040794Y-108066808D01*
X150040796Y-108066809D01*
X150114173Y-108077500D01*
X150710826Y-108077499D01*
X150710829Y-108077499D01*
X150765859Y-108069481D01*
X150784204Y-108066809D01*
X150897390Y-108011476D01*
X150986476Y-107922390D01*
X151041809Y-107809204D01*
X151052500Y-107735827D01*
X151052499Y-106764174D01*
X151052499Y-106764171D01*
X151052499Y-106764170D01*
X151041809Y-106690796D01*
X151041809Y-106690795D01*
X151023364Y-106653067D01*
X150986476Y-106577610D01*
X150897390Y-106488524D01*
X150840797Y-106460857D01*
X150784207Y-106433192D01*
X150784205Y-106433191D01*
X150710828Y-106422500D01*
X150114170Y-106422500D01*
X150040796Y-106433190D01*
X150040795Y-106433190D01*
X149927612Y-106488523D01*
X149927608Y-106488525D01*
X149838525Y-106577608D01*
X149838523Y-106577612D01*
X149783192Y-106690792D01*
X149783191Y-106690794D01*
X149772500Y-106764171D01*
X149772500Y-107635469D01*
X149758148Y-107670117D01*
X149007496Y-108420769D01*
X148972848Y-108435121D01*
X148962984Y-108433632D01*
X148962969Y-108433740D01*
X148959205Y-108433191D01*
X148959204Y-108433191D01*
X148904985Y-108425291D01*
X148885828Y-108422500D01*
X148289170Y-108422500D01*
X148215796Y-108433190D01*
X148215795Y-108433190D01*
X148102612Y-108488523D01*
X148102608Y-108488525D01*
X148013525Y-108577608D01*
X148013523Y-108577612D01*
X147958192Y-108690792D01*
X147958191Y-108690794D01*
X147947500Y-108764171D01*
X147947500Y-108973500D01*
X147933148Y-109008148D01*
X147898500Y-109022500D01*
X147601499Y-109022500D01*
X147566851Y-109008148D01*
X147552499Y-108973500D01*
X147552499Y-108764170D01*
X147541809Y-108690796D01*
X147541809Y-108690795D01*
X147517446Y-108640961D01*
X147486476Y-108577610D01*
X147397390Y-108488524D01*
X147340797Y-108460857D01*
X147284207Y-108433192D01*
X147284205Y-108433191D01*
X147210828Y-108422500D01*
X146614170Y-108422500D01*
X146537031Y-108433739D01*
X146536849Y-108432494D01*
X146504269Y-108429451D01*
X146492502Y-108420769D01*
X145741851Y-107670118D01*
X145727499Y-107635470D01*
X145727499Y-106764170D01*
X145716809Y-106690796D01*
X145716809Y-106690795D01*
X145698364Y-106653067D01*
X145661476Y-106577610D01*
X145572390Y-106488524D01*
X145515797Y-106460857D01*
X145459207Y-106433192D01*
X145459205Y-106433191D01*
X145385828Y-106422500D01*
X144789170Y-106422500D01*
X144715796Y-106433190D01*
X144715795Y-106433190D01*
X144602612Y-106488523D01*
X144602608Y-106488525D01*
X144513525Y-106577608D01*
X144513523Y-106577612D01*
X144458192Y-106690792D01*
X144458191Y-106690794D01*
X144447500Y-106764171D01*
X144447500Y-107735829D01*
X144458190Y-107809203D01*
X144458190Y-107809204D01*
X144495918Y-107886377D01*
X144513524Y-107922390D01*
X144602610Y-108011476D01*
X144715796Y-108066809D01*
X144789173Y-108077500D01*
X145385826Y-108077499D01*
X145385829Y-108077499D01*
X145433566Y-108070544D01*
X145459204Y-108066809D01*
X145459204Y-108066808D01*
X145462970Y-108066260D01*
X145463151Y-108067507D01*
X145495721Y-108070544D01*
X145507497Y-108079230D01*
X146210548Y-108782281D01*
X146224900Y-108816929D01*
X146210548Y-108851577D01*
X146175900Y-108865929D01*
X146151400Y-108859364D01*
X146138011Y-108851633D01*
X146138008Y-108851632D01*
X146029284Y-108822500D01*
X146029281Y-108822500D01*
X145916719Y-108822500D01*
X145916716Y-108822500D01*
X145807991Y-108851632D01*
X145807990Y-108851633D01*
X145800998Y-108855670D01*
X145763815Y-108860564D01*
X145734063Y-108837733D01*
X145727499Y-108813234D01*
X145727499Y-108764170D01*
X145716809Y-108690796D01*
X145716809Y-108690795D01*
X145692446Y-108640961D01*
X145661476Y-108577610D01*
X145572390Y-108488524D01*
X145515797Y-108460857D01*
X145459207Y-108433192D01*
X145459205Y-108433191D01*
X145385828Y-108422500D01*
X144789170Y-108422500D01*
X144715796Y-108433190D01*
X144715795Y-108433190D01*
X144602612Y-108488523D01*
X144602608Y-108488525D01*
X144513525Y-108577608D01*
X144513523Y-108577612D01*
X144458192Y-108690792D01*
X144458191Y-108690794D01*
X144447500Y-108764171D01*
X144447500Y-109735829D01*
X144458190Y-109809203D01*
X144458190Y-109809204D01*
X144486803Y-109867731D01*
X144513524Y-109922390D01*
X144602610Y-110011476D01*
X144715796Y-110066809D01*
X144789173Y-110077500D01*
X145385826Y-110077499D01*
X145385829Y-110077499D01*
X145440859Y-110069481D01*
X145459204Y-110066809D01*
X145572390Y-110011476D01*
X145661476Y-109922390D01*
X145716809Y-109809204D01*
X145727500Y-109735827D01*
X145727499Y-109686764D01*
X145741850Y-109652117D01*
X145776498Y-109637765D01*
X145801000Y-109644330D01*
X145807991Y-109648367D01*
X145916715Y-109677499D01*
X145916716Y-109677500D01*
X145916719Y-109677500D01*
X146029284Y-109677500D01*
X146029284Y-109677499D01*
X146138009Y-109648367D01*
X146199001Y-109613152D01*
X146236181Y-109608257D01*
X146265935Y-109631087D01*
X146272500Y-109655587D01*
X146272500Y-109735829D01*
X146283190Y-109809203D01*
X146283190Y-109809204D01*
X146311803Y-109867731D01*
X146338524Y-109922390D01*
X146427610Y-110011476D01*
X146540796Y-110066809D01*
X146614173Y-110077500D01*
X147210826Y-110077499D01*
X147210829Y-110077499D01*
X147265859Y-110069481D01*
X147284204Y-110066809D01*
X147397390Y-110011476D01*
X147458539Y-109950326D01*
X147493185Y-109935976D01*
X147527833Y-109950327D01*
X147542185Y-109984976D01*
X147538455Y-110003727D01*
X147522501Y-110042243D01*
X147522500Y-110042249D01*
X147522500Y-110495338D01*
X147508148Y-110529986D01*
X147473500Y-110544338D01*
X147438852Y-110529986D01*
X147397391Y-110488525D01*
X147397390Y-110488524D01*
X147340797Y-110460857D01*
X147284207Y-110433192D01*
X147284205Y-110433191D01*
X147210828Y-110422500D01*
X146614170Y-110422500D01*
X146540796Y-110433190D01*
X146540795Y-110433190D01*
X146427612Y-110488523D01*
X146427608Y-110488525D01*
X146338525Y-110577608D01*
X146338523Y-110577612D01*
X146283192Y-110690792D01*
X146283191Y-110690794D01*
X146272500Y-110764171D01*
X146272500Y-110813233D01*
X146258148Y-110847881D01*
X146223500Y-110862233D01*
X146199003Y-110855670D01*
X146192011Y-110851633D01*
X146192008Y-110851632D01*
X146083284Y-110822500D01*
X146083281Y-110822500D01*
X145970719Y-110822500D01*
X145970716Y-110822500D01*
X145861991Y-110851632D01*
X145861989Y-110851633D01*
X145800999Y-110886847D01*
X145763817Y-110891742D01*
X145734064Y-110868912D01*
X145727499Y-110844412D01*
X145727499Y-110764170D01*
X145716809Y-110690796D01*
X145716809Y-110690795D01*
X145685896Y-110627562D01*
X145661476Y-110577610D01*
X145572390Y-110488524D01*
X145515797Y-110460857D01*
X145459207Y-110433192D01*
X145459205Y-110433191D01*
X145385829Y-110422500D01*
X145385827Y-110422500D01*
X145035177Y-110422500D01*
X145016426Y-110418770D01*
X145006486Y-110414653D01*
X144995254Y-110410000D01*
X144995253Y-110410000D01*
X144904747Y-110410000D01*
X144883569Y-110418771D01*
X144864821Y-110422500D01*
X144789170Y-110422500D01*
X144715796Y-110433190D01*
X144715795Y-110433190D01*
X144602612Y-110488523D01*
X144602608Y-110488525D01*
X144513525Y-110577608D01*
X144513523Y-110577612D01*
X144458192Y-110690792D01*
X144458191Y-110690794D01*
X144447500Y-110764171D01*
X144447500Y-111735829D01*
X144458190Y-111809203D01*
X144458190Y-111809204D01*
X144495521Y-111885564D01*
X144513524Y-111922390D01*
X144602610Y-112011476D01*
X144695020Y-112056652D01*
X144719845Y-112084762D01*
X144722500Y-112100673D01*
X144722500Y-112860541D01*
X144708148Y-112895189D01*
X144683060Y-112908599D01*
X144668858Y-112911424D01*
X144589469Y-112964469D01*
X144536423Y-113043859D01*
X144522500Y-113113856D01*
X144522500Y-113386143D01*
X144536423Y-113456140D01*
X144589469Y-113535530D01*
X144618721Y-113555075D01*
X144668857Y-113588575D01*
X144683059Y-113591399D01*
X144714241Y-113612234D01*
X144722500Y-113639458D01*
X144722500Y-114860541D01*
X144708148Y-114895189D01*
X144683060Y-114908599D01*
X144668858Y-114911424D01*
X144589469Y-114964469D01*
X144565246Y-115000723D01*
X144534063Y-115021558D01*
X144524504Y-115022500D01*
X144239746Y-115022500D01*
X144166775Y-115052727D01*
X144156131Y-115057135D01*
X144156130Y-115057136D01*
X142681132Y-116532136D01*
X142630120Y-116583148D01*
X142595472Y-116597500D01*
X142249201Y-116597500D01*
X142224952Y-116600313D01*
X142125769Y-116644108D01*
X142049108Y-116720769D01*
X142021325Y-116783691D01*
X141994200Y-116809589D01*
X141956707Y-116808723D01*
X141930809Y-116781598D01*
X141927500Y-116763898D01*
X141927500Y-114955630D01*
X141931675Y-114935838D01*
X141932423Y-114934143D01*
X141949687Y-114895046D01*
X141952500Y-114870798D01*
X141952500Y-113889202D01*
X141949687Y-113864954D01*
X141905893Y-113765772D01*
X141905891Y-113765770D01*
X141905891Y-113765769D01*
X141829230Y-113689108D01*
X141730047Y-113645313D01*
X141705798Y-113642500D01*
X141294202Y-113642500D01*
X141294201Y-113642500D01*
X141269952Y-113645313D01*
X141170769Y-113689108D01*
X141094108Y-113765769D01*
X141050313Y-113864952D01*
X141047500Y-113889201D01*
X139427500Y-113889201D01*
X139427500Y-113183716D01*
X139427499Y-113183715D01*
X139398367Y-113074991D01*
X139398366Y-113074988D01*
X139342088Y-112977514D01*
X139342087Y-112977513D01*
X139342085Y-112977509D01*
X139308291Y-112943715D01*
X140072500Y-112943715D01*
X140072500Y-113056284D01*
X140101632Y-113165008D01*
X140101633Y-113165011D01*
X140157911Y-113262485D01*
X140157913Y-113262487D01*
X140157915Y-113262491D01*
X140237509Y-113342085D01*
X140237513Y-113342087D01*
X140237514Y-113342088D01*
X140334988Y-113398366D01*
X140334991Y-113398367D01*
X140443715Y-113427499D01*
X140443716Y-113427500D01*
X140443719Y-113427500D01*
X140556284Y-113427500D01*
X140556284Y-113427499D01*
X140665009Y-113398367D01*
X140762491Y-113342085D01*
X140842085Y-113262491D01*
X140898367Y-113165009D01*
X140927499Y-113056284D01*
X140927500Y-113056284D01*
X140927500Y-112943716D01*
X140927499Y-112943715D01*
X140898367Y-112834991D01*
X140898366Y-112834988D01*
X140842088Y-112737514D01*
X140842087Y-112737513D01*
X140842085Y-112737509D01*
X140762491Y-112657915D01*
X140762487Y-112657913D01*
X140762485Y-112657911D01*
X140751998Y-112651856D01*
X140747967Y-112646603D01*
X140741852Y-112644070D01*
X140736956Y-112632252D01*
X140729169Y-112622102D01*
X140727500Y-112609422D01*
X140727500Y-112544427D01*
X140741852Y-112509779D01*
X140770853Y-112495753D01*
X140780046Y-112494687D01*
X140879228Y-112450893D01*
X140955893Y-112374228D01*
X140999687Y-112275046D01*
X141002500Y-112250798D01*
X141002500Y-111269202D01*
X140999687Y-111244954D01*
X140955893Y-111145772D01*
X140955891Y-111145770D01*
X140955891Y-111145769D01*
X140879230Y-111069108D01*
X140780047Y-111025313D01*
X140755798Y-111022500D01*
X140344202Y-111022500D01*
X140344201Y-111022500D01*
X140319952Y-111025313D01*
X140220769Y-111069108D01*
X140144108Y-111145769D01*
X140100313Y-111244952D01*
X140097500Y-111269201D01*
X140097500Y-112250798D01*
X140100313Y-112275047D01*
X140144108Y-112374230D01*
X140220771Y-112450893D01*
X140243291Y-112460836D01*
X140269191Y-112487959D01*
X140272500Y-112505661D01*
X140272500Y-112609422D01*
X140258148Y-112644070D01*
X140248002Y-112651856D01*
X140237514Y-112657911D01*
X140237505Y-112657918D01*
X140157918Y-112737505D01*
X140157911Y-112737514D01*
X140101633Y-112834988D01*
X140101632Y-112834991D01*
X140072500Y-112943715D01*
X139308291Y-112943715D01*
X139262491Y-112897915D01*
X137916852Y-111552276D01*
X137902500Y-111517628D01*
X137902500Y-111269204D01*
X137902500Y-111269202D01*
X137899687Y-111244954D01*
X137855893Y-111145772D01*
X137855891Y-111145770D01*
X137855891Y-111145769D01*
X137779230Y-111069108D01*
X137680047Y-111025313D01*
X137655798Y-111022500D01*
X137244202Y-111022500D01*
X137244201Y-111022500D01*
X137219952Y-111025313D01*
X137120769Y-111069108D01*
X137044108Y-111145769D01*
X137000313Y-111244952D01*
X136997500Y-111269201D01*
X136002500Y-111269201D01*
X135999687Y-111244954D01*
X135955893Y-111145772D01*
X135955891Y-111145770D01*
X135955891Y-111145769D01*
X135879230Y-111069108D01*
X135780047Y-111025313D01*
X135755798Y-111022500D01*
X135344202Y-111022500D01*
X135344201Y-111022500D01*
X135319951Y-111025313D01*
X135272335Y-111046338D01*
X135234842Y-111047204D01*
X135217895Y-111036161D01*
X134988871Y-110807137D01*
X134988869Y-110807136D01*
X134988868Y-110807135D01*
X134931061Y-110783190D01*
X134905254Y-110772500D01*
X134905253Y-110772500D01*
X133596091Y-110772500D01*
X133561443Y-110758148D01*
X133547603Y-110730564D01*
X133541809Y-110690796D01*
X133541809Y-110690795D01*
X133510896Y-110627562D01*
X133486476Y-110577610D01*
X133397390Y-110488524D01*
X133340797Y-110460857D01*
X133284207Y-110433192D01*
X133284205Y-110433191D01*
X133210828Y-110422500D01*
X132614170Y-110422500D01*
X132540796Y-110433190D01*
X132540795Y-110433190D01*
X132427612Y-110488523D01*
X132427608Y-110488525D01*
X132338525Y-110577608D01*
X132338522Y-110577612D01*
X132320521Y-110614435D01*
X132292410Y-110639259D01*
X132254979Y-110636935D01*
X132230155Y-110608824D01*
X132227500Y-110592914D01*
X132227500Y-110117249D01*
X132227499Y-110117245D01*
X132211036Y-110077500D01*
X132211036Y-110077499D01*
X132206607Y-110066807D01*
X132192866Y-110033632D01*
X132192865Y-110033631D01*
X132192864Y-110033629D01*
X131986733Y-109827499D01*
X131916999Y-109757766D01*
X131902648Y-109723119D01*
X131917000Y-109688471D01*
X131951648Y-109674119D01*
X131964330Y-109675789D01*
X131970715Y-109677499D01*
X131970716Y-109677500D01*
X131970719Y-109677500D01*
X132083284Y-109677500D01*
X132083284Y-109677499D01*
X132192009Y-109648367D01*
X132198998Y-109644331D01*
X132236178Y-109639434D01*
X132265933Y-109662261D01*
X132272500Y-109686764D01*
X132272500Y-109735829D01*
X132283190Y-109809203D01*
X132283190Y-109809204D01*
X132311803Y-109867731D01*
X132338524Y-109922390D01*
X132427610Y-110011476D01*
X132540796Y-110066809D01*
X132614173Y-110077500D01*
X133210826Y-110077499D01*
X133210829Y-110077499D01*
X133265859Y-110069481D01*
X133284204Y-110066809D01*
X133397390Y-110011476D01*
X133486476Y-109922390D01*
X133541809Y-109809204D01*
X133552500Y-109735827D01*
X133552499Y-108764174D01*
X133552499Y-108764171D01*
X133552499Y-108764170D01*
X133541809Y-108690796D01*
X133541809Y-108690795D01*
X133517446Y-108640961D01*
X133486476Y-108577610D01*
X133397390Y-108488524D01*
X133340797Y-108460857D01*
X133284207Y-108433192D01*
X133284205Y-108433191D01*
X133210828Y-108422500D01*
X132614170Y-108422500D01*
X132540796Y-108433190D01*
X132540795Y-108433190D01*
X132427612Y-108488523D01*
X132427608Y-108488525D01*
X132338525Y-108577608D01*
X132338523Y-108577612D01*
X132283192Y-108690792D01*
X132283191Y-108690794D01*
X132272500Y-108764171D01*
X132272500Y-108813233D01*
X132258148Y-108847881D01*
X132223500Y-108862233D01*
X132199003Y-108855670D01*
X132192011Y-108851633D01*
X132192008Y-108851632D01*
X132083284Y-108822500D01*
X132083281Y-108822500D01*
X131970719Y-108822500D01*
X131970716Y-108822500D01*
X131861991Y-108851632D01*
X131861989Y-108851633D01*
X131800999Y-108886847D01*
X131763817Y-108891742D01*
X131734064Y-108868912D01*
X131727499Y-108844412D01*
X131727499Y-108764170D01*
X131716809Y-108690796D01*
X131716809Y-108690795D01*
X131692446Y-108640961D01*
X131661476Y-108577610D01*
X131572390Y-108488524D01*
X131515797Y-108460857D01*
X131459207Y-108433192D01*
X131459205Y-108433191D01*
X131385829Y-108422500D01*
X131385827Y-108422500D01*
X131364000Y-108422500D01*
X131329352Y-108408148D01*
X131315000Y-108373500D01*
X131315000Y-108126499D01*
X131329352Y-108091851D01*
X131364000Y-108077499D01*
X131385829Y-108077499D01*
X131440859Y-108069481D01*
X131459204Y-108066809D01*
X131572390Y-108011476D01*
X131661476Y-107922390D01*
X131716809Y-107809204D01*
X131727500Y-107735827D01*
X131727499Y-106764174D01*
X131727499Y-106764171D01*
X131727499Y-106764170D01*
X131716809Y-106690796D01*
X131716809Y-106690795D01*
X131698364Y-106653067D01*
X131661476Y-106577610D01*
X131572390Y-106488524D01*
X131515797Y-106460857D01*
X131459207Y-106433192D01*
X131459205Y-106433191D01*
X131385828Y-106422500D01*
X130789170Y-106422500D01*
X130715796Y-106433190D01*
X130715795Y-106433190D01*
X130602612Y-106488523D01*
X130602608Y-106488525D01*
X130513525Y-106577608D01*
X130513523Y-106577612D01*
X130458192Y-106690792D01*
X130458191Y-106690794D01*
X130447500Y-106764171D01*
X130447500Y-106973500D01*
X130433148Y-107008148D01*
X130398500Y-107022500D01*
X130101499Y-107022500D01*
X130066851Y-107008148D01*
X130052499Y-106973500D01*
X130052499Y-106764170D01*
X130041809Y-106690796D01*
X130041809Y-106690795D01*
X130023364Y-106653067D01*
X129986476Y-106577610D01*
X129897390Y-106488524D01*
X129840797Y-106460857D01*
X129784207Y-106433192D01*
X129784205Y-106433191D01*
X129710828Y-106422500D01*
X129114170Y-106422500D01*
X129040796Y-106433190D01*
X129040795Y-106433190D01*
X128927612Y-106488523D01*
X128927608Y-106488525D01*
X128838525Y-106577608D01*
X128838523Y-106577612D01*
X128783192Y-106690792D01*
X128783191Y-106690794D01*
X128772500Y-106764171D01*
X128772500Y-107735829D01*
X128783190Y-107809203D01*
X128783190Y-107809204D01*
X128820918Y-107886377D01*
X128838524Y-107922390D01*
X128927610Y-108011476D01*
X129040796Y-108066809D01*
X129114173Y-108077500D01*
X129135999Y-108077499D01*
X129170647Y-108091849D01*
X129185000Y-108126497D01*
X129185000Y-108373500D01*
X129170648Y-108408148D01*
X129136002Y-108422500D01*
X129114171Y-108422500D01*
X129040796Y-108433190D01*
X129040795Y-108433190D01*
X128927612Y-108488523D01*
X128927608Y-108488525D01*
X128838525Y-108577608D01*
X128838522Y-108577612D01*
X128808183Y-108639673D01*
X128780072Y-108664497D01*
X128742641Y-108662173D01*
X128738295Y-108659481D01*
X128738273Y-108659521D01*
X128638011Y-108601633D01*
X128638008Y-108601632D01*
X128529284Y-108572500D01*
X128529281Y-108572500D01*
X128416719Y-108572500D01*
X128416716Y-108572500D01*
X128307993Y-108601632D01*
X128248349Y-108636067D01*
X128211166Y-108640961D01*
X128181413Y-108618131D01*
X128179841Y-108615178D01*
X128161476Y-108577610D01*
X128072390Y-108488524D01*
X128015797Y-108460857D01*
X127959207Y-108433192D01*
X127959205Y-108433191D01*
X127885828Y-108422500D01*
X127289170Y-108422500D01*
X127215796Y-108433190D01*
X127215795Y-108433190D01*
X127102612Y-108488523D01*
X127102608Y-108488525D01*
X127013525Y-108577608D01*
X127013523Y-108577612D01*
X126958192Y-108690792D01*
X126958191Y-108690794D01*
X126947500Y-108764171D01*
X126947500Y-109735829D01*
X126958190Y-109809203D01*
X126958190Y-109809204D01*
X126986803Y-109867731D01*
X127013524Y-109922390D01*
X127102610Y-110011476D01*
X127215796Y-110066809D01*
X127289173Y-110077500D01*
X127885826Y-110077499D01*
X127885829Y-110077499D01*
X127940859Y-110069481D01*
X127959204Y-110066809D01*
X128072390Y-110011476D01*
X128161476Y-109922390D01*
X128216809Y-109809204D01*
X128227500Y-109735827D01*
X128227499Y-109436764D01*
X128241851Y-109402117D01*
X128276499Y-109387765D01*
X128301000Y-109394330D01*
X128307991Y-109398367D01*
X128416715Y-109427499D01*
X128416716Y-109427500D01*
X128416719Y-109427500D01*
X128529284Y-109427500D01*
X128529284Y-109427499D01*
X128638009Y-109398367D01*
X128699001Y-109363152D01*
X128736181Y-109358257D01*
X128765935Y-109381087D01*
X128772500Y-109405588D01*
X128772500Y-109735829D01*
X128783190Y-109809203D01*
X128783190Y-109809204D01*
X128811803Y-109867731D01*
X128838524Y-109922390D01*
X128927610Y-110011476D01*
X129040796Y-110066809D01*
X129114173Y-110077500D01*
X129710826Y-110077499D01*
X129710829Y-110077499D01*
X129765859Y-110069481D01*
X129784204Y-110066809D01*
X129897390Y-110011476D01*
X129986476Y-109922390D01*
X130041809Y-109809204D01*
X130052500Y-109735827D01*
X130052500Y-109526500D01*
X130066852Y-109491852D01*
X130101500Y-109477500D01*
X130398501Y-109477500D01*
X130433149Y-109491852D01*
X130447501Y-109526500D01*
X130447501Y-109735829D01*
X130458190Y-109809203D01*
X130458190Y-109809204D01*
X130486803Y-109867731D01*
X130513524Y-109922390D01*
X130602610Y-110011476D01*
X130715796Y-110066809D01*
X130789173Y-110077500D01*
X131385826Y-110077499D01*
X131385829Y-110077499D01*
X131429852Y-110071085D01*
X131459204Y-110066809D01*
X131510636Y-110041664D01*
X131548065Y-110039341D01*
X131566804Y-110051038D01*
X131758148Y-110242381D01*
X131772500Y-110277029D01*
X131772500Y-110592914D01*
X131758148Y-110627562D01*
X131723500Y-110641914D01*
X131688852Y-110627562D01*
X131679479Y-110614435D01*
X131661477Y-110577612D01*
X131661476Y-110577611D01*
X131661476Y-110577610D01*
X131572390Y-110488524D01*
X131515797Y-110460857D01*
X131459207Y-110433192D01*
X131459205Y-110433191D01*
X131385828Y-110422500D01*
X130789170Y-110422500D01*
X130715796Y-110433190D01*
X130715795Y-110433190D01*
X130602612Y-110488523D01*
X130602608Y-110488525D01*
X130513525Y-110577608D01*
X130513523Y-110577612D01*
X130458192Y-110690792D01*
X130458191Y-110690794D01*
X130452397Y-110730565D01*
X130433200Y-110762782D01*
X130403909Y-110772500D01*
X130204745Y-110772500D01*
X130121131Y-110807135D01*
X130069776Y-110858488D01*
X130059630Y-110866274D01*
X129987512Y-110907913D01*
X129987505Y-110907918D01*
X129907918Y-110987505D01*
X129907911Y-110987514D01*
X129851633Y-111084988D01*
X129851632Y-111084991D01*
X129822500Y-111193715D01*
X129822500Y-111306284D01*
X129851632Y-111415008D01*
X129851633Y-111415011D01*
X129907911Y-111512485D01*
X129907913Y-111512487D01*
X129907915Y-111512491D01*
X129987509Y-111592085D01*
X129987513Y-111592087D01*
X129987514Y-111592088D01*
X130084988Y-111648366D01*
X130084991Y-111648367D01*
X130193715Y-111677499D01*
X130193716Y-111677500D01*
X130193719Y-111677500D01*
X130306283Y-111677500D01*
X130337783Y-111669059D01*
X130385819Y-111656188D01*
X130423000Y-111661082D01*
X130445830Y-111690835D01*
X130447500Y-111703517D01*
X130447500Y-111735828D01*
X130458190Y-111809203D01*
X130458190Y-111809204D01*
X130495521Y-111885564D01*
X130513524Y-111922390D01*
X130602610Y-112011476D01*
X130715796Y-112066809D01*
X130789173Y-112077500D01*
X131385826Y-112077499D01*
X131388858Y-112077057D01*
X131425214Y-112086262D01*
X131444413Y-112118478D01*
X131435208Y-112154834D01*
X131430573Y-112160193D01*
X130982619Y-112608148D01*
X130947971Y-112622500D01*
X130308568Y-112622500D01*
X130308565Y-112622500D01*
X130308550Y-112622501D01*
X130285367Y-112625190D01*
X130190457Y-112667097D01*
X130190453Y-112667100D01*
X130117100Y-112740453D01*
X130117097Y-112740457D01*
X130075190Y-112835367D01*
X130072501Y-112858550D01*
X130072500Y-112858570D01*
X130072500Y-113241429D01*
X130072501Y-113241449D01*
X130075190Y-113264632D01*
X130117097Y-113359542D01*
X130117100Y-113359546D01*
X130190453Y-113432899D01*
X130190457Y-113432902D01*
X130190458Y-113432903D01*
X130237912Y-113453855D01*
X130285367Y-113474809D01*
X130308550Y-113477498D01*
X130308554Y-113477498D01*
X130308568Y-113477500D01*
X130308571Y-113477500D01*
X131416429Y-113477500D01*
X131416432Y-113477500D01*
X131417252Y-113477404D01*
X131439632Y-113474809D01*
X131449568Y-113470421D01*
X131534542Y-113432903D01*
X131607903Y-113359542D01*
X131649808Y-113264634D01*
X131649807Y-113264634D01*
X131649809Y-113264632D01*
X131652498Y-113241449D01*
X131652500Y-113241429D01*
X131652500Y-112858570D01*
X131652498Y-112858550D01*
X131649809Y-112835367D01*
X131618373Y-112764171D01*
X131607903Y-112740458D01*
X131607902Y-112740457D01*
X131607899Y-112740453D01*
X131585487Y-112718041D01*
X131571135Y-112683393D01*
X131585486Y-112648746D01*
X132192866Y-112041368D01*
X132227500Y-111957753D01*
X132227500Y-111907085D01*
X132241852Y-111872437D01*
X132276500Y-111858085D01*
X132311148Y-111872437D01*
X132320520Y-111885563D01*
X132338524Y-111922390D01*
X132427610Y-112011476D01*
X132540796Y-112066809D01*
X132614173Y-112077500D01*
X133210826Y-112077499D01*
X133210829Y-112077499D01*
X133265859Y-112069481D01*
X133284204Y-112066809D01*
X133397390Y-112011476D01*
X133486476Y-111922390D01*
X133541809Y-111809204D01*
X133552500Y-111735827D01*
X133552499Y-111276499D01*
X133566851Y-111241852D01*
X133601499Y-111227500D01*
X134745471Y-111227500D01*
X134780119Y-111241852D01*
X135083148Y-111544881D01*
X135097500Y-111579529D01*
X135097500Y-112250798D01*
X135100313Y-112275047D01*
X135144108Y-112374230D01*
X135220770Y-112450892D01*
X135220771Y-112450892D01*
X135220772Y-112450893D01*
X135293292Y-112482914D01*
X135319191Y-112510038D01*
X135322500Y-112527739D01*
X135322500Y-113582175D01*
X135308148Y-113616823D01*
X134998871Y-113926099D01*
X134964223Y-113940451D01*
X134929575Y-113926099D01*
X134916893Y-113904133D01*
X134912892Y-113889202D01*
X134898367Y-113834991D01*
X134898366Y-113834988D01*
X134842088Y-113737514D01*
X134842087Y-113737513D01*
X134842085Y-113737509D01*
X134762491Y-113657915D01*
X134762487Y-113657913D01*
X134762485Y-113657911D01*
X134665011Y-113601633D01*
X134665008Y-113601632D01*
X134556284Y-113572500D01*
X134556281Y-113572500D01*
X134443719Y-113572500D01*
X134443716Y-113572500D01*
X134334991Y-113601632D01*
X134334988Y-113601633D01*
X134237514Y-113657911D01*
X134237505Y-113657918D01*
X134157917Y-113737506D01*
X134157915Y-113737508D01*
X134157915Y-113737509D01*
X134151857Y-113748001D01*
X134122104Y-113770831D01*
X134109423Y-113772500D01*
X133951056Y-113772500D01*
X133916408Y-113758148D01*
X133906231Y-113743292D01*
X133889828Y-113706143D01*
X133882903Y-113690458D01*
X133882900Y-113690455D01*
X133882899Y-113690453D01*
X133809546Y-113617100D01*
X133809542Y-113617097D01*
X133714632Y-113575190D01*
X133701549Y-113573673D01*
X133668785Y-113555424D01*
X133658523Y-113519353D01*
X133676772Y-113486589D01*
X133701549Y-113476327D01*
X133714632Y-113474809D01*
X133724568Y-113470421D01*
X133809542Y-113432903D01*
X133882903Y-113359542D01*
X133924808Y-113264634D01*
X133924807Y-113264634D01*
X133924809Y-113264632D01*
X133927498Y-113241449D01*
X133927500Y-113241429D01*
X133927500Y-112858570D01*
X133927498Y-112858550D01*
X133924809Y-112835367D01*
X133893373Y-112764171D01*
X133882903Y-112740458D01*
X133882902Y-112740457D01*
X133882899Y-112740453D01*
X133809546Y-112667100D01*
X133809542Y-112667097D01*
X133714632Y-112625190D01*
X133691449Y-112622501D01*
X133691434Y-112622500D01*
X133691432Y-112622500D01*
X132583568Y-112622500D01*
X132583565Y-112622500D01*
X132583550Y-112622501D01*
X132560367Y-112625190D01*
X132465457Y-112667097D01*
X132465453Y-112667100D01*
X132392100Y-112740453D01*
X132392097Y-112740457D01*
X132350190Y-112835367D01*
X132347501Y-112858550D01*
X132347500Y-112858570D01*
X132347500Y-113060470D01*
X132333148Y-113095118D01*
X131670119Y-113758148D01*
X131635471Y-113772500D01*
X129904745Y-113772500D01*
X129821130Y-113807136D01*
X129821128Y-113807137D01*
X128941991Y-114686274D01*
X128931677Y-114690546D01*
X128923320Y-114697948D01*
X128915035Y-114697439D01*
X128907343Y-114700626D01*
X128885886Y-114695678D01*
X128885556Y-114695517D01*
X128809204Y-114658191D01*
X128808803Y-114658132D01*
X128805043Y-114656301D01*
X128794901Y-114644850D01*
X128783143Y-114635077D01*
X128781941Y-114630217D01*
X128780178Y-114628226D01*
X128780428Y-114624095D01*
X128777500Y-114612249D01*
X128777500Y-113889458D01*
X128791852Y-113854810D01*
X128816939Y-113841400D01*
X128831143Y-113838575D01*
X128910530Y-113785530D01*
X128963575Y-113706143D01*
X128967430Y-113686766D01*
X128977499Y-113636143D01*
X128977500Y-113636138D01*
X128977500Y-113363862D01*
X128977499Y-113363856D01*
X128963576Y-113293859D01*
X128910530Y-113214469D01*
X128831140Y-113161423D01*
X128761143Y-113147500D01*
X128761138Y-113147500D01*
X128338862Y-113147500D01*
X128338856Y-113147500D01*
X128268859Y-113161423D01*
X128189469Y-113214469D01*
X128136423Y-113293859D01*
X128122500Y-113363856D01*
X128122500Y-113636143D01*
X128136423Y-113706140D01*
X128189469Y-113785530D01*
X128221267Y-113806776D01*
X128268857Y-113838575D01*
X128283059Y-113841399D01*
X128314241Y-113862234D01*
X128322500Y-113889458D01*
X128322500Y-114598500D01*
X128308148Y-114633148D01*
X128273500Y-114647500D01*
X128164170Y-114647500D01*
X128090796Y-114658190D01*
X128090795Y-114658190D01*
X127977612Y-114713523D01*
X127977608Y-114713525D01*
X127888525Y-114802608D01*
X127888523Y-114802612D01*
X127833192Y-114915792D01*
X127833191Y-114915794D01*
X127822500Y-114989171D01*
X127822500Y-115107690D01*
X127808148Y-115142338D01*
X127773500Y-115156690D01*
X127749000Y-115150125D01*
X127665011Y-115101633D01*
X127665008Y-115101632D01*
X127556284Y-115072500D01*
X127556281Y-115072500D01*
X127443719Y-115072500D01*
X127443716Y-115072500D01*
X127334991Y-115101632D01*
X127334988Y-115101633D01*
X127250999Y-115150126D01*
X127213817Y-115155021D01*
X127184064Y-115132191D01*
X127177499Y-115107691D01*
X127177499Y-114989170D01*
X127166809Y-114915796D01*
X127166809Y-114915795D01*
X127144809Y-114870795D01*
X127111476Y-114802610D01*
X127022390Y-114713524D01*
X126938474Y-114672500D01*
X126909207Y-114658192D01*
X126909205Y-114658191D01*
X126835828Y-114647500D01*
X126264170Y-114647500D01*
X126190796Y-114658190D01*
X126190795Y-114658190D01*
X126077612Y-114713523D01*
X126077608Y-114713525D01*
X125988525Y-114802608D01*
X125988523Y-114802612D01*
X125933192Y-114915792D01*
X125933191Y-114915794D01*
X125922500Y-114989171D01*
X125302159Y-114989171D01*
X125316809Y-114959204D01*
X125327500Y-114885827D01*
X125327499Y-114289174D01*
X125327499Y-114289171D01*
X125327499Y-114289170D01*
X125316809Y-114215796D01*
X125316809Y-114215795D01*
X125295533Y-114172276D01*
X125261476Y-114102610D01*
X125172390Y-114013524D01*
X125115797Y-113985857D01*
X125059207Y-113958192D01*
X125059205Y-113958191D01*
X124985828Y-113947500D01*
X124014170Y-113947500D01*
X123940796Y-113958190D01*
X123940795Y-113958190D01*
X123827612Y-114013523D01*
X123827608Y-114013525D01*
X123738525Y-114102608D01*
X123738523Y-114102612D01*
X123683192Y-114215792D01*
X123683191Y-114215794D01*
X123672500Y-114289171D01*
X123672500Y-114311000D01*
X123658148Y-114345648D01*
X123623500Y-114360000D01*
X123376499Y-114360000D01*
X123341851Y-114345648D01*
X123327499Y-114311000D01*
X123327499Y-114289170D01*
X123316809Y-114215796D01*
X123316809Y-114215795D01*
X123295533Y-114172276D01*
X123261476Y-114102610D01*
X123172390Y-114013524D01*
X123115797Y-113985857D01*
X123059207Y-113958192D01*
X123059205Y-113958191D01*
X122985829Y-113947500D01*
X122985827Y-113947500D01*
X122776500Y-113947500D01*
X122741852Y-113933148D01*
X122727500Y-113898500D01*
X122727500Y-112101499D01*
X122741852Y-112066851D01*
X122776500Y-112052499D01*
X122985829Y-112052499D01*
X123040859Y-112044481D01*
X123059204Y-112041809D01*
X123172390Y-111986476D01*
X123261476Y-111897390D01*
X123316809Y-111784204D01*
X123327500Y-111710827D01*
X123327499Y-111114174D01*
X123327499Y-111114171D01*
X123327499Y-111114170D01*
X123316809Y-111040796D01*
X123316809Y-111040795D01*
X123291665Y-110989363D01*
X123289341Y-110951932D01*
X123301036Y-110933196D01*
X123992381Y-110241850D01*
X124027025Y-110227499D01*
X124985826Y-110227499D01*
X124985829Y-110227499D01*
X125040859Y-110219481D01*
X125059204Y-110216809D01*
X125172390Y-110161476D01*
X125261476Y-110072390D01*
X125316809Y-109959204D01*
X125327500Y-109885827D01*
X125327499Y-109289174D01*
X125327499Y-109289171D01*
X125327499Y-109289170D01*
X125316809Y-109215796D01*
X125316809Y-109215795D01*
X125278592Y-109137622D01*
X125261476Y-109102610D01*
X125172390Y-109013524D01*
X125115797Y-108985857D01*
X125059207Y-108958192D01*
X125059205Y-108958191D01*
X124985828Y-108947500D01*
X124014170Y-108947500D01*
X123940796Y-108958190D01*
X123940795Y-108958190D01*
X123827612Y-109013523D01*
X123827608Y-109013525D01*
X123738525Y-109102608D01*
X123738523Y-109102612D01*
X123683192Y-109215792D01*
X123683191Y-109215794D01*
X123672500Y-109289171D01*
X123672500Y-109885824D01*
X123673082Y-109889814D01*
X123663872Y-109926169D01*
X123659241Y-109931523D01*
X122832617Y-110758148D01*
X122797969Y-110772500D01*
X122014170Y-110772500D01*
X121940796Y-110783190D01*
X121940795Y-110783190D01*
X121827612Y-110838523D01*
X121827608Y-110838525D01*
X121738525Y-110927608D01*
X121738523Y-110927612D01*
X121683192Y-111040792D01*
X121683191Y-111040794D01*
X121672500Y-111114171D01*
X118909615Y-111114171D01*
X118975516Y-110877772D01*
X118976377Y-110875005D01*
X119182317Y-110278214D01*
X119183365Y-110275454D01*
X119197065Y-110242381D01*
X119424943Y-109692234D01*
X119426158Y-109689537D01*
X119656822Y-109215796D01*
X119702508Y-109121964D01*
X119703862Y-109119383D01*
X120014012Y-108569475D01*
X120015518Y-108566985D01*
X120358284Y-108036835D01*
X120359963Y-108034405D01*
X120376039Y-108012558D01*
X120734089Y-107525952D01*
X120735911Y-107523627D01*
X120774353Y-107477500D01*
X121140073Y-107038668D01*
X121142010Y-107036481D01*
X121398346Y-106764171D01*
X126947500Y-106764171D01*
X126947500Y-107735829D01*
X126958190Y-107809203D01*
X126958190Y-107809204D01*
X126995918Y-107886377D01*
X127013524Y-107922390D01*
X127102610Y-108011476D01*
X127215796Y-108066809D01*
X127289173Y-108077500D01*
X127885826Y-108077499D01*
X127885829Y-108077499D01*
X127940859Y-108069481D01*
X127959204Y-108066809D01*
X128072390Y-108011476D01*
X128161476Y-107922390D01*
X128216809Y-107809204D01*
X128227500Y-107735827D01*
X128227499Y-106864528D01*
X128241850Y-106829882D01*
X128992503Y-106079228D01*
X129027150Y-106064877D01*
X129037015Y-106066367D01*
X129037031Y-106066260D01*
X129040794Y-106066808D01*
X129040796Y-106066809D01*
X129114173Y-106077500D01*
X129710826Y-106077499D01*
X129710829Y-106077499D01*
X129765859Y-106069481D01*
X129784204Y-106066809D01*
X129897390Y-106011476D01*
X129986476Y-105922390D01*
X130041809Y-105809204D01*
X130052500Y-105735827D01*
X130052500Y-105526500D01*
X130066852Y-105491852D01*
X130101500Y-105477500D01*
X130398501Y-105477500D01*
X130433149Y-105491852D01*
X130447501Y-105526500D01*
X130447501Y-105735829D01*
X130458190Y-105809203D01*
X130458190Y-105809204D01*
X130485212Y-105864477D01*
X130513524Y-105922390D01*
X130602610Y-106011476D01*
X130715796Y-106066809D01*
X130789173Y-106077500D01*
X131385826Y-106077499D01*
X131385829Y-106077499D01*
X131459200Y-106066810D01*
X131459201Y-106066809D01*
X131459204Y-106066809D01*
X131506439Y-106043716D01*
X131543868Y-106041393D01*
X131562606Y-106053090D01*
X132258148Y-106748631D01*
X132272500Y-106783279D01*
X132272500Y-107735829D01*
X132283190Y-107809203D01*
X132283190Y-107809204D01*
X132320918Y-107886377D01*
X132338524Y-107922390D01*
X132427610Y-108011476D01*
X132540796Y-108066809D01*
X132614173Y-108077500D01*
X133210826Y-108077499D01*
X133210829Y-108077499D01*
X133265859Y-108069481D01*
X133284204Y-108066809D01*
X133397390Y-108011476D01*
X133486476Y-107922390D01*
X133541809Y-107809204D01*
X133552500Y-107735827D01*
X133552499Y-106764174D01*
X133552499Y-106764171D01*
X133552499Y-106764170D01*
X133541809Y-106690796D01*
X133541809Y-106690795D01*
X133523364Y-106653067D01*
X133486476Y-106577610D01*
X133397390Y-106488524D01*
X133340797Y-106460857D01*
X133284207Y-106433192D01*
X133284205Y-106433191D01*
X133210828Y-106422500D01*
X132614171Y-106422500D01*
X132614170Y-106422501D01*
X132604731Y-106423876D01*
X132601114Y-106422960D01*
X132597668Y-106424388D01*
X132583375Y-106418467D01*
X132568376Y-106414669D01*
X132563020Y-106410036D01*
X132524897Y-106371913D01*
X134872500Y-106371913D01*
X134872500Y-106628086D01*
X134912573Y-106881104D01*
X134912574Y-106881107D01*
X134991736Y-107124743D01*
X135108037Y-107352996D01*
X135234095Y-107526500D01*
X135258613Y-107560246D01*
X135258617Y-107560251D01*
X135439749Y-107741383D01*
X135439753Y-107741386D01*
X135439755Y-107741388D01*
X135647004Y-107891963D01*
X135875257Y-108008264D01*
X136118893Y-108087426D01*
X136371913Y-108127500D01*
X136371914Y-108127500D01*
X136628086Y-108127500D01*
X136628087Y-108127500D01*
X136881107Y-108087426D01*
X137124743Y-108008264D01*
X137352996Y-107891963D01*
X137560245Y-107741388D01*
X137560248Y-107741384D01*
X137560251Y-107741383D01*
X137741383Y-107560251D01*
X137741384Y-107560248D01*
X137741388Y-107560245D01*
X137891963Y-107352996D01*
X138008264Y-107124743D01*
X138087426Y-106881107D01*
X138127500Y-106628087D01*
X138127500Y-106371913D01*
X138087426Y-106118893D01*
X138008264Y-105875257D01*
X137891963Y-105647004D01*
X137741388Y-105439755D01*
X137741386Y-105439753D01*
X137741383Y-105439749D01*
X137560251Y-105258617D01*
X137560246Y-105258613D01*
X137560245Y-105258612D01*
X137352996Y-105108037D01*
X137124743Y-104991736D01*
X137124742Y-104991735D01*
X137124741Y-104991735D01*
X137111516Y-104987438D01*
X139872500Y-104987438D01*
X139872500Y-108012561D01*
X139879897Y-108049746D01*
X139879897Y-108049747D01*
X139879898Y-108049748D01*
X139886990Y-108060361D01*
X139908077Y-108091922D01*
X139929165Y-108106012D01*
X139950252Y-108120102D01*
X139987442Y-108127500D01*
X141973500Y-108127500D01*
X142008148Y-108141852D01*
X142022500Y-108176500D01*
X142022500Y-111184369D01*
X142018325Y-111204162D01*
X142000313Y-111244952D01*
X141997500Y-111269201D01*
X141997500Y-112250798D01*
X142000313Y-112275047D01*
X142044108Y-112374230D01*
X142120769Y-112450891D01*
X142120770Y-112450891D01*
X142120772Y-112450893D01*
X142219954Y-112494687D01*
X142244202Y-112497500D01*
X142244205Y-112497500D01*
X142655795Y-112497500D01*
X142655798Y-112497500D01*
X142680046Y-112494687D01*
X142779228Y-112450893D01*
X142855893Y-112374228D01*
X142899687Y-112275046D01*
X142902500Y-112250798D01*
X142902500Y-111269202D01*
X142899687Y-111244954D01*
X142881674Y-111204160D01*
X142877500Y-111184369D01*
X142877500Y-108176500D01*
X142891852Y-108141852D01*
X142926500Y-108127500D01*
X143012558Y-108127500D01*
X143049748Y-108120102D01*
X143091922Y-108091922D01*
X143120102Y-108049748D01*
X143127500Y-108012558D01*
X143127500Y-104987442D01*
X143120102Y-104950252D01*
X143106012Y-104929165D01*
X143091922Y-104908077D01*
X143060361Y-104886990D01*
X143049748Y-104879898D01*
X143049747Y-104879897D01*
X143049746Y-104879897D01*
X143012561Y-104872500D01*
X143012558Y-104872500D01*
X139987442Y-104872500D01*
X139987438Y-104872500D01*
X139950253Y-104879897D01*
X139908077Y-104908077D01*
X139879897Y-104950253D01*
X139872500Y-104987438D01*
X137111516Y-104987438D01*
X136881107Y-104912574D01*
X136881104Y-104912573D01*
X136686738Y-104881789D01*
X136628087Y-104872500D01*
X136371913Y-104872500D01*
X136325210Y-104879897D01*
X136118895Y-104912573D01*
X136118892Y-104912574D01*
X135875258Y-104991735D01*
X135647004Y-105108037D01*
X135439753Y-105258613D01*
X135258613Y-105439753D01*
X135108037Y-105647004D01*
X134991735Y-105875258D01*
X134912574Y-106118892D01*
X134912573Y-106118895D01*
X134872500Y-106371913D01*
X132524897Y-106371913D01*
X131741851Y-105588867D01*
X131727499Y-105554219D01*
X131727499Y-104764171D01*
X146272500Y-104764171D01*
X146272500Y-105735829D01*
X146283190Y-105809203D01*
X146283190Y-105809204D01*
X146310212Y-105864477D01*
X146338524Y-105922390D01*
X146427610Y-106011476D01*
X146540796Y-106066809D01*
X146614173Y-106077500D01*
X146635999Y-106077499D01*
X146670647Y-106091849D01*
X146685000Y-106126497D01*
X146685000Y-106373500D01*
X146670648Y-106408148D01*
X146636002Y-106422500D01*
X146614171Y-106422500D01*
X146540796Y-106433190D01*
X146540795Y-106433190D01*
X146427612Y-106488523D01*
X146427608Y-106488525D01*
X146338525Y-106577608D01*
X146338523Y-106577612D01*
X146283192Y-106690792D01*
X146283191Y-106690794D01*
X146272500Y-106764171D01*
X146272500Y-107735829D01*
X146283190Y-107809203D01*
X146283190Y-107809204D01*
X146320918Y-107886377D01*
X146338524Y-107922390D01*
X146427610Y-108011476D01*
X146540796Y-108066809D01*
X146614173Y-108077500D01*
X147210826Y-108077499D01*
X147210829Y-108077499D01*
X147265859Y-108069481D01*
X147284204Y-108066809D01*
X147397390Y-108011476D01*
X147486476Y-107922390D01*
X147541809Y-107809204D01*
X147551690Y-107741386D01*
X147552500Y-107735828D01*
X147552500Y-107526500D01*
X147566852Y-107491852D01*
X147601500Y-107477500D01*
X147898501Y-107477500D01*
X147933149Y-107491852D01*
X147947501Y-107526500D01*
X147947501Y-107735829D01*
X147958190Y-107809203D01*
X147958190Y-107809204D01*
X147995918Y-107886377D01*
X148013524Y-107922390D01*
X148102610Y-108011476D01*
X148215796Y-108066809D01*
X148289173Y-108077500D01*
X148885826Y-108077499D01*
X148885829Y-108077499D01*
X148940859Y-108069481D01*
X148959204Y-108066809D01*
X149072390Y-108011476D01*
X149161476Y-107922390D01*
X149216809Y-107809204D01*
X149227500Y-107735827D01*
X149227499Y-106764174D01*
X149227499Y-106764171D01*
X149227499Y-106764170D01*
X149216809Y-106690796D01*
X149216809Y-106690795D01*
X149198364Y-106653067D01*
X149161476Y-106577610D01*
X149072390Y-106488524D01*
X149015797Y-106460857D01*
X148959207Y-106433192D01*
X148959205Y-106433191D01*
X148885829Y-106422500D01*
X148885827Y-106422500D01*
X148864000Y-106422500D01*
X148829352Y-106408148D01*
X148815000Y-106373500D01*
X148815000Y-106126499D01*
X148829352Y-106091851D01*
X148864000Y-106077499D01*
X148885829Y-106077499D01*
X148940859Y-106069481D01*
X148959204Y-106066809D01*
X149072390Y-106011476D01*
X149161476Y-105922390D01*
X149216809Y-105809204D01*
X149227500Y-105735827D01*
X149227499Y-104764174D01*
X149227499Y-104764171D01*
X149227499Y-104764170D01*
X149216809Y-104690796D01*
X149216809Y-104690795D01*
X149198364Y-104653067D01*
X149161476Y-104577610D01*
X149072390Y-104488524D01*
X149015797Y-104460857D01*
X148959207Y-104433192D01*
X148959205Y-104433191D01*
X148885828Y-104422500D01*
X148289170Y-104422500D01*
X148215796Y-104433190D01*
X148215795Y-104433190D01*
X148102612Y-104488523D01*
X148102608Y-104488525D01*
X148013525Y-104577608D01*
X148013523Y-104577612D01*
X147958192Y-104690792D01*
X147958191Y-104690794D01*
X147947500Y-104764171D01*
X147947500Y-104973500D01*
X147933148Y-105008148D01*
X147898500Y-105022500D01*
X147601499Y-105022500D01*
X147566851Y-105008148D01*
X147552499Y-104973500D01*
X147552499Y-104764170D01*
X147541809Y-104690796D01*
X147541809Y-104690795D01*
X147523364Y-104653067D01*
X147486476Y-104577610D01*
X147397390Y-104488524D01*
X147340797Y-104460857D01*
X147284207Y-104433192D01*
X147284205Y-104433191D01*
X147210828Y-104422500D01*
X146614170Y-104422500D01*
X146540796Y-104433190D01*
X146540795Y-104433190D01*
X146427612Y-104488523D01*
X146427608Y-104488525D01*
X146338525Y-104577608D01*
X146338523Y-104577612D01*
X146283192Y-104690792D01*
X146283191Y-104690794D01*
X146272500Y-104764171D01*
X131727499Y-104764171D01*
X131727499Y-104764170D01*
X131716809Y-104690796D01*
X131716809Y-104690795D01*
X131698364Y-104653067D01*
X131661476Y-104577610D01*
X131572390Y-104488524D01*
X131515797Y-104460857D01*
X131459207Y-104433192D01*
X131459205Y-104433191D01*
X131385828Y-104422500D01*
X130789170Y-104422500D01*
X130715796Y-104433190D01*
X130715795Y-104433190D01*
X130602612Y-104488523D01*
X130602608Y-104488525D01*
X130513525Y-104577608D01*
X130513523Y-104577612D01*
X130458192Y-104690792D01*
X130458191Y-104690794D01*
X130447500Y-104764171D01*
X130447500Y-104973500D01*
X130433148Y-105008148D01*
X130398500Y-105022500D01*
X130101499Y-105022500D01*
X130066851Y-105008148D01*
X130052499Y-104973500D01*
X130052499Y-104764170D01*
X130041809Y-104690796D01*
X130041809Y-104690795D01*
X130023364Y-104653067D01*
X129986476Y-104577610D01*
X129897390Y-104488524D01*
X129840797Y-104460857D01*
X129784207Y-104433192D01*
X129784205Y-104433191D01*
X129710828Y-104422500D01*
X129114170Y-104422500D01*
X129040796Y-104433190D01*
X129040795Y-104433190D01*
X128927612Y-104488523D01*
X128927608Y-104488525D01*
X128838525Y-104577608D01*
X128838523Y-104577612D01*
X128783192Y-104690792D01*
X128783191Y-104690794D01*
X128772500Y-104764171D01*
X128772500Y-105635469D01*
X128758148Y-105670117D01*
X128007496Y-106420769D01*
X127972848Y-106435121D01*
X127962984Y-106433632D01*
X127962969Y-106433740D01*
X127959205Y-106433191D01*
X127959204Y-106433191D01*
X127898785Y-106424388D01*
X127885828Y-106422500D01*
X127289170Y-106422500D01*
X127215796Y-106433190D01*
X127215795Y-106433190D01*
X127102612Y-106488523D01*
X127102608Y-106488525D01*
X127013525Y-106577608D01*
X127013523Y-106577612D01*
X126958192Y-106690792D01*
X126958191Y-106690794D01*
X126947500Y-106764171D01*
X121398346Y-106764171D01*
X121574721Y-106576805D01*
X121576810Y-106574717D01*
X122036481Y-106142010D01*
X122038668Y-106140073D01*
X122523631Y-105735907D01*
X122525957Y-105734086D01*
X123034410Y-105359959D01*
X123036841Y-105358281D01*
X123566985Y-105015518D01*
X123569475Y-105014012D01*
X124119383Y-104703862D01*
X124121964Y-104702508D01*
X124427429Y-104553777D01*
X124689537Y-104426158D01*
X124692235Y-104424943D01*
X125275462Y-104183361D01*
X125278214Y-104182317D01*
X125875005Y-103976377D01*
X125877772Y-103975516D01*
X126485886Y-103805991D01*
X126488725Y-103805291D01*
X127105981Y-103672790D01*
X127108873Y-103672260D01*
X127732966Y-103577274D01*
X127735889Y-103576919D01*
X128364592Y-103519789D01*
X128367514Y-103519611D01*
X128999272Y-103500522D01*
X129000752Y-103500500D01*
X129065892Y-103500500D01*
X148934108Y-103500500D01*
X148999248Y-103500500D01*
X149000728Y-103500522D01*
G37*
G04 #@! TD.AperFunction*
M02*
