M48
; DRILL file {KiCad 9.0.3} date 2025-08-23T22:57:15-0700
; FORMAT={-:-/ absolute / metric / decimal}
; #@! TF.CreationDate,2025-08-23T22:57:15-07:00
; #@! TF.GenerationSoftware,Kicad,Pcbnew,9.0.3
; #@! TF.FileFunction,Plated,1,2,PTH
FMAT,2
METRIC
; #@! TA.AperFunction,Plated,PTH,ViaDrill
T1C0.300
; #@! TA.AperFunction,Plated,PTH,ComponentDrill
T2C1.500
%
G90
G05
T1
X123.5Y-120.0
X125.75Y-116.75
X126.6Y-119.25
X127.5Y-115.5
X128.473Y-109.0
X129.6Y-117.0
X130.25Y-111.25
X131.0Y-115.75
X132.027Y-109.25
X134.25Y-118.0
X134.5Y-114.0
X140.5Y-113.0
X144.0Y-116.5
X145.973Y-109.25
X146.0Y-113.25
X146.027Y-111.25
X147.25Y-117.25
X147.25Y-121.0
X147.5Y-121.75
X149.473Y-111.25
X149.473Y-113.25
X149.527Y-109.25
X151.0Y-115.0
X151.0Y-117.0
X155.027Y-117.0
T2
X135.0Y-123.25
X136.5Y-106.5
X141.5Y-106.5
X143.0Y-123.25
M30
