G04 #@! TF.GenerationSoftware,KiCad,Pcbnew,9.0.3*
G04 #@! TF.CreationDate,2025-08-23T22:57:17-07:00*
G04 #@! TF.ProjectId,analog_bms,616e616c-6f67-45f6-926d-732e6b696361,rev?*
G04 #@! TF.SameCoordinates,Original*
G04 #@! TF.FileFunction,Legend,Top*
G04 #@! TF.FilePolarity,Positive*
%FSLAX46Y46*%
G04 Gerber Fmt 4.6, Leading zero omitted, Abs format (unit mm)*
G04 Created by KiCad (PCBNEW 9.0.3) date 2025-08-23 22:57:17*
%MOMM*%
%LPD*%
G01*
G04 APERTURE LIST*
%ADD10C,0.304800*%
%ADD11C,0.080000*%
%ADD12C,0.100000*%
%ADD13C,0.120000*%
%ADD14C,0.152400*%
G04 APERTURE END LIST*
D10*
X131919429Y-123608610D02*
X133080572Y-123608610D01*
X132500000Y-124189181D02*
X132500000Y-123028038D01*
D11*
X120428115Y-109104761D02*
X120390019Y-109028570D01*
X120390019Y-109028570D02*
X120390019Y-108876189D01*
X120390019Y-108876189D02*
X120428115Y-108799999D01*
X120428115Y-108799999D02*
X120466210Y-108761904D01*
X120466210Y-108761904D02*
X120542400Y-108723808D01*
X120542400Y-108723808D02*
X120770972Y-108723808D01*
X120770972Y-108723808D02*
X120847162Y-108761904D01*
X120847162Y-108761904D02*
X120885257Y-108799999D01*
X120885257Y-108799999D02*
X120923353Y-108876189D01*
X120923353Y-108876189D02*
X120923353Y-109028570D01*
X120923353Y-109028570D02*
X120885257Y-109104761D01*
X120390019Y-109447618D02*
X121190019Y-109447618D01*
X120694781Y-109523808D02*
X120390019Y-109752380D01*
X120923353Y-109752380D02*
X120618591Y-109447618D01*
X120390019Y-110438094D02*
X120809067Y-110438094D01*
X120809067Y-110438094D02*
X120885257Y-110399999D01*
X120885257Y-110399999D02*
X120923353Y-110323808D01*
X120923353Y-110323808D02*
X120923353Y-110171427D01*
X120923353Y-110171427D02*
X120885257Y-110095237D01*
X120428115Y-110438094D02*
X120390019Y-110361903D01*
X120390019Y-110361903D02*
X120390019Y-110171427D01*
X120390019Y-110171427D02*
X120428115Y-110095237D01*
X120428115Y-110095237D02*
X120504305Y-110057141D01*
X120504305Y-110057141D02*
X120580495Y-110057141D01*
X120580495Y-110057141D02*
X120656686Y-110095237D01*
X120656686Y-110095237D02*
X120694781Y-110171427D01*
X120694781Y-110171427D02*
X120694781Y-110361903D01*
X120694781Y-110361903D02*
X120732876Y-110438094D01*
X120390019Y-110933332D02*
X120428115Y-110857142D01*
X120428115Y-110857142D02*
X120504305Y-110819047D01*
X120504305Y-110819047D02*
X121190019Y-110819047D01*
X120390019Y-111238095D02*
X120923353Y-111238095D01*
X121190019Y-111238095D02*
X121151924Y-111199999D01*
X121151924Y-111199999D02*
X121113829Y-111238095D01*
X121113829Y-111238095D02*
X121151924Y-111276190D01*
X121151924Y-111276190D02*
X121190019Y-111238095D01*
X121190019Y-111238095D02*
X121113829Y-111238095D01*
X120923353Y-111504761D02*
X120923353Y-111809523D01*
X121190019Y-111619047D02*
X120504305Y-111619047D01*
X120504305Y-111619047D02*
X120428115Y-111657142D01*
X120428115Y-111657142D02*
X120390019Y-111733332D01*
X120390019Y-111733332D02*
X120390019Y-111809523D01*
X120390019Y-112076190D02*
X120923353Y-112076190D01*
X121190019Y-112076190D02*
X121151924Y-112038094D01*
X121151924Y-112038094D02*
X121113829Y-112076190D01*
X121113829Y-112076190D02*
X121151924Y-112114285D01*
X121151924Y-112114285D02*
X121190019Y-112076190D01*
X121190019Y-112076190D02*
X121113829Y-112076190D01*
X120923353Y-112457142D02*
X120390019Y-112457142D01*
X120847162Y-112457142D02*
X120885257Y-112495237D01*
X120885257Y-112495237D02*
X120923353Y-112571427D01*
X120923353Y-112571427D02*
X120923353Y-112685713D01*
X120923353Y-112685713D02*
X120885257Y-112761904D01*
X120885257Y-112761904D02*
X120809067Y-112799999D01*
X120809067Y-112799999D02*
X120390019Y-112799999D01*
X120466210Y-113180952D02*
X120428115Y-113219047D01*
X120428115Y-113219047D02*
X120390019Y-113180952D01*
X120390019Y-113180952D02*
X120428115Y-113142856D01*
X120428115Y-113142856D02*
X120466210Y-113180952D01*
X120466210Y-113180952D02*
X120390019Y-113180952D01*
X120923353Y-113904761D02*
X120275734Y-113904761D01*
X120275734Y-113904761D02*
X120199543Y-113866666D01*
X120199543Y-113866666D02*
X120161448Y-113828570D01*
X120161448Y-113828570D02*
X120123353Y-113752380D01*
X120123353Y-113752380D02*
X120123353Y-113638094D01*
X120123353Y-113638094D02*
X120161448Y-113561904D01*
X120428115Y-113904761D02*
X120390019Y-113828570D01*
X120390019Y-113828570D02*
X120390019Y-113676189D01*
X120390019Y-113676189D02*
X120428115Y-113599999D01*
X120428115Y-113599999D02*
X120466210Y-113561904D01*
X120466210Y-113561904D02*
X120542400Y-113523808D01*
X120542400Y-113523808D02*
X120770972Y-113523808D01*
X120770972Y-113523808D02*
X120847162Y-113561904D01*
X120847162Y-113561904D02*
X120885257Y-113599999D01*
X120885257Y-113599999D02*
X120923353Y-113676189D01*
X120923353Y-113676189D02*
X120923353Y-113828570D01*
X120923353Y-113828570D02*
X120885257Y-113904761D01*
X120390019Y-114285714D02*
X120923353Y-114285714D01*
X121190019Y-114285714D02*
X121151924Y-114247618D01*
X121151924Y-114247618D02*
X121113829Y-114285714D01*
X121113829Y-114285714D02*
X121151924Y-114323809D01*
X121151924Y-114323809D02*
X121190019Y-114285714D01*
X121190019Y-114285714D02*
X121113829Y-114285714D01*
X120923353Y-114552380D02*
X120923353Y-114857142D01*
X121190019Y-114666666D02*
X120504305Y-114666666D01*
X120504305Y-114666666D02*
X120428115Y-114704761D01*
X120428115Y-114704761D02*
X120390019Y-114780951D01*
X120390019Y-114780951D02*
X120390019Y-114857142D01*
X120390019Y-115123809D02*
X121190019Y-115123809D01*
X120390019Y-115466666D02*
X120809067Y-115466666D01*
X120809067Y-115466666D02*
X120885257Y-115428571D01*
X120885257Y-115428571D02*
X120923353Y-115352380D01*
X120923353Y-115352380D02*
X120923353Y-115238094D01*
X120923353Y-115238094D02*
X120885257Y-115161904D01*
X120885257Y-115161904D02*
X120847162Y-115123809D01*
X120923353Y-116190476D02*
X120390019Y-116190476D01*
X120923353Y-115847619D02*
X120504305Y-115847619D01*
X120504305Y-115847619D02*
X120428115Y-115885714D01*
X120428115Y-115885714D02*
X120390019Y-115961904D01*
X120390019Y-115961904D02*
X120390019Y-116076190D01*
X120390019Y-116076190D02*
X120428115Y-116152381D01*
X120428115Y-116152381D02*
X120466210Y-116190476D01*
X120390019Y-116571429D02*
X121190019Y-116571429D01*
X120885257Y-116571429D02*
X120923353Y-116647619D01*
X120923353Y-116647619D02*
X120923353Y-116800000D01*
X120923353Y-116800000D02*
X120885257Y-116876191D01*
X120885257Y-116876191D02*
X120847162Y-116914286D01*
X120847162Y-116914286D02*
X120770972Y-116952381D01*
X120770972Y-116952381D02*
X120542400Y-116952381D01*
X120542400Y-116952381D02*
X120466210Y-116914286D01*
X120466210Y-116914286D02*
X120428115Y-116876191D01*
X120428115Y-116876191D02*
X120390019Y-116800000D01*
X120390019Y-116800000D02*
X120390019Y-116647619D01*
X120390019Y-116647619D02*
X120428115Y-116571429D01*
X120466210Y-117295239D02*
X120428115Y-117333334D01*
X120428115Y-117333334D02*
X120390019Y-117295239D01*
X120390019Y-117295239D02*
X120428115Y-117257143D01*
X120428115Y-117257143D02*
X120466210Y-117295239D01*
X120466210Y-117295239D02*
X120390019Y-117295239D01*
X120390019Y-117676191D02*
X120923353Y-117676191D01*
X121190019Y-117676191D02*
X121151924Y-117638095D01*
X121151924Y-117638095D02*
X121113829Y-117676191D01*
X121113829Y-117676191D02*
X121151924Y-117714286D01*
X121151924Y-117714286D02*
X121190019Y-117676191D01*
X121190019Y-117676191D02*
X121113829Y-117676191D01*
X120390019Y-118171428D02*
X120428115Y-118095238D01*
X120428115Y-118095238D02*
X120466210Y-118057143D01*
X120466210Y-118057143D02*
X120542400Y-118019047D01*
X120542400Y-118019047D02*
X120770972Y-118019047D01*
X120770972Y-118019047D02*
X120847162Y-118057143D01*
X120847162Y-118057143D02*
X120885257Y-118095238D01*
X120885257Y-118095238D02*
X120923353Y-118171428D01*
X120923353Y-118171428D02*
X120923353Y-118285714D01*
X120923353Y-118285714D02*
X120885257Y-118361905D01*
X120885257Y-118361905D02*
X120847162Y-118400000D01*
X120847162Y-118400000D02*
X120770972Y-118438095D01*
X120770972Y-118438095D02*
X120542400Y-118438095D01*
X120542400Y-118438095D02*
X120466210Y-118400000D01*
X120466210Y-118400000D02*
X120428115Y-118361905D01*
X120428115Y-118361905D02*
X120390019Y-118285714D01*
X120390019Y-118285714D02*
X120390019Y-118171428D01*
X121228115Y-119352381D02*
X120199543Y-118666667D01*
X119102064Y-111295236D02*
X119521112Y-111295236D01*
X119521112Y-111295236D02*
X119597302Y-111257141D01*
X119597302Y-111257141D02*
X119635398Y-111180950D01*
X119635398Y-111180950D02*
X119635398Y-111028569D01*
X119635398Y-111028569D02*
X119597302Y-110952379D01*
X119140160Y-111295236D02*
X119102064Y-111219045D01*
X119102064Y-111219045D02*
X119102064Y-111028569D01*
X119102064Y-111028569D02*
X119140160Y-110952379D01*
X119140160Y-110952379D02*
X119216350Y-110914283D01*
X119216350Y-110914283D02*
X119292540Y-110914283D01*
X119292540Y-110914283D02*
X119368731Y-110952379D01*
X119368731Y-110952379D02*
X119406826Y-111028569D01*
X119406826Y-111028569D02*
X119406826Y-111219045D01*
X119406826Y-111219045D02*
X119444921Y-111295236D01*
X119635398Y-111676189D02*
X119102064Y-111676189D01*
X119559207Y-111676189D02*
X119597302Y-111714284D01*
X119597302Y-111714284D02*
X119635398Y-111790474D01*
X119635398Y-111790474D02*
X119635398Y-111904760D01*
X119635398Y-111904760D02*
X119597302Y-111980951D01*
X119597302Y-111980951D02*
X119521112Y-112019046D01*
X119521112Y-112019046D02*
X119102064Y-112019046D01*
X119102064Y-112742856D02*
X119521112Y-112742856D01*
X119521112Y-112742856D02*
X119597302Y-112704761D01*
X119597302Y-112704761D02*
X119635398Y-112628570D01*
X119635398Y-112628570D02*
X119635398Y-112476189D01*
X119635398Y-112476189D02*
X119597302Y-112399999D01*
X119140160Y-112742856D02*
X119102064Y-112666665D01*
X119102064Y-112666665D02*
X119102064Y-112476189D01*
X119102064Y-112476189D02*
X119140160Y-112399999D01*
X119140160Y-112399999D02*
X119216350Y-112361903D01*
X119216350Y-112361903D02*
X119292540Y-112361903D01*
X119292540Y-112361903D02*
X119368731Y-112399999D01*
X119368731Y-112399999D02*
X119406826Y-112476189D01*
X119406826Y-112476189D02*
X119406826Y-112666665D01*
X119406826Y-112666665D02*
X119444921Y-112742856D01*
X119102064Y-113238094D02*
X119140160Y-113161904D01*
X119140160Y-113161904D02*
X119216350Y-113123809D01*
X119216350Y-113123809D02*
X119902064Y-113123809D01*
X119102064Y-113657142D02*
X119140160Y-113580952D01*
X119140160Y-113580952D02*
X119178255Y-113542857D01*
X119178255Y-113542857D02*
X119254445Y-113504761D01*
X119254445Y-113504761D02*
X119483017Y-113504761D01*
X119483017Y-113504761D02*
X119559207Y-113542857D01*
X119559207Y-113542857D02*
X119597302Y-113580952D01*
X119597302Y-113580952D02*
X119635398Y-113657142D01*
X119635398Y-113657142D02*
X119635398Y-113771428D01*
X119635398Y-113771428D02*
X119597302Y-113847619D01*
X119597302Y-113847619D02*
X119559207Y-113885714D01*
X119559207Y-113885714D02*
X119483017Y-113923809D01*
X119483017Y-113923809D02*
X119254445Y-113923809D01*
X119254445Y-113923809D02*
X119178255Y-113885714D01*
X119178255Y-113885714D02*
X119140160Y-113847619D01*
X119140160Y-113847619D02*
X119102064Y-113771428D01*
X119102064Y-113771428D02*
X119102064Y-113657142D01*
X119635398Y-114609524D02*
X118987779Y-114609524D01*
X118987779Y-114609524D02*
X118911588Y-114571429D01*
X118911588Y-114571429D02*
X118873493Y-114533333D01*
X118873493Y-114533333D02*
X118835398Y-114457143D01*
X118835398Y-114457143D02*
X118835398Y-114342857D01*
X118835398Y-114342857D02*
X118873493Y-114266667D01*
X119140160Y-114609524D02*
X119102064Y-114533333D01*
X119102064Y-114533333D02*
X119102064Y-114380952D01*
X119102064Y-114380952D02*
X119140160Y-114304762D01*
X119140160Y-114304762D02*
X119178255Y-114266667D01*
X119178255Y-114266667D02*
X119254445Y-114228571D01*
X119254445Y-114228571D02*
X119483017Y-114228571D01*
X119483017Y-114228571D02*
X119559207Y-114266667D01*
X119559207Y-114266667D02*
X119597302Y-114304762D01*
X119597302Y-114304762D02*
X119635398Y-114380952D01*
X119635398Y-114380952D02*
X119635398Y-114533333D01*
X119635398Y-114533333D02*
X119597302Y-114609524D01*
X119102064Y-114990477D02*
X119902064Y-114990477D01*
X119597302Y-114990477D02*
X119635398Y-115066667D01*
X119635398Y-115066667D02*
X119635398Y-115219048D01*
X119635398Y-115219048D02*
X119597302Y-115295239D01*
X119597302Y-115295239D02*
X119559207Y-115333334D01*
X119559207Y-115333334D02*
X119483017Y-115371429D01*
X119483017Y-115371429D02*
X119254445Y-115371429D01*
X119254445Y-115371429D02*
X119178255Y-115333334D01*
X119178255Y-115333334D02*
X119140160Y-115295239D01*
X119140160Y-115295239D02*
X119102064Y-115219048D01*
X119102064Y-115219048D02*
X119102064Y-115066667D01*
X119102064Y-115066667D02*
X119140160Y-114990477D01*
X119102064Y-115714287D02*
X119635398Y-115714287D01*
X119559207Y-115714287D02*
X119597302Y-115752382D01*
X119597302Y-115752382D02*
X119635398Y-115828572D01*
X119635398Y-115828572D02*
X119635398Y-115942858D01*
X119635398Y-115942858D02*
X119597302Y-116019049D01*
X119597302Y-116019049D02*
X119521112Y-116057144D01*
X119521112Y-116057144D02*
X119102064Y-116057144D01*
X119521112Y-116057144D02*
X119597302Y-116095239D01*
X119597302Y-116095239D02*
X119635398Y-116171430D01*
X119635398Y-116171430D02*
X119635398Y-116285715D01*
X119635398Y-116285715D02*
X119597302Y-116361906D01*
X119597302Y-116361906D02*
X119521112Y-116400001D01*
X119521112Y-116400001D02*
X119102064Y-116400001D01*
X119140160Y-116742858D02*
X119102064Y-116819049D01*
X119102064Y-116819049D02*
X119102064Y-116971430D01*
X119102064Y-116971430D02*
X119140160Y-117047620D01*
X119140160Y-117047620D02*
X119216350Y-117085716D01*
X119216350Y-117085716D02*
X119254445Y-117085716D01*
X119254445Y-117085716D02*
X119330636Y-117047620D01*
X119330636Y-117047620D02*
X119368731Y-116971430D01*
X119368731Y-116971430D02*
X119368731Y-116857144D01*
X119368731Y-116857144D02*
X119406826Y-116780954D01*
X119406826Y-116780954D02*
X119483017Y-116742858D01*
X119483017Y-116742858D02*
X119521112Y-116742858D01*
X119521112Y-116742858D02*
X119597302Y-116780954D01*
X119597302Y-116780954D02*
X119635398Y-116857144D01*
X119635398Y-116857144D02*
X119635398Y-116971430D01*
X119635398Y-116971430D02*
X119597302Y-117047620D01*
D10*
X139419429Y-104108610D02*
X140580572Y-104108610D01*
X140000000Y-104689181D02*
X140000000Y-103528038D01*
X142419429Y-120858610D02*
X143580572Y-120858610D01*
X137419429Y-104108610D02*
X138580572Y-104108610D01*
D11*
X134915935Y-107514285D02*
X134534982Y-107780952D01*
X134915935Y-107971428D02*
X134115935Y-107971428D01*
X134115935Y-107971428D02*
X134115935Y-107666666D01*
X134115935Y-107666666D02*
X134154030Y-107590476D01*
X134154030Y-107590476D02*
X134192125Y-107552381D01*
X134192125Y-107552381D02*
X134268316Y-107514285D01*
X134268316Y-107514285D02*
X134382601Y-107514285D01*
X134382601Y-107514285D02*
X134458792Y-107552381D01*
X134458792Y-107552381D02*
X134496887Y-107590476D01*
X134496887Y-107590476D02*
X134534982Y-107666666D01*
X134534982Y-107666666D02*
X134534982Y-107971428D01*
X134915935Y-106752381D02*
X134915935Y-107209524D01*
X134915935Y-106980952D02*
X134115935Y-106980952D01*
X134115935Y-106980952D02*
X134230220Y-107057143D01*
X134230220Y-107057143D02*
X134306411Y-107133333D01*
X134306411Y-107133333D02*
X134344506Y-107209524D01*
X134915935Y-105990476D02*
X134915935Y-106447619D01*
X134915935Y-106219047D02*
X134115935Y-106219047D01*
X134115935Y-106219047D02*
X134230220Y-106295238D01*
X134230220Y-106295238D02*
X134306411Y-106371428D01*
X134306411Y-106371428D02*
X134344506Y-106447619D01*
X126909524Y-113865935D02*
X126909524Y-113065935D01*
X126909524Y-113065935D02*
X127100000Y-113065935D01*
X127100000Y-113065935D02*
X127214286Y-113104030D01*
X127214286Y-113104030D02*
X127290476Y-113180220D01*
X127290476Y-113180220D02*
X127328571Y-113256411D01*
X127328571Y-113256411D02*
X127366667Y-113408792D01*
X127366667Y-113408792D02*
X127366667Y-113523078D01*
X127366667Y-113523078D02*
X127328571Y-113675459D01*
X127328571Y-113675459D02*
X127290476Y-113751649D01*
X127290476Y-113751649D02*
X127214286Y-113827840D01*
X127214286Y-113827840D02*
X127100000Y-113865935D01*
X127100000Y-113865935D02*
X126909524Y-113865935D01*
X128052381Y-113332601D02*
X128052381Y-113865935D01*
X127861905Y-113027840D02*
X127671428Y-113599268D01*
X127671428Y-113599268D02*
X128166667Y-113599268D01*
X143865935Y-107264285D02*
X143484982Y-107530952D01*
X143865935Y-107721428D02*
X143065935Y-107721428D01*
X143065935Y-107721428D02*
X143065935Y-107416666D01*
X143065935Y-107416666D02*
X143104030Y-107340476D01*
X143104030Y-107340476D02*
X143142125Y-107302381D01*
X143142125Y-107302381D02*
X143218316Y-107264285D01*
X143218316Y-107264285D02*
X143332601Y-107264285D01*
X143332601Y-107264285D02*
X143408792Y-107302381D01*
X143408792Y-107302381D02*
X143446887Y-107340476D01*
X143446887Y-107340476D02*
X143484982Y-107416666D01*
X143484982Y-107416666D02*
X143484982Y-107721428D01*
X143142125Y-106959524D02*
X143104030Y-106921428D01*
X143104030Y-106921428D02*
X143065935Y-106845238D01*
X143065935Y-106845238D02*
X143065935Y-106654762D01*
X143065935Y-106654762D02*
X143104030Y-106578571D01*
X143104030Y-106578571D02*
X143142125Y-106540476D01*
X143142125Y-106540476D02*
X143218316Y-106502381D01*
X143218316Y-106502381D02*
X143294506Y-106502381D01*
X143294506Y-106502381D02*
X143408792Y-106540476D01*
X143408792Y-106540476D02*
X143865935Y-106997619D01*
X143865935Y-106997619D02*
X143865935Y-106502381D01*
X143065935Y-105816666D02*
X143065935Y-105969047D01*
X143065935Y-105969047D02*
X143104030Y-106045238D01*
X143104030Y-106045238D02*
X143142125Y-106083333D01*
X143142125Y-106083333D02*
X143256411Y-106159523D01*
X143256411Y-106159523D02*
X143408792Y-106197619D01*
X143408792Y-106197619D02*
X143713554Y-106197619D01*
X143713554Y-106197619D02*
X143789744Y-106159523D01*
X143789744Y-106159523D02*
X143827840Y-106121428D01*
X143827840Y-106121428D02*
X143865935Y-106045238D01*
X143865935Y-106045238D02*
X143865935Y-105892857D01*
X143865935Y-105892857D02*
X143827840Y-105816666D01*
X143827840Y-105816666D02*
X143789744Y-105778571D01*
X143789744Y-105778571D02*
X143713554Y-105740476D01*
X143713554Y-105740476D02*
X143523078Y-105740476D01*
X143523078Y-105740476D02*
X143446887Y-105778571D01*
X143446887Y-105778571D02*
X143408792Y-105816666D01*
X143408792Y-105816666D02*
X143370697Y-105892857D01*
X143370697Y-105892857D02*
X143370697Y-106045238D01*
X143370697Y-106045238D02*
X143408792Y-106121428D01*
X143408792Y-106121428D02*
X143446887Y-106159523D01*
X143446887Y-106159523D02*
X143523078Y-106197619D01*
X134616667Y-105365935D02*
X134350000Y-104984982D01*
X134159524Y-105365935D02*
X134159524Y-104565935D01*
X134159524Y-104565935D02*
X134464286Y-104565935D01*
X134464286Y-104565935D02*
X134540476Y-104604030D01*
X134540476Y-104604030D02*
X134578571Y-104642125D01*
X134578571Y-104642125D02*
X134616667Y-104718316D01*
X134616667Y-104718316D02*
X134616667Y-104832601D01*
X134616667Y-104832601D02*
X134578571Y-104908792D01*
X134578571Y-104908792D02*
X134540476Y-104946887D01*
X134540476Y-104946887D02*
X134464286Y-104984982D01*
X134464286Y-104984982D02*
X134159524Y-104984982D01*
X134997619Y-105365935D02*
X135150000Y-105365935D01*
X135150000Y-105365935D02*
X135226190Y-105327840D01*
X135226190Y-105327840D02*
X135264286Y-105289744D01*
X135264286Y-105289744D02*
X135340476Y-105175459D01*
X135340476Y-105175459D02*
X135378571Y-105023078D01*
X135378571Y-105023078D02*
X135378571Y-104718316D01*
X135378571Y-104718316D02*
X135340476Y-104642125D01*
X135340476Y-104642125D02*
X135302381Y-104604030D01*
X135302381Y-104604030D02*
X135226190Y-104565935D01*
X135226190Y-104565935D02*
X135073809Y-104565935D01*
X135073809Y-104565935D02*
X134997619Y-104604030D01*
X134997619Y-104604030D02*
X134959524Y-104642125D01*
X134959524Y-104642125D02*
X134921428Y-104718316D01*
X134921428Y-104718316D02*
X134921428Y-104908792D01*
X134921428Y-104908792D02*
X134959524Y-104984982D01*
X134959524Y-104984982D02*
X134997619Y-105023078D01*
X134997619Y-105023078D02*
X135073809Y-105061173D01*
X135073809Y-105061173D02*
X135226190Y-105061173D01*
X135226190Y-105061173D02*
X135302381Y-105023078D01*
X135302381Y-105023078D02*
X135340476Y-104984982D01*
X135340476Y-104984982D02*
X135378571Y-104908792D01*
X145409524Y-115615935D02*
X145409524Y-114815935D01*
X145409524Y-114815935D02*
X145600000Y-114815935D01*
X145600000Y-114815935D02*
X145714286Y-114854030D01*
X145714286Y-114854030D02*
X145790476Y-114930220D01*
X145790476Y-114930220D02*
X145828571Y-115006411D01*
X145828571Y-115006411D02*
X145866667Y-115158792D01*
X145866667Y-115158792D02*
X145866667Y-115273078D01*
X145866667Y-115273078D02*
X145828571Y-115425459D01*
X145828571Y-115425459D02*
X145790476Y-115501649D01*
X145790476Y-115501649D02*
X145714286Y-115577840D01*
X145714286Y-115577840D02*
X145600000Y-115615935D01*
X145600000Y-115615935D02*
X145409524Y-115615935D01*
X146171428Y-114892125D02*
X146209524Y-114854030D01*
X146209524Y-114854030D02*
X146285714Y-114815935D01*
X146285714Y-114815935D02*
X146476190Y-114815935D01*
X146476190Y-114815935D02*
X146552381Y-114854030D01*
X146552381Y-114854030D02*
X146590476Y-114892125D01*
X146590476Y-114892125D02*
X146628571Y-114968316D01*
X146628571Y-114968316D02*
X146628571Y-115044506D01*
X146628571Y-115044506D02*
X146590476Y-115158792D01*
X146590476Y-115158792D02*
X146133333Y-115615935D01*
X146133333Y-115615935D02*
X146628571Y-115615935D01*
X134735714Y-109365935D02*
X134469047Y-108984982D01*
X134278571Y-109365935D02*
X134278571Y-108565935D01*
X134278571Y-108565935D02*
X134583333Y-108565935D01*
X134583333Y-108565935D02*
X134659523Y-108604030D01*
X134659523Y-108604030D02*
X134697618Y-108642125D01*
X134697618Y-108642125D02*
X134735714Y-108718316D01*
X134735714Y-108718316D02*
X134735714Y-108832601D01*
X134735714Y-108832601D02*
X134697618Y-108908792D01*
X134697618Y-108908792D02*
X134659523Y-108946887D01*
X134659523Y-108946887D02*
X134583333Y-108984982D01*
X134583333Y-108984982D02*
X134278571Y-108984982D01*
X135497618Y-109365935D02*
X135040475Y-109365935D01*
X135269047Y-109365935D02*
X135269047Y-108565935D01*
X135269047Y-108565935D02*
X135192856Y-108680220D01*
X135192856Y-108680220D02*
X135116666Y-108756411D01*
X135116666Y-108756411D02*
X135040475Y-108794506D01*
X135764285Y-108565935D02*
X136259523Y-108565935D01*
X136259523Y-108565935D02*
X135992857Y-108870697D01*
X135992857Y-108870697D02*
X136107142Y-108870697D01*
X136107142Y-108870697D02*
X136183333Y-108908792D01*
X136183333Y-108908792D02*
X136221428Y-108946887D01*
X136221428Y-108946887D02*
X136259523Y-109023078D01*
X136259523Y-109023078D02*
X136259523Y-109213554D01*
X136259523Y-109213554D02*
X136221428Y-109289744D01*
X136221428Y-109289744D02*
X136183333Y-109327840D01*
X136183333Y-109327840D02*
X136107142Y-109365935D01*
X136107142Y-109365935D02*
X135878571Y-109365935D01*
X135878571Y-109365935D02*
X135802380Y-109327840D01*
X135802380Y-109327840D02*
X135764285Y-109289744D01*
X142235714Y-109365935D02*
X141969047Y-108984982D01*
X141778571Y-109365935D02*
X141778571Y-108565935D01*
X141778571Y-108565935D02*
X142083333Y-108565935D01*
X142083333Y-108565935D02*
X142159523Y-108604030D01*
X142159523Y-108604030D02*
X142197618Y-108642125D01*
X142197618Y-108642125D02*
X142235714Y-108718316D01*
X142235714Y-108718316D02*
X142235714Y-108832601D01*
X142235714Y-108832601D02*
X142197618Y-108908792D01*
X142197618Y-108908792D02*
X142159523Y-108946887D01*
X142159523Y-108946887D02*
X142083333Y-108984982D01*
X142083333Y-108984982D02*
X141778571Y-108984982D01*
X142540475Y-108642125D02*
X142578571Y-108604030D01*
X142578571Y-108604030D02*
X142654761Y-108565935D01*
X142654761Y-108565935D02*
X142845237Y-108565935D01*
X142845237Y-108565935D02*
X142921428Y-108604030D01*
X142921428Y-108604030D02*
X142959523Y-108642125D01*
X142959523Y-108642125D02*
X142997618Y-108718316D01*
X142997618Y-108718316D02*
X142997618Y-108794506D01*
X142997618Y-108794506D02*
X142959523Y-108908792D01*
X142959523Y-108908792D02*
X142502380Y-109365935D01*
X142502380Y-109365935D02*
X142997618Y-109365935D01*
X143454761Y-108908792D02*
X143378571Y-108870697D01*
X143378571Y-108870697D02*
X143340476Y-108832601D01*
X143340476Y-108832601D02*
X143302380Y-108756411D01*
X143302380Y-108756411D02*
X143302380Y-108718316D01*
X143302380Y-108718316D02*
X143340476Y-108642125D01*
X143340476Y-108642125D02*
X143378571Y-108604030D01*
X143378571Y-108604030D02*
X143454761Y-108565935D01*
X143454761Y-108565935D02*
X143607142Y-108565935D01*
X143607142Y-108565935D02*
X143683333Y-108604030D01*
X143683333Y-108604030D02*
X143721428Y-108642125D01*
X143721428Y-108642125D02*
X143759523Y-108718316D01*
X143759523Y-108718316D02*
X143759523Y-108756411D01*
X143759523Y-108756411D02*
X143721428Y-108832601D01*
X143721428Y-108832601D02*
X143683333Y-108870697D01*
X143683333Y-108870697D02*
X143607142Y-108908792D01*
X143607142Y-108908792D02*
X143454761Y-108908792D01*
X143454761Y-108908792D02*
X143378571Y-108946887D01*
X143378571Y-108946887D02*
X143340476Y-108984982D01*
X143340476Y-108984982D02*
X143302380Y-109061173D01*
X143302380Y-109061173D02*
X143302380Y-109213554D01*
X143302380Y-109213554D02*
X143340476Y-109289744D01*
X143340476Y-109289744D02*
X143378571Y-109327840D01*
X143378571Y-109327840D02*
X143454761Y-109365935D01*
X143454761Y-109365935D02*
X143607142Y-109365935D01*
X143607142Y-109365935D02*
X143683333Y-109327840D01*
X143683333Y-109327840D02*
X143721428Y-109289744D01*
X143721428Y-109289744D02*
X143759523Y-109213554D01*
X143759523Y-109213554D02*
X143759523Y-109061173D01*
X143759523Y-109061173D02*
X143721428Y-108984982D01*
X143721428Y-108984982D02*
X143683333Y-108946887D01*
X143683333Y-108946887D02*
X143607142Y-108908792D01*
X130890476Y-113565935D02*
X130890476Y-114213554D01*
X130890476Y-114213554D02*
X130928571Y-114289744D01*
X130928571Y-114289744D02*
X130966666Y-114327840D01*
X130966666Y-114327840D02*
X131042857Y-114365935D01*
X131042857Y-114365935D02*
X131195238Y-114365935D01*
X131195238Y-114365935D02*
X131271428Y-114327840D01*
X131271428Y-114327840D02*
X131309523Y-114289744D01*
X131309523Y-114289744D02*
X131347619Y-114213554D01*
X131347619Y-114213554D02*
X131347619Y-113565935D01*
X131690475Y-113642125D02*
X131728571Y-113604030D01*
X131728571Y-113604030D02*
X131804761Y-113565935D01*
X131804761Y-113565935D02*
X131995237Y-113565935D01*
X131995237Y-113565935D02*
X132071428Y-113604030D01*
X132071428Y-113604030D02*
X132109523Y-113642125D01*
X132109523Y-113642125D02*
X132147618Y-113718316D01*
X132147618Y-113718316D02*
X132147618Y-113794506D01*
X132147618Y-113794506D02*
X132109523Y-113908792D01*
X132109523Y-113908792D02*
X131652380Y-114365935D01*
X131652380Y-114365935D02*
X132147618Y-114365935D01*
X125866667Y-105365935D02*
X125600000Y-104984982D01*
X125409524Y-105365935D02*
X125409524Y-104565935D01*
X125409524Y-104565935D02*
X125714286Y-104565935D01*
X125714286Y-104565935D02*
X125790476Y-104604030D01*
X125790476Y-104604030D02*
X125828571Y-104642125D01*
X125828571Y-104642125D02*
X125866667Y-104718316D01*
X125866667Y-104718316D02*
X125866667Y-104832601D01*
X125866667Y-104832601D02*
X125828571Y-104908792D01*
X125828571Y-104908792D02*
X125790476Y-104946887D01*
X125790476Y-104946887D02*
X125714286Y-104984982D01*
X125714286Y-104984982D02*
X125409524Y-104984982D01*
X126323809Y-104908792D02*
X126247619Y-104870697D01*
X126247619Y-104870697D02*
X126209524Y-104832601D01*
X126209524Y-104832601D02*
X126171428Y-104756411D01*
X126171428Y-104756411D02*
X126171428Y-104718316D01*
X126171428Y-104718316D02*
X126209524Y-104642125D01*
X126209524Y-104642125D02*
X126247619Y-104604030D01*
X126247619Y-104604030D02*
X126323809Y-104565935D01*
X126323809Y-104565935D02*
X126476190Y-104565935D01*
X126476190Y-104565935D02*
X126552381Y-104604030D01*
X126552381Y-104604030D02*
X126590476Y-104642125D01*
X126590476Y-104642125D02*
X126628571Y-104718316D01*
X126628571Y-104718316D02*
X126628571Y-104756411D01*
X126628571Y-104756411D02*
X126590476Y-104832601D01*
X126590476Y-104832601D02*
X126552381Y-104870697D01*
X126552381Y-104870697D02*
X126476190Y-104908792D01*
X126476190Y-104908792D02*
X126323809Y-104908792D01*
X126323809Y-104908792D02*
X126247619Y-104946887D01*
X126247619Y-104946887D02*
X126209524Y-104984982D01*
X126209524Y-104984982D02*
X126171428Y-105061173D01*
X126171428Y-105061173D02*
X126171428Y-105213554D01*
X126171428Y-105213554D02*
X126209524Y-105289744D01*
X126209524Y-105289744D02*
X126247619Y-105327840D01*
X126247619Y-105327840D02*
X126323809Y-105365935D01*
X126323809Y-105365935D02*
X126476190Y-105365935D01*
X126476190Y-105365935D02*
X126552381Y-105327840D01*
X126552381Y-105327840D02*
X126590476Y-105289744D01*
X126590476Y-105289744D02*
X126628571Y-105213554D01*
X126628571Y-105213554D02*
X126628571Y-105061173D01*
X126628571Y-105061173D02*
X126590476Y-104984982D01*
X126590476Y-104984982D02*
X126552381Y-104946887D01*
X126552381Y-104946887D02*
X126476190Y-104908792D01*
X151735714Y-111615935D02*
X151469047Y-111234982D01*
X151278571Y-111615935D02*
X151278571Y-110815935D01*
X151278571Y-110815935D02*
X151583333Y-110815935D01*
X151583333Y-110815935D02*
X151659523Y-110854030D01*
X151659523Y-110854030D02*
X151697618Y-110892125D01*
X151697618Y-110892125D02*
X151735714Y-110968316D01*
X151735714Y-110968316D02*
X151735714Y-111082601D01*
X151735714Y-111082601D02*
X151697618Y-111158792D01*
X151697618Y-111158792D02*
X151659523Y-111196887D01*
X151659523Y-111196887D02*
X151583333Y-111234982D01*
X151583333Y-111234982D02*
X151278571Y-111234982D01*
X152040475Y-110892125D02*
X152078571Y-110854030D01*
X152078571Y-110854030D02*
X152154761Y-110815935D01*
X152154761Y-110815935D02*
X152345237Y-110815935D01*
X152345237Y-110815935D02*
X152421428Y-110854030D01*
X152421428Y-110854030D02*
X152459523Y-110892125D01*
X152459523Y-110892125D02*
X152497618Y-110968316D01*
X152497618Y-110968316D02*
X152497618Y-111044506D01*
X152497618Y-111044506D02*
X152459523Y-111158792D01*
X152459523Y-111158792D02*
X152002380Y-111615935D01*
X152002380Y-111615935D02*
X152497618Y-111615935D01*
X152764285Y-110815935D02*
X153259523Y-110815935D01*
X153259523Y-110815935D02*
X152992857Y-111120697D01*
X152992857Y-111120697D02*
X153107142Y-111120697D01*
X153107142Y-111120697D02*
X153183333Y-111158792D01*
X153183333Y-111158792D02*
X153221428Y-111196887D01*
X153221428Y-111196887D02*
X153259523Y-111273078D01*
X153259523Y-111273078D02*
X153259523Y-111463554D01*
X153259523Y-111463554D02*
X153221428Y-111539744D01*
X153221428Y-111539744D02*
X153183333Y-111577840D01*
X153183333Y-111577840D02*
X153107142Y-111615935D01*
X153107142Y-111615935D02*
X152878571Y-111615935D01*
X152878571Y-111615935D02*
X152802380Y-111577840D01*
X152802380Y-111577840D02*
X152764285Y-111539744D01*
X131485714Y-122615935D02*
X131219047Y-122234982D01*
X131028571Y-122615935D02*
X131028571Y-121815935D01*
X131028571Y-121815935D02*
X131333333Y-121815935D01*
X131333333Y-121815935D02*
X131409523Y-121854030D01*
X131409523Y-121854030D02*
X131447618Y-121892125D01*
X131447618Y-121892125D02*
X131485714Y-121968316D01*
X131485714Y-121968316D02*
X131485714Y-122082601D01*
X131485714Y-122082601D02*
X131447618Y-122158792D01*
X131447618Y-122158792D02*
X131409523Y-122196887D01*
X131409523Y-122196887D02*
X131333333Y-122234982D01*
X131333333Y-122234982D02*
X131028571Y-122234982D01*
X132247618Y-122615935D02*
X131790475Y-122615935D01*
X132019047Y-122615935D02*
X132019047Y-121815935D01*
X132019047Y-121815935D02*
X131942856Y-121930220D01*
X131942856Y-121930220D02*
X131866666Y-122006411D01*
X131866666Y-122006411D02*
X131790475Y-122044506D01*
X132971428Y-121815935D02*
X132590476Y-121815935D01*
X132590476Y-121815935D02*
X132552380Y-122196887D01*
X132552380Y-122196887D02*
X132590476Y-122158792D01*
X132590476Y-122158792D02*
X132666666Y-122120697D01*
X132666666Y-122120697D02*
X132857142Y-122120697D01*
X132857142Y-122120697D02*
X132933333Y-122158792D01*
X132933333Y-122158792D02*
X132971428Y-122196887D01*
X132971428Y-122196887D02*
X133009523Y-122273078D01*
X133009523Y-122273078D02*
X133009523Y-122463554D01*
X133009523Y-122463554D02*
X132971428Y-122539744D01*
X132971428Y-122539744D02*
X132933333Y-122577840D01*
X132933333Y-122577840D02*
X132857142Y-122615935D01*
X132857142Y-122615935D02*
X132666666Y-122615935D01*
X132666666Y-122615935D02*
X132590476Y-122577840D01*
X132590476Y-122577840D02*
X132552380Y-122539744D01*
D12*
X137052657Y-118095238D02*
X137005038Y-118190476D01*
X137005038Y-118190476D02*
X136909800Y-118285714D01*
X136909800Y-118285714D02*
X136766942Y-118428571D01*
X136766942Y-118428571D02*
X136719323Y-118523809D01*
X136719323Y-118523809D02*
X136719323Y-118619047D01*
X136957419Y-118571428D02*
X136909800Y-118666666D01*
X136909800Y-118666666D02*
X136814561Y-118761904D01*
X136814561Y-118761904D02*
X136624085Y-118809523D01*
X136624085Y-118809523D02*
X136290752Y-118809523D01*
X136290752Y-118809523D02*
X136100276Y-118761904D01*
X136100276Y-118761904D02*
X136005038Y-118666666D01*
X136005038Y-118666666D02*
X135957419Y-118571428D01*
X135957419Y-118571428D02*
X135957419Y-118380952D01*
X135957419Y-118380952D02*
X136005038Y-118285714D01*
X136005038Y-118285714D02*
X136100276Y-118190476D01*
X136100276Y-118190476D02*
X136290752Y-118142857D01*
X136290752Y-118142857D02*
X136624085Y-118142857D01*
X136624085Y-118142857D02*
X136814561Y-118190476D01*
X136814561Y-118190476D02*
X136909800Y-118285714D01*
X136909800Y-118285714D02*
X136957419Y-118380952D01*
X136957419Y-118380952D02*
X136957419Y-118571428D01*
X136957419Y-117190476D02*
X136957419Y-117761904D01*
X136957419Y-117476190D02*
X135957419Y-117476190D01*
X135957419Y-117476190D02*
X136100276Y-117571428D01*
X136100276Y-117571428D02*
X136195514Y-117666666D01*
X136195514Y-117666666D02*
X136243133Y-117761904D01*
D11*
X152766667Y-122289744D02*
X152728571Y-122327840D01*
X152728571Y-122327840D02*
X152614286Y-122365935D01*
X152614286Y-122365935D02*
X152538095Y-122365935D01*
X152538095Y-122365935D02*
X152423809Y-122327840D01*
X152423809Y-122327840D02*
X152347619Y-122251649D01*
X152347619Y-122251649D02*
X152309524Y-122175459D01*
X152309524Y-122175459D02*
X152271428Y-122023078D01*
X152271428Y-122023078D02*
X152271428Y-121908792D01*
X152271428Y-121908792D02*
X152309524Y-121756411D01*
X152309524Y-121756411D02*
X152347619Y-121680220D01*
X152347619Y-121680220D02*
X152423809Y-121604030D01*
X152423809Y-121604030D02*
X152538095Y-121565935D01*
X152538095Y-121565935D02*
X152614286Y-121565935D01*
X152614286Y-121565935D02*
X152728571Y-121604030D01*
X152728571Y-121604030D02*
X152766667Y-121642125D01*
X153490476Y-121565935D02*
X153109524Y-121565935D01*
X153109524Y-121565935D02*
X153071428Y-121946887D01*
X153071428Y-121946887D02*
X153109524Y-121908792D01*
X153109524Y-121908792D02*
X153185714Y-121870697D01*
X153185714Y-121870697D02*
X153376190Y-121870697D01*
X153376190Y-121870697D02*
X153452381Y-121908792D01*
X153452381Y-121908792D02*
X153490476Y-121946887D01*
X153490476Y-121946887D02*
X153528571Y-122023078D01*
X153528571Y-122023078D02*
X153528571Y-122213554D01*
X153528571Y-122213554D02*
X153490476Y-122289744D01*
X153490476Y-122289744D02*
X153452381Y-122327840D01*
X153452381Y-122327840D02*
X153376190Y-122365935D01*
X153376190Y-122365935D02*
X153185714Y-122365935D01*
X153185714Y-122365935D02*
X153109524Y-122327840D01*
X153109524Y-122327840D02*
X153071428Y-122289744D01*
X145409524Y-113615935D02*
X145409524Y-112815935D01*
X145409524Y-112815935D02*
X145600000Y-112815935D01*
X145600000Y-112815935D02*
X145714286Y-112854030D01*
X145714286Y-112854030D02*
X145790476Y-112930220D01*
X145790476Y-112930220D02*
X145828571Y-113006411D01*
X145828571Y-113006411D02*
X145866667Y-113158792D01*
X145866667Y-113158792D02*
X145866667Y-113273078D01*
X145866667Y-113273078D02*
X145828571Y-113425459D01*
X145828571Y-113425459D02*
X145790476Y-113501649D01*
X145790476Y-113501649D02*
X145714286Y-113577840D01*
X145714286Y-113577840D02*
X145600000Y-113615935D01*
X145600000Y-113615935D02*
X145409524Y-113615935D01*
X146628571Y-113615935D02*
X146171428Y-113615935D01*
X146400000Y-113615935D02*
X146400000Y-112815935D01*
X146400000Y-112815935D02*
X146323809Y-112930220D01*
X146323809Y-112930220D02*
X146247619Y-113006411D01*
X146247619Y-113006411D02*
X146171428Y-113044506D01*
X155366667Y-121115935D02*
X155100000Y-120734982D01*
X154909524Y-121115935D02*
X154909524Y-120315935D01*
X154909524Y-120315935D02*
X155214286Y-120315935D01*
X155214286Y-120315935D02*
X155290476Y-120354030D01*
X155290476Y-120354030D02*
X155328571Y-120392125D01*
X155328571Y-120392125D02*
X155366667Y-120468316D01*
X155366667Y-120468316D02*
X155366667Y-120582601D01*
X155366667Y-120582601D02*
X155328571Y-120658792D01*
X155328571Y-120658792D02*
X155290476Y-120696887D01*
X155290476Y-120696887D02*
X155214286Y-120734982D01*
X155214286Y-120734982D02*
X154909524Y-120734982D01*
X156128571Y-121115935D02*
X155671428Y-121115935D01*
X155900000Y-121115935D02*
X155900000Y-120315935D01*
X155900000Y-120315935D02*
X155823809Y-120430220D01*
X155823809Y-120430220D02*
X155747619Y-120506411D01*
X155747619Y-120506411D02*
X155671428Y-120544506D01*
X151735714Y-107615935D02*
X151469047Y-107234982D01*
X151278571Y-107615935D02*
X151278571Y-106815935D01*
X151278571Y-106815935D02*
X151583333Y-106815935D01*
X151583333Y-106815935D02*
X151659523Y-106854030D01*
X151659523Y-106854030D02*
X151697618Y-106892125D01*
X151697618Y-106892125D02*
X151735714Y-106968316D01*
X151735714Y-106968316D02*
X151735714Y-107082601D01*
X151735714Y-107082601D02*
X151697618Y-107158792D01*
X151697618Y-107158792D02*
X151659523Y-107196887D01*
X151659523Y-107196887D02*
X151583333Y-107234982D01*
X151583333Y-107234982D02*
X151278571Y-107234982D01*
X152040475Y-106892125D02*
X152078571Y-106854030D01*
X152078571Y-106854030D02*
X152154761Y-106815935D01*
X152154761Y-106815935D02*
X152345237Y-106815935D01*
X152345237Y-106815935D02*
X152421428Y-106854030D01*
X152421428Y-106854030D02*
X152459523Y-106892125D01*
X152459523Y-106892125D02*
X152497618Y-106968316D01*
X152497618Y-106968316D02*
X152497618Y-107044506D01*
X152497618Y-107044506D02*
X152459523Y-107158792D01*
X152459523Y-107158792D02*
X152002380Y-107615935D01*
X152002380Y-107615935D02*
X152497618Y-107615935D01*
X152764285Y-106815935D02*
X153297619Y-106815935D01*
X153297619Y-106815935D02*
X152954761Y-107615935D01*
D12*
X146552657Y-118095238D02*
X146505038Y-118190476D01*
X146505038Y-118190476D02*
X146409800Y-118285714D01*
X146409800Y-118285714D02*
X146266942Y-118428571D01*
X146266942Y-118428571D02*
X146219323Y-118523809D01*
X146219323Y-118523809D02*
X146219323Y-118619047D01*
X146457419Y-118571428D02*
X146409800Y-118666666D01*
X146409800Y-118666666D02*
X146314561Y-118761904D01*
X146314561Y-118761904D02*
X146124085Y-118809523D01*
X146124085Y-118809523D02*
X145790752Y-118809523D01*
X145790752Y-118809523D02*
X145600276Y-118761904D01*
X145600276Y-118761904D02*
X145505038Y-118666666D01*
X145505038Y-118666666D02*
X145457419Y-118571428D01*
X145457419Y-118571428D02*
X145457419Y-118380952D01*
X145457419Y-118380952D02*
X145505038Y-118285714D01*
X145505038Y-118285714D02*
X145600276Y-118190476D01*
X145600276Y-118190476D02*
X145790752Y-118142857D01*
X145790752Y-118142857D02*
X146124085Y-118142857D01*
X146124085Y-118142857D02*
X146314561Y-118190476D01*
X146314561Y-118190476D02*
X146409800Y-118285714D01*
X146409800Y-118285714D02*
X146457419Y-118380952D01*
X146457419Y-118380952D02*
X146457419Y-118571428D01*
X145457419Y-117238095D02*
X145457419Y-117714285D01*
X145457419Y-117714285D02*
X145933609Y-117761904D01*
X145933609Y-117761904D02*
X145885990Y-117714285D01*
X145885990Y-117714285D02*
X145838371Y-117619047D01*
X145838371Y-117619047D02*
X145838371Y-117380952D01*
X145838371Y-117380952D02*
X145885990Y-117285714D01*
X145885990Y-117285714D02*
X145933609Y-117238095D01*
X145933609Y-117238095D02*
X146028847Y-117190476D01*
X146028847Y-117190476D02*
X146266942Y-117190476D01*
X146266942Y-117190476D02*
X146362180Y-117238095D01*
X146362180Y-117238095D02*
X146409800Y-117285714D01*
X146409800Y-117285714D02*
X146457419Y-117380952D01*
X146457419Y-117380952D02*
X146457419Y-117619047D01*
X146457419Y-117619047D02*
X146409800Y-117714285D01*
X146409800Y-117714285D02*
X146362180Y-117761904D01*
D11*
X130890476Y-117565935D02*
X130890476Y-118213554D01*
X130890476Y-118213554D02*
X130928571Y-118289744D01*
X130928571Y-118289744D02*
X130966666Y-118327840D01*
X130966666Y-118327840D02*
X131042857Y-118365935D01*
X131042857Y-118365935D02*
X131195238Y-118365935D01*
X131195238Y-118365935D02*
X131271428Y-118327840D01*
X131271428Y-118327840D02*
X131309523Y-118289744D01*
X131309523Y-118289744D02*
X131347619Y-118213554D01*
X131347619Y-118213554D02*
X131347619Y-117565935D01*
X132147618Y-118365935D02*
X131690475Y-118365935D01*
X131919047Y-118365935D02*
X131919047Y-117565935D01*
X131919047Y-117565935D02*
X131842856Y-117680220D01*
X131842856Y-117680220D02*
X131766666Y-117756411D01*
X131766666Y-117756411D02*
X131690475Y-117794506D01*
X129866667Y-116289744D02*
X129828571Y-116327840D01*
X129828571Y-116327840D02*
X129714286Y-116365935D01*
X129714286Y-116365935D02*
X129638095Y-116365935D01*
X129638095Y-116365935D02*
X129523809Y-116327840D01*
X129523809Y-116327840D02*
X129447619Y-116251649D01*
X129447619Y-116251649D02*
X129409524Y-116175459D01*
X129409524Y-116175459D02*
X129371428Y-116023078D01*
X129371428Y-116023078D02*
X129371428Y-115908792D01*
X129371428Y-115908792D02*
X129409524Y-115756411D01*
X129409524Y-115756411D02*
X129447619Y-115680220D01*
X129447619Y-115680220D02*
X129523809Y-115604030D01*
X129523809Y-115604030D02*
X129638095Y-115565935D01*
X129638095Y-115565935D02*
X129714286Y-115565935D01*
X129714286Y-115565935D02*
X129828571Y-115604030D01*
X129828571Y-115604030D02*
X129866667Y-115642125D01*
X130552381Y-115832601D02*
X130552381Y-116365935D01*
X130361905Y-115527840D02*
X130171428Y-116099268D01*
X130171428Y-116099268D02*
X130666667Y-116099268D01*
X157235714Y-117365935D02*
X156969047Y-116984982D01*
X156778571Y-117365935D02*
X156778571Y-116565935D01*
X156778571Y-116565935D02*
X157083333Y-116565935D01*
X157083333Y-116565935D02*
X157159523Y-116604030D01*
X157159523Y-116604030D02*
X157197618Y-116642125D01*
X157197618Y-116642125D02*
X157235714Y-116718316D01*
X157235714Y-116718316D02*
X157235714Y-116832601D01*
X157235714Y-116832601D02*
X157197618Y-116908792D01*
X157197618Y-116908792D02*
X157159523Y-116946887D01*
X157159523Y-116946887D02*
X157083333Y-116984982D01*
X157083333Y-116984982D02*
X156778571Y-116984982D01*
X157997618Y-117365935D02*
X157540475Y-117365935D01*
X157769047Y-117365935D02*
X157769047Y-116565935D01*
X157769047Y-116565935D02*
X157692856Y-116680220D01*
X157692856Y-116680220D02*
X157616666Y-116756411D01*
X157616666Y-116756411D02*
X157540475Y-116794506D01*
X158683333Y-116832601D02*
X158683333Y-117365935D01*
X158492857Y-116527840D02*
X158302380Y-117099268D01*
X158302380Y-117099268D02*
X158797619Y-117099268D01*
X124865935Y-108133332D02*
X124484982Y-108399999D01*
X124865935Y-108590475D02*
X124065935Y-108590475D01*
X124065935Y-108590475D02*
X124065935Y-108285713D01*
X124065935Y-108285713D02*
X124104030Y-108209523D01*
X124104030Y-108209523D02*
X124142125Y-108171428D01*
X124142125Y-108171428D02*
X124218316Y-108133332D01*
X124218316Y-108133332D02*
X124332601Y-108133332D01*
X124332601Y-108133332D02*
X124408792Y-108171428D01*
X124408792Y-108171428D02*
X124446887Y-108209523D01*
X124446887Y-108209523D02*
X124484982Y-108285713D01*
X124484982Y-108285713D02*
X124484982Y-108590475D01*
X124142125Y-107828571D02*
X124104030Y-107790475D01*
X124104030Y-107790475D02*
X124065935Y-107714285D01*
X124065935Y-107714285D02*
X124065935Y-107523809D01*
X124065935Y-107523809D02*
X124104030Y-107447618D01*
X124104030Y-107447618D02*
X124142125Y-107409523D01*
X124142125Y-107409523D02*
X124218316Y-107371428D01*
X124218316Y-107371428D02*
X124294506Y-107371428D01*
X124294506Y-107371428D02*
X124408792Y-107409523D01*
X124408792Y-107409523D02*
X124865935Y-107866666D01*
X124865935Y-107866666D02*
X124865935Y-107371428D01*
D12*
X140947342Y-117904761D02*
X140994961Y-117809523D01*
X140994961Y-117809523D02*
X141090200Y-117714285D01*
X141090200Y-117714285D02*
X141233057Y-117571428D01*
X141233057Y-117571428D02*
X141280676Y-117476190D01*
X141280676Y-117476190D02*
X141280676Y-117380952D01*
X141042580Y-117428571D02*
X141090200Y-117333333D01*
X141090200Y-117333333D02*
X141185438Y-117238095D01*
X141185438Y-117238095D02*
X141375914Y-117190476D01*
X141375914Y-117190476D02*
X141709247Y-117190476D01*
X141709247Y-117190476D02*
X141899723Y-117238095D01*
X141899723Y-117238095D02*
X141994961Y-117333333D01*
X141994961Y-117333333D02*
X142042580Y-117428571D01*
X142042580Y-117428571D02*
X142042580Y-117619047D01*
X142042580Y-117619047D02*
X141994961Y-117714285D01*
X141994961Y-117714285D02*
X141899723Y-117809523D01*
X141899723Y-117809523D02*
X141709247Y-117857142D01*
X141709247Y-117857142D02*
X141375914Y-117857142D01*
X141375914Y-117857142D02*
X141185438Y-117809523D01*
X141185438Y-117809523D02*
X141090200Y-117714285D01*
X141090200Y-117714285D02*
X141042580Y-117619047D01*
X141042580Y-117619047D02*
X141042580Y-117428571D01*
X142042580Y-118190476D02*
X142042580Y-118809523D01*
X142042580Y-118809523D02*
X141661628Y-118476190D01*
X141661628Y-118476190D02*
X141661628Y-118619047D01*
X141661628Y-118619047D02*
X141614009Y-118714285D01*
X141614009Y-118714285D02*
X141566390Y-118761904D01*
X141566390Y-118761904D02*
X141471152Y-118809523D01*
X141471152Y-118809523D02*
X141233057Y-118809523D01*
X141233057Y-118809523D02*
X141137819Y-118761904D01*
X141137819Y-118761904D02*
X141090200Y-118714285D01*
X141090200Y-118714285D02*
X141042580Y-118619047D01*
X141042580Y-118619047D02*
X141042580Y-118333333D01*
X141042580Y-118333333D02*
X141090200Y-118238095D01*
X141090200Y-118238095D02*
X141137819Y-118190476D01*
D11*
X129315935Y-118609523D02*
X129963554Y-118609523D01*
X129963554Y-118609523D02*
X130039744Y-118571428D01*
X130039744Y-118571428D02*
X130077840Y-118533333D01*
X130077840Y-118533333D02*
X130115935Y-118457142D01*
X130115935Y-118457142D02*
X130115935Y-118304761D01*
X130115935Y-118304761D02*
X130077840Y-118228571D01*
X130077840Y-118228571D02*
X130039744Y-118190476D01*
X130039744Y-118190476D02*
X129963554Y-118152380D01*
X129963554Y-118152380D02*
X129315935Y-118152380D01*
X129582601Y-117428571D02*
X130115935Y-117428571D01*
X129277840Y-117619047D02*
X129849268Y-117809524D01*
X129849268Y-117809524D02*
X129849268Y-117314285D01*
X157235714Y-113365935D02*
X156969047Y-112984982D01*
X156778571Y-113365935D02*
X156778571Y-112565935D01*
X156778571Y-112565935D02*
X157083333Y-112565935D01*
X157083333Y-112565935D02*
X157159523Y-112604030D01*
X157159523Y-112604030D02*
X157197618Y-112642125D01*
X157197618Y-112642125D02*
X157235714Y-112718316D01*
X157235714Y-112718316D02*
X157235714Y-112832601D01*
X157235714Y-112832601D02*
X157197618Y-112908792D01*
X157197618Y-112908792D02*
X157159523Y-112946887D01*
X157159523Y-112946887D02*
X157083333Y-112984982D01*
X157083333Y-112984982D02*
X156778571Y-112984982D01*
X157540475Y-112642125D02*
X157578571Y-112604030D01*
X157578571Y-112604030D02*
X157654761Y-112565935D01*
X157654761Y-112565935D02*
X157845237Y-112565935D01*
X157845237Y-112565935D02*
X157921428Y-112604030D01*
X157921428Y-112604030D02*
X157959523Y-112642125D01*
X157959523Y-112642125D02*
X157997618Y-112718316D01*
X157997618Y-112718316D02*
X157997618Y-112794506D01*
X157997618Y-112794506D02*
X157959523Y-112908792D01*
X157959523Y-112908792D02*
X157502380Y-113365935D01*
X157502380Y-113365935D02*
X157997618Y-113365935D01*
X158759523Y-113365935D02*
X158302380Y-113365935D01*
X158530952Y-113365935D02*
X158530952Y-112565935D01*
X158530952Y-112565935D02*
X158454761Y-112680220D01*
X158454761Y-112680220D02*
X158378571Y-112756411D01*
X158378571Y-112756411D02*
X158302380Y-112794506D01*
X128485714Y-111615935D02*
X128219047Y-111234982D01*
X128028571Y-111615935D02*
X128028571Y-110815935D01*
X128028571Y-110815935D02*
X128333333Y-110815935D01*
X128333333Y-110815935D02*
X128409523Y-110854030D01*
X128409523Y-110854030D02*
X128447618Y-110892125D01*
X128447618Y-110892125D02*
X128485714Y-110968316D01*
X128485714Y-110968316D02*
X128485714Y-111082601D01*
X128485714Y-111082601D02*
X128447618Y-111158792D01*
X128447618Y-111158792D02*
X128409523Y-111196887D01*
X128409523Y-111196887D02*
X128333333Y-111234982D01*
X128333333Y-111234982D02*
X128028571Y-111234982D01*
X129247618Y-111615935D02*
X128790475Y-111615935D01*
X129019047Y-111615935D02*
X129019047Y-110815935D01*
X129019047Y-110815935D02*
X128942856Y-110930220D01*
X128942856Y-110930220D02*
X128866666Y-111006411D01*
X128866666Y-111006411D02*
X128790475Y-111044506D01*
X129933333Y-110815935D02*
X129780952Y-110815935D01*
X129780952Y-110815935D02*
X129704761Y-110854030D01*
X129704761Y-110854030D02*
X129666666Y-110892125D01*
X129666666Y-110892125D02*
X129590476Y-111006411D01*
X129590476Y-111006411D02*
X129552380Y-111158792D01*
X129552380Y-111158792D02*
X129552380Y-111463554D01*
X129552380Y-111463554D02*
X129590476Y-111539744D01*
X129590476Y-111539744D02*
X129628571Y-111577840D01*
X129628571Y-111577840D02*
X129704761Y-111615935D01*
X129704761Y-111615935D02*
X129857142Y-111615935D01*
X129857142Y-111615935D02*
X129933333Y-111577840D01*
X129933333Y-111577840D02*
X129971428Y-111539744D01*
X129971428Y-111539744D02*
X130009523Y-111463554D01*
X130009523Y-111463554D02*
X130009523Y-111273078D01*
X130009523Y-111273078D02*
X129971428Y-111196887D01*
X129971428Y-111196887D02*
X129933333Y-111158792D01*
X129933333Y-111158792D02*
X129857142Y-111120697D01*
X129857142Y-111120697D02*
X129704761Y-111120697D01*
X129704761Y-111120697D02*
X129628571Y-111158792D01*
X129628571Y-111158792D02*
X129590476Y-111196887D01*
X129590476Y-111196887D02*
X129552380Y-111273078D01*
X146890476Y-123565935D02*
X146890476Y-124213554D01*
X146890476Y-124213554D02*
X146928571Y-124289744D01*
X146928571Y-124289744D02*
X146966666Y-124327840D01*
X146966666Y-124327840D02*
X147042857Y-124365935D01*
X147042857Y-124365935D02*
X147195238Y-124365935D01*
X147195238Y-124365935D02*
X147271428Y-124327840D01*
X147271428Y-124327840D02*
X147309523Y-124289744D01*
X147309523Y-124289744D02*
X147347619Y-124213554D01*
X147347619Y-124213554D02*
X147347619Y-123565935D01*
X148071428Y-123565935D02*
X147919047Y-123565935D01*
X147919047Y-123565935D02*
X147842856Y-123604030D01*
X147842856Y-123604030D02*
X147804761Y-123642125D01*
X147804761Y-123642125D02*
X147728571Y-123756411D01*
X147728571Y-123756411D02*
X147690475Y-123908792D01*
X147690475Y-123908792D02*
X147690475Y-124213554D01*
X147690475Y-124213554D02*
X147728571Y-124289744D01*
X147728571Y-124289744D02*
X147766666Y-124327840D01*
X147766666Y-124327840D02*
X147842856Y-124365935D01*
X147842856Y-124365935D02*
X147995237Y-124365935D01*
X147995237Y-124365935D02*
X148071428Y-124327840D01*
X148071428Y-124327840D02*
X148109523Y-124289744D01*
X148109523Y-124289744D02*
X148147618Y-124213554D01*
X148147618Y-124213554D02*
X148147618Y-124023078D01*
X148147618Y-124023078D02*
X148109523Y-123946887D01*
X148109523Y-123946887D02*
X148071428Y-123908792D01*
X148071428Y-123908792D02*
X147995237Y-123870697D01*
X147995237Y-123870697D02*
X147842856Y-123870697D01*
X147842856Y-123870697D02*
X147766666Y-123908792D01*
X147766666Y-123908792D02*
X147728571Y-123946887D01*
X147728571Y-123946887D02*
X147690475Y-124023078D01*
D12*
X141404761Y-113552657D02*
X141309523Y-113505038D01*
X141309523Y-113505038D02*
X141214285Y-113409800D01*
X141214285Y-113409800D02*
X141071428Y-113266942D01*
X141071428Y-113266942D02*
X140976190Y-113219323D01*
X140976190Y-113219323D02*
X140880952Y-113219323D01*
X140928571Y-113457419D02*
X140833333Y-113409800D01*
X140833333Y-113409800D02*
X140738095Y-113314561D01*
X140738095Y-113314561D02*
X140690476Y-113124085D01*
X140690476Y-113124085D02*
X140690476Y-112790752D01*
X140690476Y-112790752D02*
X140738095Y-112600276D01*
X140738095Y-112600276D02*
X140833333Y-112505038D01*
X140833333Y-112505038D02*
X140928571Y-112457419D01*
X140928571Y-112457419D02*
X141119047Y-112457419D01*
X141119047Y-112457419D02*
X141214285Y-112505038D01*
X141214285Y-112505038D02*
X141309523Y-112600276D01*
X141309523Y-112600276D02*
X141357142Y-112790752D01*
X141357142Y-112790752D02*
X141357142Y-113124085D01*
X141357142Y-113124085D02*
X141309523Y-113314561D01*
X141309523Y-113314561D02*
X141214285Y-113409800D01*
X141214285Y-113409800D02*
X141119047Y-113457419D01*
X141119047Y-113457419D02*
X140928571Y-113457419D01*
X142214285Y-112790752D02*
X142214285Y-113457419D01*
X141976190Y-112409800D02*
X141738095Y-113124085D01*
X141738095Y-113124085D02*
X142357142Y-113124085D01*
X136404761Y-113552657D02*
X136309523Y-113505038D01*
X136309523Y-113505038D02*
X136214285Y-113409800D01*
X136214285Y-113409800D02*
X136071428Y-113266942D01*
X136071428Y-113266942D02*
X135976190Y-113219323D01*
X135976190Y-113219323D02*
X135880952Y-113219323D01*
X135928571Y-113457419D02*
X135833333Y-113409800D01*
X135833333Y-113409800D02*
X135738095Y-113314561D01*
X135738095Y-113314561D02*
X135690476Y-113124085D01*
X135690476Y-113124085D02*
X135690476Y-112790752D01*
X135690476Y-112790752D02*
X135738095Y-112600276D01*
X135738095Y-112600276D02*
X135833333Y-112505038D01*
X135833333Y-112505038D02*
X135928571Y-112457419D01*
X135928571Y-112457419D02*
X136119047Y-112457419D01*
X136119047Y-112457419D02*
X136214285Y-112505038D01*
X136214285Y-112505038D02*
X136309523Y-112600276D01*
X136309523Y-112600276D02*
X136357142Y-112790752D01*
X136357142Y-112790752D02*
X136357142Y-113124085D01*
X136357142Y-113124085D02*
X136309523Y-113314561D01*
X136309523Y-113314561D02*
X136214285Y-113409800D01*
X136214285Y-113409800D02*
X136119047Y-113457419D01*
X136119047Y-113457419D02*
X135928571Y-113457419D01*
X136738095Y-112552657D02*
X136785714Y-112505038D01*
X136785714Y-112505038D02*
X136880952Y-112457419D01*
X136880952Y-112457419D02*
X137119047Y-112457419D01*
X137119047Y-112457419D02*
X137214285Y-112505038D01*
X137214285Y-112505038D02*
X137261904Y-112552657D01*
X137261904Y-112552657D02*
X137309523Y-112647895D01*
X137309523Y-112647895D02*
X137309523Y-112743133D01*
X137309523Y-112743133D02*
X137261904Y-112885990D01*
X137261904Y-112885990D02*
X136690476Y-113457419D01*
X136690476Y-113457419D02*
X137309523Y-113457419D01*
D11*
X122865935Y-121383332D02*
X122484982Y-121649999D01*
X122865935Y-121840475D02*
X122065935Y-121840475D01*
X122065935Y-121840475D02*
X122065935Y-121535713D01*
X122065935Y-121535713D02*
X122104030Y-121459523D01*
X122104030Y-121459523D02*
X122142125Y-121421428D01*
X122142125Y-121421428D02*
X122218316Y-121383332D01*
X122218316Y-121383332D02*
X122332601Y-121383332D01*
X122332601Y-121383332D02*
X122408792Y-121421428D01*
X122408792Y-121421428D02*
X122446887Y-121459523D01*
X122446887Y-121459523D02*
X122484982Y-121535713D01*
X122484982Y-121535713D02*
X122484982Y-121840475D01*
X122065935Y-121116666D02*
X122065935Y-120583332D01*
X122065935Y-120583332D02*
X122865935Y-120926190D01*
X151735714Y-105615935D02*
X151469047Y-105234982D01*
X151278571Y-105615935D02*
X151278571Y-104815935D01*
X151278571Y-104815935D02*
X151583333Y-104815935D01*
X151583333Y-104815935D02*
X151659523Y-104854030D01*
X151659523Y-104854030D02*
X151697618Y-104892125D01*
X151697618Y-104892125D02*
X151735714Y-104968316D01*
X151735714Y-104968316D02*
X151735714Y-105082601D01*
X151735714Y-105082601D02*
X151697618Y-105158792D01*
X151697618Y-105158792D02*
X151659523Y-105196887D01*
X151659523Y-105196887D02*
X151583333Y-105234982D01*
X151583333Y-105234982D02*
X151278571Y-105234982D01*
X152040475Y-104892125D02*
X152078571Y-104854030D01*
X152078571Y-104854030D02*
X152154761Y-104815935D01*
X152154761Y-104815935D02*
X152345237Y-104815935D01*
X152345237Y-104815935D02*
X152421428Y-104854030D01*
X152421428Y-104854030D02*
X152459523Y-104892125D01*
X152459523Y-104892125D02*
X152497618Y-104968316D01*
X152497618Y-104968316D02*
X152497618Y-105044506D01*
X152497618Y-105044506D02*
X152459523Y-105158792D01*
X152459523Y-105158792D02*
X152002380Y-105615935D01*
X152002380Y-105615935D02*
X152497618Y-105615935D01*
X153221428Y-104815935D02*
X152840476Y-104815935D01*
X152840476Y-104815935D02*
X152802380Y-105196887D01*
X152802380Y-105196887D02*
X152840476Y-105158792D01*
X152840476Y-105158792D02*
X152916666Y-105120697D01*
X152916666Y-105120697D02*
X153107142Y-105120697D01*
X153107142Y-105120697D02*
X153183333Y-105158792D01*
X153183333Y-105158792D02*
X153221428Y-105196887D01*
X153221428Y-105196887D02*
X153259523Y-105273078D01*
X153259523Y-105273078D02*
X153259523Y-105463554D01*
X153259523Y-105463554D02*
X153221428Y-105539744D01*
X153221428Y-105539744D02*
X153183333Y-105577840D01*
X153183333Y-105577840D02*
X153107142Y-105615935D01*
X153107142Y-105615935D02*
X152916666Y-105615935D01*
X152916666Y-105615935D02*
X152840476Y-105577840D01*
X152840476Y-105577840D02*
X152802380Y-105539744D01*
X122865935Y-108045832D02*
X122484982Y-108312499D01*
X122865935Y-108502975D02*
X122065935Y-108502975D01*
X122065935Y-108502975D02*
X122065935Y-108198213D01*
X122065935Y-108198213D02*
X122104030Y-108122023D01*
X122104030Y-108122023D02*
X122142125Y-108083928D01*
X122142125Y-108083928D02*
X122218316Y-108045832D01*
X122218316Y-108045832D02*
X122332601Y-108045832D01*
X122332601Y-108045832D02*
X122408792Y-108083928D01*
X122408792Y-108083928D02*
X122446887Y-108122023D01*
X122446887Y-108122023D02*
X122484982Y-108198213D01*
X122484982Y-108198213D02*
X122484982Y-108502975D01*
X122065935Y-107779166D02*
X122065935Y-107283928D01*
X122065935Y-107283928D02*
X122370697Y-107550594D01*
X122370697Y-107550594D02*
X122370697Y-107436309D01*
X122370697Y-107436309D02*
X122408792Y-107360118D01*
X122408792Y-107360118D02*
X122446887Y-107322023D01*
X122446887Y-107322023D02*
X122523078Y-107283928D01*
X122523078Y-107283928D02*
X122713554Y-107283928D01*
X122713554Y-107283928D02*
X122789744Y-107322023D01*
X122789744Y-107322023D02*
X122827840Y-107360118D01*
X122827840Y-107360118D02*
X122865935Y-107436309D01*
X122865935Y-107436309D02*
X122865935Y-107664880D01*
X122865935Y-107664880D02*
X122827840Y-107741071D01*
X122827840Y-107741071D02*
X122789744Y-107779166D01*
X124865935Y-113133332D02*
X124484982Y-113399999D01*
X124865935Y-113590475D02*
X124065935Y-113590475D01*
X124065935Y-113590475D02*
X124065935Y-113285713D01*
X124065935Y-113285713D02*
X124104030Y-113209523D01*
X124104030Y-113209523D02*
X124142125Y-113171428D01*
X124142125Y-113171428D02*
X124218316Y-113133332D01*
X124218316Y-113133332D02*
X124332601Y-113133332D01*
X124332601Y-113133332D02*
X124408792Y-113171428D01*
X124408792Y-113171428D02*
X124446887Y-113209523D01*
X124446887Y-113209523D02*
X124484982Y-113285713D01*
X124484982Y-113285713D02*
X124484982Y-113590475D01*
X124332601Y-112447618D02*
X124865935Y-112447618D01*
X124027840Y-112638094D02*
X124599268Y-112828571D01*
X124599268Y-112828571D02*
X124599268Y-112333332D01*
X142285714Y-104865935D02*
X142019047Y-104484982D01*
X141828571Y-104865935D02*
X141828571Y-104065935D01*
X141828571Y-104065935D02*
X142133333Y-104065935D01*
X142133333Y-104065935D02*
X142209523Y-104104030D01*
X142209523Y-104104030D02*
X142247618Y-104142125D01*
X142247618Y-104142125D02*
X142285714Y-104218316D01*
X142285714Y-104218316D02*
X142285714Y-104332601D01*
X142285714Y-104332601D02*
X142247618Y-104408792D01*
X142247618Y-104408792D02*
X142209523Y-104446887D01*
X142209523Y-104446887D02*
X142133333Y-104484982D01*
X142133333Y-104484982D02*
X141828571Y-104484982D01*
X142590475Y-104142125D02*
X142628571Y-104104030D01*
X142628571Y-104104030D02*
X142704761Y-104065935D01*
X142704761Y-104065935D02*
X142895237Y-104065935D01*
X142895237Y-104065935D02*
X142971428Y-104104030D01*
X142971428Y-104104030D02*
X143009523Y-104142125D01*
X143009523Y-104142125D02*
X143047618Y-104218316D01*
X143047618Y-104218316D02*
X143047618Y-104294506D01*
X143047618Y-104294506D02*
X143009523Y-104408792D01*
X143009523Y-104408792D02*
X142552380Y-104865935D01*
X142552380Y-104865935D02*
X143047618Y-104865935D01*
X143733333Y-104332601D02*
X143733333Y-104865935D01*
X143542857Y-104027840D02*
X143352380Y-104599268D01*
X143352380Y-104599268D02*
X143847619Y-104599268D01*
X152735714Y-121115935D02*
X152469047Y-120734982D01*
X152278571Y-121115935D02*
X152278571Y-120315935D01*
X152278571Y-120315935D02*
X152583333Y-120315935D01*
X152583333Y-120315935D02*
X152659523Y-120354030D01*
X152659523Y-120354030D02*
X152697618Y-120392125D01*
X152697618Y-120392125D02*
X152735714Y-120468316D01*
X152735714Y-120468316D02*
X152735714Y-120582601D01*
X152735714Y-120582601D02*
X152697618Y-120658792D01*
X152697618Y-120658792D02*
X152659523Y-120696887D01*
X152659523Y-120696887D02*
X152583333Y-120734982D01*
X152583333Y-120734982D02*
X152278571Y-120734982D01*
X153002380Y-120315935D02*
X153497618Y-120315935D01*
X153497618Y-120315935D02*
X153230952Y-120620697D01*
X153230952Y-120620697D02*
X153345237Y-120620697D01*
X153345237Y-120620697D02*
X153421428Y-120658792D01*
X153421428Y-120658792D02*
X153459523Y-120696887D01*
X153459523Y-120696887D02*
X153497618Y-120773078D01*
X153497618Y-120773078D02*
X153497618Y-120963554D01*
X153497618Y-120963554D02*
X153459523Y-121039744D01*
X153459523Y-121039744D02*
X153421428Y-121077840D01*
X153421428Y-121077840D02*
X153345237Y-121115935D01*
X153345237Y-121115935D02*
X153116666Y-121115935D01*
X153116666Y-121115935D02*
X153040475Y-121077840D01*
X153040475Y-121077840D02*
X153002380Y-121039744D01*
X153992857Y-120315935D02*
X154069047Y-120315935D01*
X154069047Y-120315935D02*
X154145238Y-120354030D01*
X154145238Y-120354030D02*
X154183333Y-120392125D01*
X154183333Y-120392125D02*
X154221428Y-120468316D01*
X154221428Y-120468316D02*
X154259523Y-120620697D01*
X154259523Y-120620697D02*
X154259523Y-120811173D01*
X154259523Y-120811173D02*
X154221428Y-120963554D01*
X154221428Y-120963554D02*
X154183333Y-121039744D01*
X154183333Y-121039744D02*
X154145238Y-121077840D01*
X154145238Y-121077840D02*
X154069047Y-121115935D01*
X154069047Y-121115935D02*
X153992857Y-121115935D01*
X153992857Y-121115935D02*
X153916666Y-121077840D01*
X153916666Y-121077840D02*
X153878571Y-121039744D01*
X153878571Y-121039744D02*
X153840476Y-120963554D01*
X153840476Y-120963554D02*
X153802380Y-120811173D01*
X153802380Y-120811173D02*
X153802380Y-120620697D01*
X153802380Y-120620697D02*
X153840476Y-120468316D01*
X153840476Y-120468316D02*
X153878571Y-120392125D01*
X153878571Y-120392125D02*
X153916666Y-120354030D01*
X153916666Y-120354030D02*
X153992857Y-120315935D01*
X137483333Y-120696887D02*
X137216667Y-120696887D01*
X137216667Y-121115935D02*
X137216667Y-120315935D01*
X137216667Y-120315935D02*
X137597619Y-120315935D01*
X138321428Y-121115935D02*
X137864285Y-121115935D01*
X138092857Y-121115935D02*
X138092857Y-120315935D01*
X138092857Y-120315935D02*
X138016666Y-120430220D01*
X138016666Y-120430220D02*
X137940476Y-120506411D01*
X137940476Y-120506411D02*
X137864285Y-120544506D01*
X127416667Y-122469744D02*
X127378571Y-122507840D01*
X127378571Y-122507840D02*
X127264286Y-122545935D01*
X127264286Y-122545935D02*
X127188095Y-122545935D01*
X127188095Y-122545935D02*
X127073809Y-122507840D01*
X127073809Y-122507840D02*
X126997619Y-122431649D01*
X126997619Y-122431649D02*
X126959524Y-122355459D01*
X126959524Y-122355459D02*
X126921428Y-122203078D01*
X126921428Y-122203078D02*
X126921428Y-122088792D01*
X126921428Y-122088792D02*
X126959524Y-121936411D01*
X126959524Y-121936411D02*
X126997619Y-121860220D01*
X126997619Y-121860220D02*
X127073809Y-121784030D01*
X127073809Y-121784030D02*
X127188095Y-121745935D01*
X127188095Y-121745935D02*
X127264286Y-121745935D01*
X127264286Y-121745935D02*
X127378571Y-121784030D01*
X127378571Y-121784030D02*
X127416667Y-121822125D01*
X127683333Y-121745935D02*
X128178571Y-121745935D01*
X128178571Y-121745935D02*
X127911905Y-122050697D01*
X127911905Y-122050697D02*
X128026190Y-122050697D01*
X128026190Y-122050697D02*
X128102381Y-122088792D01*
X128102381Y-122088792D02*
X128140476Y-122126887D01*
X128140476Y-122126887D02*
X128178571Y-122203078D01*
X128178571Y-122203078D02*
X128178571Y-122393554D01*
X128178571Y-122393554D02*
X128140476Y-122469744D01*
X128140476Y-122469744D02*
X128102381Y-122507840D01*
X128102381Y-122507840D02*
X128026190Y-122545935D01*
X128026190Y-122545935D02*
X127797619Y-122545935D01*
X127797619Y-122545935D02*
X127721428Y-122507840D01*
X127721428Y-122507840D02*
X127683333Y-122469744D01*
X124985714Y-106865935D02*
X124719047Y-106484982D01*
X124528571Y-106865935D02*
X124528571Y-106065935D01*
X124528571Y-106065935D02*
X124833333Y-106065935D01*
X124833333Y-106065935D02*
X124909523Y-106104030D01*
X124909523Y-106104030D02*
X124947618Y-106142125D01*
X124947618Y-106142125D02*
X124985714Y-106218316D01*
X124985714Y-106218316D02*
X124985714Y-106332601D01*
X124985714Y-106332601D02*
X124947618Y-106408792D01*
X124947618Y-106408792D02*
X124909523Y-106446887D01*
X124909523Y-106446887D02*
X124833333Y-106484982D01*
X124833333Y-106484982D02*
X124528571Y-106484982D01*
X125747618Y-106865935D02*
X125290475Y-106865935D01*
X125519047Y-106865935D02*
X125519047Y-106065935D01*
X125519047Y-106065935D02*
X125442856Y-106180220D01*
X125442856Y-106180220D02*
X125366666Y-106256411D01*
X125366666Y-106256411D02*
X125290475Y-106294506D01*
X126242857Y-106065935D02*
X126319047Y-106065935D01*
X126319047Y-106065935D02*
X126395238Y-106104030D01*
X126395238Y-106104030D02*
X126433333Y-106142125D01*
X126433333Y-106142125D02*
X126471428Y-106218316D01*
X126471428Y-106218316D02*
X126509523Y-106370697D01*
X126509523Y-106370697D02*
X126509523Y-106561173D01*
X126509523Y-106561173D02*
X126471428Y-106713554D01*
X126471428Y-106713554D02*
X126433333Y-106789744D01*
X126433333Y-106789744D02*
X126395238Y-106827840D01*
X126395238Y-106827840D02*
X126319047Y-106865935D01*
X126319047Y-106865935D02*
X126242857Y-106865935D01*
X126242857Y-106865935D02*
X126166666Y-106827840D01*
X126166666Y-106827840D02*
X126128571Y-106789744D01*
X126128571Y-106789744D02*
X126090476Y-106713554D01*
X126090476Y-106713554D02*
X126052380Y-106561173D01*
X126052380Y-106561173D02*
X126052380Y-106370697D01*
X126052380Y-106370697D02*
X126090476Y-106218316D01*
X126090476Y-106218316D02*
X126128571Y-106142125D01*
X126128571Y-106142125D02*
X126166666Y-106104030D01*
X126166666Y-106104030D02*
X126242857Y-106065935D01*
X151735714Y-113615935D02*
X151469047Y-113234982D01*
X151278571Y-113615935D02*
X151278571Y-112815935D01*
X151278571Y-112815935D02*
X151583333Y-112815935D01*
X151583333Y-112815935D02*
X151659523Y-112854030D01*
X151659523Y-112854030D02*
X151697618Y-112892125D01*
X151697618Y-112892125D02*
X151735714Y-112968316D01*
X151735714Y-112968316D02*
X151735714Y-113082601D01*
X151735714Y-113082601D02*
X151697618Y-113158792D01*
X151697618Y-113158792D02*
X151659523Y-113196887D01*
X151659523Y-113196887D02*
X151583333Y-113234982D01*
X151583333Y-113234982D02*
X151278571Y-113234982D01*
X152040475Y-112892125D02*
X152078571Y-112854030D01*
X152078571Y-112854030D02*
X152154761Y-112815935D01*
X152154761Y-112815935D02*
X152345237Y-112815935D01*
X152345237Y-112815935D02*
X152421428Y-112854030D01*
X152421428Y-112854030D02*
X152459523Y-112892125D01*
X152459523Y-112892125D02*
X152497618Y-112968316D01*
X152497618Y-112968316D02*
X152497618Y-113044506D01*
X152497618Y-113044506D02*
X152459523Y-113158792D01*
X152459523Y-113158792D02*
X152002380Y-113615935D01*
X152002380Y-113615935D02*
X152497618Y-113615935D01*
X152802380Y-112892125D02*
X152840476Y-112854030D01*
X152840476Y-112854030D02*
X152916666Y-112815935D01*
X152916666Y-112815935D02*
X153107142Y-112815935D01*
X153107142Y-112815935D02*
X153183333Y-112854030D01*
X153183333Y-112854030D02*
X153221428Y-112892125D01*
X153221428Y-112892125D02*
X153259523Y-112968316D01*
X153259523Y-112968316D02*
X153259523Y-113044506D01*
X153259523Y-113044506D02*
X153221428Y-113158792D01*
X153221428Y-113158792D02*
X152764285Y-113615935D01*
X152764285Y-113615935D02*
X153259523Y-113615935D01*
X151434064Y-115390476D02*
X150786445Y-115390476D01*
X150786445Y-115390476D02*
X150710255Y-115428571D01*
X150710255Y-115428571D02*
X150672160Y-115466666D01*
X150672160Y-115466666D02*
X150634064Y-115542857D01*
X150634064Y-115542857D02*
X150634064Y-115695238D01*
X150634064Y-115695238D02*
X150672160Y-115771428D01*
X150672160Y-115771428D02*
X150710255Y-115809523D01*
X150710255Y-115809523D02*
X150786445Y-115847619D01*
X150786445Y-115847619D02*
X151434064Y-115847619D01*
X151434064Y-116152380D02*
X151434064Y-116647618D01*
X151434064Y-116647618D02*
X151129302Y-116380952D01*
X151129302Y-116380952D02*
X151129302Y-116495237D01*
X151129302Y-116495237D02*
X151091207Y-116571428D01*
X151091207Y-116571428D02*
X151053112Y-116609523D01*
X151053112Y-116609523D02*
X150976921Y-116647618D01*
X150976921Y-116647618D02*
X150786445Y-116647618D01*
X150786445Y-116647618D02*
X150710255Y-116609523D01*
X150710255Y-116609523D02*
X150672160Y-116571428D01*
X150672160Y-116571428D02*
X150634064Y-116495237D01*
X150634064Y-116495237D02*
X150634064Y-116266666D01*
X150634064Y-116266666D02*
X150672160Y-116190475D01*
X150672160Y-116190475D02*
X150710255Y-116152380D01*
X124865935Y-121383332D02*
X124484982Y-121649999D01*
X124865935Y-121840475D02*
X124065935Y-121840475D01*
X124065935Y-121840475D02*
X124065935Y-121535713D01*
X124065935Y-121535713D02*
X124104030Y-121459523D01*
X124104030Y-121459523D02*
X124142125Y-121421428D01*
X124142125Y-121421428D02*
X124218316Y-121383332D01*
X124218316Y-121383332D02*
X124332601Y-121383332D01*
X124332601Y-121383332D02*
X124408792Y-121421428D01*
X124408792Y-121421428D02*
X124446887Y-121459523D01*
X124446887Y-121459523D02*
X124484982Y-121535713D01*
X124484982Y-121535713D02*
X124484982Y-121840475D01*
X124065935Y-120697618D02*
X124065935Y-120849999D01*
X124065935Y-120849999D02*
X124104030Y-120926190D01*
X124104030Y-120926190D02*
X124142125Y-120964285D01*
X124142125Y-120964285D02*
X124256411Y-121040475D01*
X124256411Y-121040475D02*
X124408792Y-121078571D01*
X124408792Y-121078571D02*
X124713554Y-121078571D01*
X124713554Y-121078571D02*
X124789744Y-121040475D01*
X124789744Y-121040475D02*
X124827840Y-121002380D01*
X124827840Y-121002380D02*
X124865935Y-120926190D01*
X124865935Y-120926190D02*
X124865935Y-120773809D01*
X124865935Y-120773809D02*
X124827840Y-120697618D01*
X124827840Y-120697618D02*
X124789744Y-120659523D01*
X124789744Y-120659523D02*
X124713554Y-120621428D01*
X124713554Y-120621428D02*
X124523078Y-120621428D01*
X124523078Y-120621428D02*
X124446887Y-120659523D01*
X124446887Y-120659523D02*
X124408792Y-120697618D01*
X124408792Y-120697618D02*
X124370697Y-120773809D01*
X124370697Y-120773809D02*
X124370697Y-120926190D01*
X124370697Y-120926190D02*
X124408792Y-121002380D01*
X124408792Y-121002380D02*
X124446887Y-121040475D01*
X124446887Y-121040475D02*
X124523078Y-121078571D01*
X144115935Y-112764285D02*
X143734982Y-113030952D01*
X144115935Y-113221428D02*
X143315935Y-113221428D01*
X143315935Y-113221428D02*
X143315935Y-112916666D01*
X143315935Y-112916666D02*
X143354030Y-112840476D01*
X143354030Y-112840476D02*
X143392125Y-112802381D01*
X143392125Y-112802381D02*
X143468316Y-112764285D01*
X143468316Y-112764285D02*
X143582601Y-112764285D01*
X143582601Y-112764285D02*
X143658792Y-112802381D01*
X143658792Y-112802381D02*
X143696887Y-112840476D01*
X143696887Y-112840476D02*
X143734982Y-112916666D01*
X143734982Y-112916666D02*
X143734982Y-113221428D01*
X144115935Y-112002381D02*
X144115935Y-112459524D01*
X144115935Y-112230952D02*
X143315935Y-112230952D01*
X143315935Y-112230952D02*
X143430220Y-112307143D01*
X143430220Y-112307143D02*
X143506411Y-112383333D01*
X143506411Y-112383333D02*
X143544506Y-112459524D01*
X143315935Y-111735714D02*
X143315935Y-111202380D01*
X143315935Y-111202380D02*
X144115935Y-111545238D01*
X157235714Y-111365935D02*
X156969047Y-110984982D01*
X156778571Y-111365935D02*
X156778571Y-110565935D01*
X156778571Y-110565935D02*
X157083333Y-110565935D01*
X157083333Y-110565935D02*
X157159523Y-110604030D01*
X157159523Y-110604030D02*
X157197618Y-110642125D01*
X157197618Y-110642125D02*
X157235714Y-110718316D01*
X157235714Y-110718316D02*
X157235714Y-110832601D01*
X157235714Y-110832601D02*
X157197618Y-110908792D01*
X157197618Y-110908792D02*
X157159523Y-110946887D01*
X157159523Y-110946887D02*
X157083333Y-110984982D01*
X157083333Y-110984982D02*
X156778571Y-110984982D01*
X157997618Y-111365935D02*
X157540475Y-111365935D01*
X157769047Y-111365935D02*
X157769047Y-110565935D01*
X157769047Y-110565935D02*
X157692856Y-110680220D01*
X157692856Y-110680220D02*
X157616666Y-110756411D01*
X157616666Y-110756411D02*
X157540475Y-110794506D01*
X158454761Y-110908792D02*
X158378571Y-110870697D01*
X158378571Y-110870697D02*
X158340476Y-110832601D01*
X158340476Y-110832601D02*
X158302380Y-110756411D01*
X158302380Y-110756411D02*
X158302380Y-110718316D01*
X158302380Y-110718316D02*
X158340476Y-110642125D01*
X158340476Y-110642125D02*
X158378571Y-110604030D01*
X158378571Y-110604030D02*
X158454761Y-110565935D01*
X158454761Y-110565935D02*
X158607142Y-110565935D01*
X158607142Y-110565935D02*
X158683333Y-110604030D01*
X158683333Y-110604030D02*
X158721428Y-110642125D01*
X158721428Y-110642125D02*
X158759523Y-110718316D01*
X158759523Y-110718316D02*
X158759523Y-110756411D01*
X158759523Y-110756411D02*
X158721428Y-110832601D01*
X158721428Y-110832601D02*
X158683333Y-110870697D01*
X158683333Y-110870697D02*
X158607142Y-110908792D01*
X158607142Y-110908792D02*
X158454761Y-110908792D01*
X158454761Y-110908792D02*
X158378571Y-110946887D01*
X158378571Y-110946887D02*
X158340476Y-110984982D01*
X158340476Y-110984982D02*
X158302380Y-111061173D01*
X158302380Y-111061173D02*
X158302380Y-111213554D01*
X158302380Y-111213554D02*
X158340476Y-111289744D01*
X158340476Y-111289744D02*
X158378571Y-111327840D01*
X158378571Y-111327840D02*
X158454761Y-111365935D01*
X158454761Y-111365935D02*
X158607142Y-111365935D01*
X158607142Y-111365935D02*
X158683333Y-111327840D01*
X158683333Y-111327840D02*
X158721428Y-111289744D01*
X158721428Y-111289744D02*
X158759523Y-111213554D01*
X158759523Y-111213554D02*
X158759523Y-111061173D01*
X158759523Y-111061173D02*
X158721428Y-110984982D01*
X158721428Y-110984982D02*
X158683333Y-110946887D01*
X158683333Y-110946887D02*
X158607142Y-110908792D01*
X154485714Y-107615935D02*
X154219047Y-107234982D01*
X154028571Y-107615935D02*
X154028571Y-106815935D01*
X154028571Y-106815935D02*
X154333333Y-106815935D01*
X154333333Y-106815935D02*
X154409523Y-106854030D01*
X154409523Y-106854030D02*
X154447618Y-106892125D01*
X154447618Y-106892125D02*
X154485714Y-106968316D01*
X154485714Y-106968316D02*
X154485714Y-107082601D01*
X154485714Y-107082601D02*
X154447618Y-107158792D01*
X154447618Y-107158792D02*
X154409523Y-107196887D01*
X154409523Y-107196887D02*
X154333333Y-107234982D01*
X154333333Y-107234982D02*
X154028571Y-107234982D01*
X155247618Y-107615935D02*
X154790475Y-107615935D01*
X155019047Y-107615935D02*
X155019047Y-106815935D01*
X155019047Y-106815935D02*
X154942856Y-106930220D01*
X154942856Y-106930220D02*
X154866666Y-107006411D01*
X154866666Y-107006411D02*
X154790475Y-107044506D01*
X155628571Y-107615935D02*
X155780952Y-107615935D01*
X155780952Y-107615935D02*
X155857142Y-107577840D01*
X155857142Y-107577840D02*
X155895238Y-107539744D01*
X155895238Y-107539744D02*
X155971428Y-107425459D01*
X155971428Y-107425459D02*
X156009523Y-107273078D01*
X156009523Y-107273078D02*
X156009523Y-106968316D01*
X156009523Y-106968316D02*
X155971428Y-106892125D01*
X155971428Y-106892125D02*
X155933333Y-106854030D01*
X155933333Y-106854030D02*
X155857142Y-106815935D01*
X155857142Y-106815935D02*
X155704761Y-106815935D01*
X155704761Y-106815935D02*
X155628571Y-106854030D01*
X155628571Y-106854030D02*
X155590476Y-106892125D01*
X155590476Y-106892125D02*
X155552380Y-106968316D01*
X155552380Y-106968316D02*
X155552380Y-107158792D01*
X155552380Y-107158792D02*
X155590476Y-107234982D01*
X155590476Y-107234982D02*
X155628571Y-107273078D01*
X155628571Y-107273078D02*
X155704761Y-107311173D01*
X155704761Y-107311173D02*
X155857142Y-107311173D01*
X155857142Y-107311173D02*
X155933333Y-107273078D01*
X155933333Y-107273078D02*
X155971428Y-107234982D01*
X155971428Y-107234982D02*
X156009523Y-107158792D01*
X151735714Y-109615935D02*
X151469047Y-109234982D01*
X151278571Y-109615935D02*
X151278571Y-108815935D01*
X151278571Y-108815935D02*
X151583333Y-108815935D01*
X151583333Y-108815935D02*
X151659523Y-108854030D01*
X151659523Y-108854030D02*
X151697618Y-108892125D01*
X151697618Y-108892125D02*
X151735714Y-108968316D01*
X151735714Y-108968316D02*
X151735714Y-109082601D01*
X151735714Y-109082601D02*
X151697618Y-109158792D01*
X151697618Y-109158792D02*
X151659523Y-109196887D01*
X151659523Y-109196887D02*
X151583333Y-109234982D01*
X151583333Y-109234982D02*
X151278571Y-109234982D01*
X152040475Y-108892125D02*
X152078571Y-108854030D01*
X152078571Y-108854030D02*
X152154761Y-108815935D01*
X152154761Y-108815935D02*
X152345237Y-108815935D01*
X152345237Y-108815935D02*
X152421428Y-108854030D01*
X152421428Y-108854030D02*
X152459523Y-108892125D01*
X152459523Y-108892125D02*
X152497618Y-108968316D01*
X152497618Y-108968316D02*
X152497618Y-109044506D01*
X152497618Y-109044506D02*
X152459523Y-109158792D01*
X152459523Y-109158792D02*
X152002380Y-109615935D01*
X152002380Y-109615935D02*
X152497618Y-109615935D01*
X152878571Y-109615935D02*
X153030952Y-109615935D01*
X153030952Y-109615935D02*
X153107142Y-109577840D01*
X153107142Y-109577840D02*
X153145238Y-109539744D01*
X153145238Y-109539744D02*
X153221428Y-109425459D01*
X153221428Y-109425459D02*
X153259523Y-109273078D01*
X153259523Y-109273078D02*
X153259523Y-108968316D01*
X153259523Y-108968316D02*
X153221428Y-108892125D01*
X153221428Y-108892125D02*
X153183333Y-108854030D01*
X153183333Y-108854030D02*
X153107142Y-108815935D01*
X153107142Y-108815935D02*
X152954761Y-108815935D01*
X152954761Y-108815935D02*
X152878571Y-108854030D01*
X152878571Y-108854030D02*
X152840476Y-108892125D01*
X152840476Y-108892125D02*
X152802380Y-108968316D01*
X152802380Y-108968316D02*
X152802380Y-109158792D01*
X152802380Y-109158792D02*
X152840476Y-109234982D01*
X152840476Y-109234982D02*
X152878571Y-109273078D01*
X152878571Y-109273078D02*
X152954761Y-109311173D01*
X152954761Y-109311173D02*
X153107142Y-109311173D01*
X153107142Y-109311173D02*
X153183333Y-109273078D01*
X153183333Y-109273078D02*
X153221428Y-109234982D01*
X153221428Y-109234982D02*
X153259523Y-109158792D01*
X138733333Y-108065935D02*
X138733333Y-108637363D01*
X138733333Y-108637363D02*
X138695238Y-108751649D01*
X138695238Y-108751649D02*
X138619047Y-108827840D01*
X138619047Y-108827840D02*
X138504762Y-108865935D01*
X138504762Y-108865935D02*
X138428571Y-108865935D01*
X139533333Y-108865935D02*
X139076190Y-108865935D01*
X139304762Y-108865935D02*
X139304762Y-108065935D01*
X139304762Y-108065935D02*
X139228571Y-108180220D01*
X139228571Y-108180220D02*
X139152381Y-108256411D01*
X139152381Y-108256411D02*
X139076190Y-108294506D01*
X122865935Y-113133332D02*
X122484982Y-113399999D01*
X122865935Y-113590475D02*
X122065935Y-113590475D01*
X122065935Y-113590475D02*
X122065935Y-113285713D01*
X122065935Y-113285713D02*
X122104030Y-113209523D01*
X122104030Y-113209523D02*
X122142125Y-113171428D01*
X122142125Y-113171428D02*
X122218316Y-113133332D01*
X122218316Y-113133332D02*
X122332601Y-113133332D01*
X122332601Y-113133332D02*
X122408792Y-113171428D01*
X122408792Y-113171428D02*
X122446887Y-113209523D01*
X122446887Y-113209523D02*
X122484982Y-113285713D01*
X122484982Y-113285713D02*
X122484982Y-113590475D01*
X122065935Y-112409523D02*
X122065935Y-112790475D01*
X122065935Y-112790475D02*
X122446887Y-112828571D01*
X122446887Y-112828571D02*
X122408792Y-112790475D01*
X122408792Y-112790475D02*
X122370697Y-112714285D01*
X122370697Y-112714285D02*
X122370697Y-112523809D01*
X122370697Y-112523809D02*
X122408792Y-112447618D01*
X122408792Y-112447618D02*
X122446887Y-112409523D01*
X122446887Y-112409523D02*
X122523078Y-112371428D01*
X122523078Y-112371428D02*
X122713554Y-112371428D01*
X122713554Y-112371428D02*
X122789744Y-112409523D01*
X122789744Y-112409523D02*
X122827840Y-112447618D01*
X122827840Y-112447618D02*
X122865935Y-112523809D01*
X122865935Y-112523809D02*
X122865935Y-112714285D01*
X122865935Y-112714285D02*
X122827840Y-112790475D01*
X122827840Y-112790475D02*
X122789744Y-112828571D01*
X126615935Y-109764285D02*
X126234982Y-110030952D01*
X126615935Y-110221428D02*
X125815935Y-110221428D01*
X125815935Y-110221428D02*
X125815935Y-109916666D01*
X125815935Y-109916666D02*
X125854030Y-109840476D01*
X125854030Y-109840476D02*
X125892125Y-109802381D01*
X125892125Y-109802381D02*
X125968316Y-109764285D01*
X125968316Y-109764285D02*
X126082601Y-109764285D01*
X126082601Y-109764285D02*
X126158792Y-109802381D01*
X126158792Y-109802381D02*
X126196887Y-109840476D01*
X126196887Y-109840476D02*
X126234982Y-109916666D01*
X126234982Y-109916666D02*
X126234982Y-110221428D01*
X126615935Y-109002381D02*
X126615935Y-109459524D01*
X126615935Y-109230952D02*
X125815935Y-109230952D01*
X125815935Y-109230952D02*
X125930220Y-109307143D01*
X125930220Y-109307143D02*
X126006411Y-109383333D01*
X126006411Y-109383333D02*
X126044506Y-109459524D01*
X125892125Y-108697619D02*
X125854030Y-108659523D01*
X125854030Y-108659523D02*
X125815935Y-108583333D01*
X125815935Y-108583333D02*
X125815935Y-108392857D01*
X125815935Y-108392857D02*
X125854030Y-108316666D01*
X125854030Y-108316666D02*
X125892125Y-108278571D01*
X125892125Y-108278571D02*
X125968316Y-108240476D01*
X125968316Y-108240476D02*
X126044506Y-108240476D01*
X126044506Y-108240476D02*
X126158792Y-108278571D01*
X126158792Y-108278571D02*
X126615935Y-108735714D01*
X126615935Y-108735714D02*
X126615935Y-108240476D01*
X157235714Y-115365935D02*
X156969047Y-114984982D01*
X156778571Y-115365935D02*
X156778571Y-114565935D01*
X156778571Y-114565935D02*
X157083333Y-114565935D01*
X157083333Y-114565935D02*
X157159523Y-114604030D01*
X157159523Y-114604030D02*
X157197618Y-114642125D01*
X157197618Y-114642125D02*
X157235714Y-114718316D01*
X157235714Y-114718316D02*
X157235714Y-114832601D01*
X157235714Y-114832601D02*
X157197618Y-114908792D01*
X157197618Y-114908792D02*
X157159523Y-114946887D01*
X157159523Y-114946887D02*
X157083333Y-114984982D01*
X157083333Y-114984982D02*
X156778571Y-114984982D01*
X157540475Y-114642125D02*
X157578571Y-114604030D01*
X157578571Y-114604030D02*
X157654761Y-114565935D01*
X157654761Y-114565935D02*
X157845237Y-114565935D01*
X157845237Y-114565935D02*
X157921428Y-114604030D01*
X157921428Y-114604030D02*
X157959523Y-114642125D01*
X157959523Y-114642125D02*
X157997618Y-114718316D01*
X157997618Y-114718316D02*
X157997618Y-114794506D01*
X157997618Y-114794506D02*
X157959523Y-114908792D01*
X157959523Y-114908792D02*
X157502380Y-115365935D01*
X157502380Y-115365935D02*
X157997618Y-115365935D01*
X158492857Y-114565935D02*
X158569047Y-114565935D01*
X158569047Y-114565935D02*
X158645238Y-114604030D01*
X158645238Y-114604030D02*
X158683333Y-114642125D01*
X158683333Y-114642125D02*
X158721428Y-114718316D01*
X158721428Y-114718316D02*
X158759523Y-114870697D01*
X158759523Y-114870697D02*
X158759523Y-115061173D01*
X158759523Y-115061173D02*
X158721428Y-115213554D01*
X158721428Y-115213554D02*
X158683333Y-115289744D01*
X158683333Y-115289744D02*
X158645238Y-115327840D01*
X158645238Y-115327840D02*
X158569047Y-115365935D01*
X158569047Y-115365935D02*
X158492857Y-115365935D01*
X158492857Y-115365935D02*
X158416666Y-115327840D01*
X158416666Y-115327840D02*
X158378571Y-115289744D01*
X158378571Y-115289744D02*
X158340476Y-115213554D01*
X158340476Y-115213554D02*
X158302380Y-115061173D01*
X158302380Y-115061173D02*
X158302380Y-114870697D01*
X158302380Y-114870697D02*
X158340476Y-114718316D01*
X158340476Y-114718316D02*
X158378571Y-114642125D01*
X158378571Y-114642125D02*
X158416666Y-114604030D01*
X158416666Y-114604030D02*
X158492857Y-114565935D01*
D13*
X132227064Y-106515000D02*
X131772936Y-106515000D01*
X132227064Y-107985000D02*
X131772936Y-107985000D01*
X125890000Y-112650000D02*
X125890000Y-114350000D01*
X125890000Y-112650000D02*
X128550000Y-112650000D01*
X125890000Y-114350000D02*
X128550000Y-114350000D01*
X146227064Y-106515000D02*
X145772936Y-106515000D01*
X146227064Y-107985000D02*
X145772936Y-107985000D01*
X132227064Y-104515000D02*
X131772936Y-104515000D01*
X132227064Y-105985000D02*
X131772936Y-105985000D01*
X144390000Y-114400000D02*
X144390000Y-116100000D01*
X144390000Y-114400000D02*
X147050000Y-114400000D01*
X144390000Y-116100000D02*
X147050000Y-116100000D01*
X131772936Y-108515000D02*
X132227064Y-108515000D01*
X131772936Y-109985000D02*
X132227064Y-109985000D01*
X146227064Y-108515000D02*
X145772936Y-108515000D01*
X146227064Y-109985000D02*
X145772936Y-109985000D01*
X132000000Y-112440000D02*
X131200000Y-112440000D01*
X132000000Y-112440000D02*
X132800000Y-112440000D01*
X132000000Y-115560000D02*
X131200000Y-115560000D01*
X132000000Y-115560000D02*
X132800000Y-115560000D01*
X133540000Y-115840000D02*
X133060000Y-115840000D01*
X133300000Y-115510000D01*
X133540000Y-115840000D01*
G36*
X133540000Y-115840000D02*
G01*
X133060000Y-115840000D01*
X133300000Y-115510000D01*
X133540000Y-115840000D01*
G37*
X128272936Y-104515000D02*
X128727064Y-104515000D01*
X128272936Y-105985000D02*
X128727064Y-105985000D01*
X149727064Y-110515000D02*
X149272936Y-110515000D01*
X149727064Y-111985000D02*
X149272936Y-111985000D01*
X131772936Y-120015000D02*
X132227064Y-120015000D01*
X131772936Y-121485000D02*
X132227064Y-121485000D01*
X137515000Y-118690000D02*
X137515000Y-119580000D01*
X137515000Y-119580000D02*
X135665000Y-119580000D01*
X137530000Y-116460000D02*
X135680000Y-116460000D01*
X137530000Y-116460000D02*
X137530000Y-117350000D01*
X150265000Y-121488748D02*
X150265000Y-122011252D01*
X151735000Y-121488748D02*
X151735000Y-122011252D01*
X144390000Y-112400000D02*
X144390000Y-114100000D01*
X144390000Y-112400000D02*
X147050000Y-112400000D01*
X144390000Y-114100000D02*
X147050000Y-114100000D01*
X155227064Y-118265000D02*
X154772936Y-118265000D01*
X155227064Y-119735000D02*
X154772936Y-119735000D01*
X149272936Y-106515000D02*
X149727064Y-106515000D01*
X149272936Y-107985000D02*
X149727064Y-107985000D01*
X147015000Y-118690000D02*
X147015000Y-119580000D01*
X147015000Y-119580000D02*
X145165000Y-119580000D01*
X147030000Y-116460000D02*
X145180000Y-116460000D01*
X147030000Y-116460000D02*
X147030000Y-117350000D01*
X132000000Y-116440000D02*
X131200000Y-116440000D01*
X132000000Y-116440000D02*
X132800000Y-116440000D01*
X132000000Y-119560000D02*
X131200000Y-119560000D01*
X132000000Y-119560000D02*
X132800000Y-119560000D01*
X133540000Y-119840000D02*
X133060000Y-119840000D01*
X133300000Y-119510000D01*
X133540000Y-119840000D01*
G36*
X133540000Y-119840000D02*
G01*
X133060000Y-119840000D01*
X133300000Y-119510000D01*
X133540000Y-119840000D01*
G37*
X127761252Y-114765000D02*
X127238748Y-114765000D01*
X127761252Y-116235000D02*
X127238748Y-116235000D01*
X154772936Y-116265000D02*
X155227064Y-116265000D01*
X154772936Y-117735000D02*
X155227064Y-117735000D01*
X123765000Y-110727064D02*
X123765000Y-110272936D01*
X125235000Y-110727064D02*
X125235000Y-110272936D01*
X140470000Y-119540000D02*
X140470000Y-118650000D01*
X140470000Y-119540000D02*
X142320000Y-119540000D01*
X140485000Y-116420000D02*
X142335000Y-116420000D01*
X140485000Y-117310000D02*
X140485000Y-116420000D01*
D14*
X127260429Y-119079500D02*
X127739571Y-119079500D01*
X127739571Y-116920500D02*
X127260429Y-116920500D01*
X128198500Y-118139459D02*
X128198500Y-117860541D01*
X127624460Y-117198731D02*
G75*
G02*
X127375540Y-117198731I-124460J278226D01*
G01*
D13*
X155227064Y-112265000D02*
X154772936Y-112265000D01*
X155227064Y-113735000D02*
X154772936Y-113735000D01*
X132227064Y-110515000D02*
X131772936Y-110515000D01*
X132227064Y-111985000D02*
X131772936Y-111985000D01*
X147500000Y-120190000D02*
X146700000Y-120190000D01*
X147500000Y-120190000D02*
X148300000Y-120190000D01*
X147500000Y-123310000D02*
X146700000Y-123310000D01*
X147500000Y-123310000D02*
X148300000Y-123310000D01*
X146200000Y-120240000D02*
X145960000Y-119910000D01*
X146440000Y-119910000D01*
X146200000Y-120240000D01*
G36*
X146200000Y-120240000D02*
G01*
X145960000Y-119910000D01*
X146440000Y-119910000D01*
X146200000Y-120240000D01*
G37*
X139920000Y-114015000D02*
X139920000Y-112165000D01*
X140810000Y-114015000D02*
X139920000Y-114015000D01*
X143040000Y-114030000D02*
X142150000Y-114030000D01*
X143040000Y-114030000D02*
X143040000Y-112180000D01*
X134920000Y-114015000D02*
X134920000Y-112165000D01*
X135810000Y-114015000D02*
X134920000Y-114015000D01*
X138040000Y-114030000D02*
X137150000Y-114030000D01*
X138040000Y-114030000D02*
X138040000Y-112180000D01*
X121765000Y-118772936D02*
X121765000Y-119227064D01*
X123235000Y-118772936D02*
X123235000Y-119227064D01*
X149727064Y-104515000D02*
X149272936Y-104515000D01*
X149727064Y-105985000D02*
X149272936Y-105985000D01*
X121765000Y-110272936D02*
X121765000Y-110727064D01*
X123235000Y-110272936D02*
X123235000Y-110727064D01*
X123765000Y-115272936D02*
X123765000Y-115727064D01*
X125235000Y-115272936D02*
X125235000Y-115727064D01*
X145772936Y-104515000D02*
X146227064Y-104515000D01*
X145772936Y-105985000D02*
X146227064Y-105985000D01*
X150772936Y-118265000D02*
X151227064Y-118265000D01*
X150772936Y-119735000D02*
X151227064Y-119735000D01*
X135272936Y-120015000D02*
X135727064Y-120015000D01*
X135272936Y-121485000D02*
X135727064Y-121485000D01*
X127811252Y-119765000D02*
X127288748Y-119765000D01*
X127811252Y-121235000D02*
X127288748Y-121235000D01*
X128272936Y-106515000D02*
X128727064Y-106515000D01*
X128272936Y-107985000D02*
X128727064Y-107985000D01*
X149727064Y-112515000D02*
X149272936Y-112515000D01*
X149727064Y-113985000D02*
X149272936Y-113985000D01*
D12*
X149200000Y-117500000D02*
X150700000Y-117500000D01*
X151300000Y-117500000D02*
X152800000Y-117500000D01*
X152800000Y-114500000D02*
X149200000Y-114500000D01*
X150700000Y-117500000D02*
G75*
G02*
X151300000Y-117500000I300000J0D01*
G01*
D13*
X123765000Y-118772936D02*
X123765000Y-119227064D01*
X125235000Y-118772936D02*
X125235000Y-119227064D01*
X145772936Y-110515000D02*
X146227064Y-110515000D01*
X145772936Y-111985000D02*
X146227064Y-111985000D01*
X155227064Y-110265000D02*
X154772936Y-110265000D01*
X155227064Y-111735000D02*
X154772936Y-111735000D01*
X155227064Y-108265000D02*
X154772936Y-108265000D01*
X155227064Y-109735000D02*
X154772936Y-109735000D01*
X149272936Y-108515000D02*
X149727064Y-108515000D01*
X149272936Y-109985000D02*
X149727064Y-109985000D01*
D12*
X144000000Y-110000000D02*
X134000000Y-110000000D01*
X144000000Y-110700000D02*
X134000000Y-110700000D01*
X134000000Y-103200000D01*
X144000000Y-103200000D01*
X144000000Y-110700000D01*
X136500000Y-104500000D02*
X136000000Y-103500000D01*
X137000000Y-103500000D01*
X136500000Y-104500000D01*
G36*
X136500000Y-104500000D02*
G01*
X136000000Y-103500000D01*
X137000000Y-103500000D01*
X136500000Y-104500000D01*
G37*
X141500000Y-104500000D02*
X141000000Y-103500000D01*
X142000000Y-103500000D01*
X141500000Y-104500000D01*
G36*
X141500000Y-104500000D02*
G01*
X141000000Y-103500000D01*
X142000000Y-103500000D01*
X141500000Y-104500000D01*
G37*
D13*
X121765000Y-115272936D02*
X121765000Y-115727064D01*
X123235000Y-115272936D02*
X123235000Y-115727064D01*
X128727064Y-108515000D02*
X128272936Y-108515000D01*
X128727064Y-109985000D02*
X128272936Y-109985000D01*
X155227064Y-114265000D02*
X154772936Y-114265000D01*
X155227064Y-115735000D02*
X154772936Y-115735000D01*
M02*
